Peel-Reg-extended.ufo
<glyph name="exclam" format="1">
  <advance width="629"/>
  <unicode hex="0021"/>
  <outline>
    <contour>
      <point x="428" y="1321"/>
      <point x="443" y="1488"/>
      <point x="443" y="1516" type="curve"/>
      <point x="443" y="1516"/>
      <point x="388" y="1516"/>
      <point x="331" y="1516" type="curve" smooth="yes"/>
      <point x="270" y="1516"/>
      <point x="206" y="1516"/>
      <point x="206" y="1516" type="curve"/>
      <point x="206" y="1492"/>
      <point x="221" y="1314"/>
      <point x="288" y="450" type="curve"/>
      <point x="290" y="410"/>
      <point x="301" y="407"/>
      <point x="315" y="407" type="curve" smooth="yes"/>
      <point x="330" y="407"/>
      <point x="340" y="410"/>
      <point x="344" y="447" type="curve" smooth="yes"/>
    </contour>
    <contour>
      <point x="379" y="-18"/>
      <point x="448" y="24"/>
      <point x="448" y="109" type="curve" smooth="yes"/>
      <point x="448" y="197"/>
      <point x="379" y="242"/>
      <point x="313" y="242" type="curve" smooth="yes"/>
      <point x="246" y="242"/>
      <point x="178" y="198"/>
      <point x="178" y="109" type="curve" smooth="yes"/>
      <point x="178" y="24"/>
      <point x="246" y="-18"/>
      <point x="313" y="-18" type="curve" smooth="yes"/>
    </contour>
  </outline>
</glyph>
<glyph name="parenright" format="1">
  <advance width="680"/>
  <unicode hex="0029"/>
  <outline>
    <contour>
      <point x="207" y="-108" type="line"/>
      <point x="474" y="60"/>
      <point x="607" y="411"/>
      <point x="607" y="760" type="curve" smooth="yes"/>
      <point x="607" y="1109"/>
      <point x="474" y="1460"/>
      <point x="207" y="1628" type="curve"/>
      <point x="97" y="1516" type="line"/>
      <point x="304" y="1377"/>
      <point x="407" y="1067"/>
      <point x="407" y="760" type="curve" smooth="yes"/>
      <point x="407" y="453"/>
      <point x="304" y="143"/>
      <point x="97" y="4" type="curve"/>
    </contour>
  </outline>
</glyph>
<glyph name="plus" format="1">
  <advance width="1231"/>
  <unicode hex="002B"/>
  <outline>
    <contour>
      <point x="535" y="356" type="line"/>
      <point x="696" y="356" type="line"/>
      <point x="696" y="706" type="line"/>
      <point x="1031" y="706" type="line"/>
      <point x="1031" y="861" type="line"/>
      <point x="696" y="861" type="line"/>
      <point x="696" y="1211" type="line"/>
      <point x="535" y="1211" type="line"/>
      <point x="535" y="861" type="line"/>
      <point x="199" y="861" type="line"/>
      <point x="199" y="706" type="line"/>
      <point x="535" y="706" type="line"/>
    </contour>
  </outline>
</glyph>
<glyph name="period" format="1">
  <advance width="512"/>
  <unicode hex="002E"/>
  <outline>
    <contour>
      <point x="257" y="-18" type="curve" smooth="yes"/>
      <point x="323" y="-18"/>
      <point x="392" y="24"/>
      <point x="392" y="110" type="curve" smooth="yes"/>
      <point x="392" y="197"/>
      <point x="323" y="243"/>
      <point x="257" y="243" type="curve" smooth="yes"/>
      <point x="190" y="243"/>
      <point x="122" y="199"/>
      <point x="122" y="110" type="curve" smooth="yes"/>
      <point x="122" y="24"/>
      <point x="190" y="-18"/>
    </contour>
  </outline>
</glyph>
<glyph name="slash" format="1">
  <advance width="1136"/>
  <unicode hex="002F"/>
  <outline>
    <contour>
      <point x="84" y="0" type="line"/>
      <point x="283" y="0" type="line"/>
      <point x="1049" y="1516" type="line"/>
      <point x="852" y="1516" type="line"/>
    </contour>
  </outline>
</glyph>
<glyph name="one" format="1">
  <advance width="647"/>
  <unicode hex="0031"/>
  <outline>
    <contour>
      <point x="282" y="0" type="line"/>
      <point x="469" y="0" type="line"/>
      <point x="469" y="1522" type="line"/>
      <point x="301" y="1522" type="line"/>
      <point x="218" y="1464"/>
      <point x="116" y="1431"/>
      <point x="24" y="1391" type="curve"/>
      <point x="24" y="1220" type="line"/>
      <point x="99" y="1242"/>
      <point x="198" y="1283"/>
      <point x="282" y="1334" type="curve"/>
    </contour>
  </outline>
</glyph>
<glyph name="five" format="1">
  <advance width="1216"/>
  <unicode hex="0035"/>
  <outline>
    <contour>
      <point x="547" y="-20" type="curve" smooth="yes"/>
      <point x="903" y="-20"/>
      <point x="1113" y="184"/>
      <point x="1113" y="487" type="curve" smooth="yes"/>
      <point x="1113" y="746"/>
      <point x="958" y="949"/>
      <point x="637" y="949" type="curve" smooth="yes"/>
      <point x="549" y="949"/>
      <point x="465" y="925"/>
      <point x="380" y="875" type="curve"/>
      <point x="385" y="1022"/>
      <point x="388" y="1209"/>
      <point x="395" y="1355" type="curve"/>
      <point x="1038" y="1355" type="line"/>
      <point x="1053" y="1521" type="line"/>
      <point x="248" y="1521" type="line"/>
      <point x="204" y="710" type="line"/>
      <point x="351" y="690" type="line"/>
      <point x="419" y="761"/>
      <point x="502" y="789"/>
      <point x="602" y="789" type="curve" smooth="yes"/>
      <point x="815" y="789"/>
      <point x="924" y="659"/>
      <point x="924" y="486" type="curve" smooth="yes"/>
      <point x="924" y="288"/>
      <point x="786" y="144"/>
      <point x="554" y="144" type="curve" smooth="yes"/>
      <point x="382" y="144"/>
      <point x="262" y="214"/>
      <point x="195" y="263" type="curve"/>
      <point x="125" y="119" type="line"/>
      <point x="219" y="37"/>
      <point x="365" y="-20"/>
    </contour>
  </outline>
</glyph>
<glyph name="six" format="1">
  <advance width="1236"/>
  <unicode hex="0036"/>
  <outline>
    <contour>
      <point x="611" y="-20" type="curve" smooth="yes"/>
      <point x="934" y="-20"/>
      <point x="1137" y="188"/>
      <point x="1137" y="459" type="curve" smooth="yes"/>
      <point x="1137" y="738"/>
      <point x="909" y="936"/>
      <point x="644" y="936" type="curve" smooth="yes"/>
      <point x="559" y="936"/>
      <point x="474" y="910"/>
      <point x="406" y="875" type="curve"/>
      <point x="966" y="1521" type="line"/>
      <point x="722" y="1521" type="line"/>
      <point x="722" y="1521"/>
      <point x="461" y="1216"/>
      <point x="371" y="1106" type="curve" smooth="yes"/>
      <point x="161" y="851"/>
      <point x="82" y="710"/>
      <point x="82" y="482" type="curve" smooth="yes"/>
      <point x="82" y="207"/>
      <point x="278" y="-20"/>
    </contour>
    <contour>
      <point x="606" y="135" type="curve" smooth="yes"/>
      <point x="388" y="135"/>
      <point x="281" y="290"/>
      <point x="281" y="463" type="curve" smooth="yes"/>
      <point x="281" y="637"/>
      <point x="373" y="782"/>
      <point x="606" y="782" type="curve" smooth="yes"/>
      <point x="818" y="782"/>
      <point x="937" y="644"/>
      <point x="937" y="457" type="curve" smooth="yes"/>
      <point x="937" y="281"/>
      <point x="821" y="135"/>
    </contour>
  </outline>
</glyph>
<glyph name="seven" format="1">
  <advance width="1031"/>
  <unicode hex="0037"/>
  <outline>
    <contour>
      <point x="231" y="0" type="line"/>
      <point x="422" y="0" type="line"/>
      <point x="983" y="1384" type="line"/>
      <point x="983" y="1522" type="line"/>
      <point x="73" y="1522" type="line"/>
      <point x="61" y="1365" type="line"/>
      <point x="770" y="1365" type="line"/>
    </contour>
  </outline>
</glyph>
<glyph name="eight" format="1">
  <advance width="1273"/>
  <unicode hex="0038"/>
  <outline>
    <contour>
      <point x="642" y="-19" type="curve" smooth="yes"/>
      <point x="892" y="-19"/>
      <point x="1144" y="107"/>
      <point x="1144" y="355" type="curve" smooth="yes"/>
      <point x="1144" y="509"/>
      <point x="1052" y="671"/>
      <point x="845" y="793" type="curve"/>
      <point x="1029" y="891"/>
      <point x="1112" y="1035"/>
      <point x="1112" y="1179" type="curve"/>
      <point x="1110" y="1179" type="line"/>
      <point x="1110" y="1362"/>
      <point x="933" y="1535"/>
      <point x="634" y="1535" type="curve" smooth="yes"/>
      <point x="332" y="1535"/>
      <point x="161" y="1362"/>
      <point x="161" y="1173" type="curve" smooth="yes"/>
      <point x="161" y="1026"/>
      <point x="251" y="878"/>
      <point x="446" y="793" type="curve"/>
      <point x="224" y="688"/>
      <point x="129" y="521"/>
      <point x="129" y="354" type="curve" smooth="yes"/>
      <point x="129" y="108"/>
      <point x="392" y="-19"/>
    </contour>
    <contour>
      <point x="635" y="859" type="curve"/>
      <point x="445" y="900"/>
      <point x="335" y="1045"/>
      <point x="335" y="1173" type="curve"/>
      <point x="336" y="1173" type="line"/>
      <point x="336" y="1316"/>
      <point x="485" y="1388"/>
      <point x="635" y="1388" type="curve" smooth="yes"/>
      <point x="784" y="1388"/>
      <point x="933" y="1316"/>
      <point x="933" y="1173" type="curve" smooth="yes"/>
      <point x="933" y="1045"/>
      <point x="822" y="900"/>
    </contour>
    <contour>
      <point x="635" y="128" type="curve" smooth="yes"/>
      <point x="470" y="128"/>
      <point x="317" y="209"/>
      <point x="317" y="375" type="curve" smooth="yes"/>
      <point x="317" y="519"/>
      <point x="422" y="654"/>
      <point x="635" y="721" type="curve"/>
      <point x="825" y="676"/>
      <point x="959" y="518"/>
      <point x="959" y="380" type="curve" smooth="yes"/>
      <point x="959" y="202"/>
      <point x="798" y="128"/>
    </contour>
  </outline>
</glyph>
<glyph name="nine" format="1">
  <advance width="1230"/>
  <unicode hex="0039"/>
  <outline>
    <contour>
      <point x="268" y="0" type="line"/>
      <point x="500" y="0" type="line"/>
      <point x="500" y="0"/>
      <point x="820" y="379"/>
      <point x="923" y="511" type="curve" smooth="yes"/>
      <point x="1085" y="719"/>
      <point x="1150" y="852"/>
      <point x="1150" y="1049" type="curve" smooth="yes"/>
      <point x="1150" y="1322"/>
      <point x="963" y="1534"/>
      <point x="626" y="1534" type="curve" smooth="yes"/>
      <point x="307" y="1534"/>
      <point x="98" y="1329"/>
      <point x="98" y="1060" type="curve" smooth="yes"/>
      <point x="98" y="784"/>
      <point x="326" y="606"/>
      <point x="591" y="606" type="curve" smooth="yes"/>
      <point x="675" y="606"/>
      <point x="760" y="633"/>
      <point x="827" y="667" type="curve"/>
    </contour>
    <contour>
      <point x="626" y="756" type="curve" smooth="yes"/>
      <point x="415" y="756"/>
      <point x="295" y="878"/>
      <point x="295" y="1063" type="curve" smooth="yes"/>
      <point x="295" y="1237"/>
      <point x="418" y="1380"/>
      <point x="635" y="1380" type="curve" smooth="yes"/>
      <point x="851" y="1380"/>
      <point x="952" y="1241"/>
      <point x="952" y="1069" type="curve" smooth="yes"/>
      <point x="952" y="898"/>
      <point x="860" y="756"/>
    </contour>
  </outline>
</glyph>
<glyph name="greater" format="1">
  <advance width="1017"/>
  <unicode hex="003E"/>
  <outline>
    <contour>
      <point x="97" y="75" type="line"/>
      <point x="927" y="496" type="line"/>
      <point x="927" y="669" type="line"/>
      <point x="97" y="1086" type="line"/>
      <point x="97" y="880" type="line"/>
      <point x="767" y="576" type="line"/>
      <point x="97" y="288" type="line"/>
    </contour>
  </outline>
</glyph>
<glyph name="at" format="1">
  <advance width="1880"/>
  <unicode hex="0040"/>
  <outline>
    <contour>
      <point x="1262" y="163" type="line"/>
      <point x="1173" y="125"/>
      <point x="1077" y="107"/>
      <point x="981" y="107" type="curve" smooth="yes"/>
      <point x="657" y="107"/>
      <point x="329" y="326"/>
      <point x="329" y="760" type="curve" smooth="yes"/>
      <point x="329" y="1196"/>
      <point x="657" y="1412"/>
      <point x="980" y="1412" type="curve" smooth="yes"/>
      <point x="1305" y="1412"/>
      <point x="1635" y="1236"/>
      <point x="1635" y="803" type="curve" smooth="yes"/>
      <point x="1635" y="533"/>
      <point x="1517" y="456"/>
      <point x="1446" y="456" type="curve" smooth="yes"/>
      <point x="1349" y="456"/>
      <point x="1297" y="507"/>
      <point x="1297" y="632" type="curve" smooth="yes"/>
      <point x="1297" y="1205" type="line"/>
      <point x="1257" y="1208"/>
      <point x="1219" y="1210"/>
      <point x="1183" y="1210" type="curve" smooth="yes"/>
      <point x="673" y="1210"/>
      <point x="545" y="894"/>
      <point x="545" y="678" type="curve" smooth="yes"/>
      <point x="545" y="480"/>
      <point x="723" y="334"/>
      <point x="888" y="334" type="curve" smooth="yes"/>
      <point x="1034" y="334"/>
      <point x="1134" y="409"/>
      <point x="1165" y="505" type="curve"/>
      <point x="1242" y="332"/>
      <point x="1438" y="329"/>
      <point x="1440" y="329" type="curve" smooth="yes"/>
      <point x="1573" y="329"/>
      <point x="1787" y="474"/>
      <point x="1787" y="803" type="curve" smooth="yes"/>
      <point x="1787" y="1321"/>
      <point x="1382" y="1535"/>
      <point x="983" y="1535" type="curve" smooth="yes"/>
      <point x="583" y="1535"/>
      <point x="177" y="1278"/>
      <point x="177" y="760" type="curve" smooth="yes"/>
      <point x="177" y="241"/>
      <point x="580" y="-19"/>
      <point x="979" y="-19" type="curve" smooth="yes"/>
      <point x="1097" y="-19"/>
      <point x="1217" y="4"/>
      <point x="1327" y="50" type="curve"/>
    </contour>
    <contour>
      <point x="910" y="461" type="curve"/>
      <point x="800" y="461"/>
      <point x="715" y="526"/>
      <point x="715" y="686" type="curve" smooth="yes"/>
      <point x="715" y="948"/>
      <point x="925" y="1088"/>
      <point x="1061" y="1088" type="curve"/>
      <point x="1131" y="1088" type="line"/>
      <point x="1131" y="598" type="line"/>
      <point x="1084" y="542"/>
      <point x="997" y="461"/>
    </contour>
  </outline>
</glyph>
<glyph name="C" format="1">
  <advance width="1589"/>
  <unicode hex="0043"/>
  <outline>
    <contour>
      <point x="937" y="-19" type="curve" smooth="yes"/>
      <point x="1098" y="-19"/>
      <point x="1258" y="21"/>
      <point x="1441" y="115" type="curve"/>
      <point x="1441" y="323" type="line"/>
      <point x="1299" y="215"/>
      <point x="1116" y="159"/>
      <point x="949" y="159" type="curve" smooth="yes"/>
      <point x="629" y="159"/>
      <point x="317" y="354"/>
      <point x="317" y="756" type="curve" smooth="yes"/>
      <point x="317" y="1127"/>
      <point x="625" y="1358"/>
      <point x="955" y="1358" type="curve" smooth="yes"/>
      <point x="1102" y="1358"/>
      <point x="1269" y="1310"/>
      <point x="1441" y="1224" type="curve"/>
      <point x="1441" y="1433" type="line"/>
      <point x="1282" y="1498"/>
      <point x="1105" y="1536"/>
      <point x="953" y="1536" type="curve" smooth="yes"/>
      <point x="498" y="1536"/>
      <point x="109" y="1239"/>
      <point x="109" y="759" type="curve" smooth="yes"/>
      <point x="109" y="327"/>
      <point x="446" y="-19"/>
    </contour>
  </outline>
</glyph>
<glyph name="F" format="1">
  <advance width="1047"/>
  <unicode hex="0046"/>
  <outline>
    <contour>
      <point x="173" y="0" type="line"/>
      <point x="371" y="0" type="line"/>
      <point x="371" y="673" type="line"/>
      <point x="1017" y="673" type="line"/>
      <point x="1017" y="847" type="line"/>
      <point x="371" y="847" type="line"/>
      <point x="371" y="1339" type="line"/>
      <point x="1037" y="1339" type="line"/>
      <point x="1037" y="1516" type="line"/>
      <point x="173" y="1516" type="line"/>
    </contour>
  </outline>
</glyph>
<glyph name="H" format="1">
  <advance width="1651"/>
  <unicode hex="0048"/>
  <outline>
    <contour>
      <point x="187" y="0" type="line"/>
      <point x="387" y="0" type="line"/>
      <point x="387" y="687" type="line"/>
      <point x="1264" y="687" type="line"/>
      <point x="1264" y="0" type="line"/>
      <point x="1464" y="0" type="line"/>
      <point x="1464" y="1516" type="line"/>
      <point x="1264" y="1516" type="line"/>
      <point x="1264" y="854" type="line"/>
      <point x="387" y="854" type="line"/>
      <point x="387" y="1516" type="line"/>
      <point x="187" y="1516" type="line"/>
    </contour>
  </outline>
</glyph>
<glyph name="J" format="1">
  <advance width="743"/>
  <unicode hex="004A"/>
  <outline>
    <contour>
      <point x="46" y="-394" type="line"/>
      <point x="378" y="-393"/>
      <point x="519" y="-246"/>
      <point x="519" y="106" type="curve" smooth="yes"/>
      <point x="519" y="1516" type="line"/>
      <point x="321" y="1516" type="line"/>
      <point x="321" y="83" type="line" smooth="yes"/>
      <point x="321" y="-117"/>
      <point x="287" y="-240"/>
      <point x="46" y="-240" type="curve"/>
    </contour>
  </outline>
</glyph>
<glyph name="K" format="1">
  <advance width="1452"/>
  <unicode hex="004B"/>
  <outline>
    <contour>
      <point x="174" y="0" type="line"/>
      <point x="373" y="0" type="line"/>
      <point x="373" y="742" type="line"/>
      <point x="1079" y="0" type="line"/>
      <point x="1348" y="0" type="line"/>
      <point x="1348" y="8" type="line"/>
      <point x="608" y="789" type="line"/>
      <point x="1252" y="1506" type="line"/>
      <point x="1252" y="1516" type="line"/>
      <point x="1009" y="1516" type="line"/>
      <point x="373" y="824" type="line"/>
      <point x="373" y="1516" type="line"/>
      <point x="174" y="1516" type="line"/>
    </contour>
  </outline>
</glyph>
<glyph name="M" format="1">
  <advance width="1781"/>
  <unicode hex="004D"/>
  <outline>
    <contour>
      <point x="187" y="0" type="line"/>
      <point x="385" y="0" type="line"/>
      <point x="385" y="1204" type="line"/>
      <point x="876" y="605" type="line"/>
      <point x="910" y="605" type="line"/>
      <point x="1396" y="1189" type="line"/>
      <point x="1396" y="0" type="line"/>
      <point x="1594" y="0" type="line"/>
      <point x="1594" y="1516" type="line"/>
      <point x="1410" y="1516" type="line"/>
      <point x="893" y="876" type="line"/>
      <point x="369" y="1516" type="line"/>
      <point x="187" y="1516" type="line"/>
    </contour>
  </outline>
</glyph>
<glyph name="P" format="1">
  <advance width="1101"/>
  <unicode hex="0050"/>
  <outline>
    <contour>
      <point x="175" y="0" type="line"/>
      <point x="373" y="0" type="line"/>
      <point x="373" y="690" type="line"/>
      <point x="479" y="690" type="line" smooth="yes"/>
      <point x="879" y="690"/>
      <point x="1039" y="868"/>
      <point x="1039" y="1118" type="curve" smooth="yes"/>
      <point x="1039" y="1401"/>
      <point x="817" y="1516"/>
      <point x="529" y="1516" type="curve" smooth="yes"/>
      <point x="175" y="1516" type="line"/>
    </contour>
    <contour>
      <point x="373" y="856" type="line"/>
      <point x="373" y="1352" type="line"/>
      <point x="508" y="1352" type="line" smooth="yes"/>
      <point x="782" y="1352"/>
      <point x="830" y="1231"/>
      <point x="830" y="1107" type="curve" smooth="yes"/>
      <point x="830" y="879"/>
      <point x="627" y="856"/>
      <point x="384" y="856" type="curve" smooth="yes"/>
    </contour>
  </outline>
</glyph>
<glyph name="Q" format="1">
  <advance width="1822"/>
  <unicode hex="0051"/>
  <outline>
    <contour>
      <point x="1264" y="-435" type="curve"/>
      <point x="1459" y="-325" type="line"/>
      <point x="1459" y="-298" type="line"/>
      <point x="1459" y="-297"/>
      <point x="1450" y="-298"/>
      <point x="1449" y="-298" type="curve" smooth="yes"/>
      <point x="1205" y="-298"/>
      <point x="1052" y="-11"/>
      <point x="1052" y="-11" type="curve"/>
      <point x="1428" y="54"/>
      <point x="1711" y="372"/>
      <point x="1711" y="753" type="curve" smooth="yes"/>
      <point x="1711" y="1181"/>
      <point x="1349" y="1529"/>
      <point x="909" y="1529" type="curve" smooth="yes"/>
      <point x="469" y="1529"/>
      <point x="109" y="1181"/>
      <point x="109" y="753" type="curve" smooth="yes"/>
      <point x="109" y="340"/>
      <point x="441" y="3"/>
      <point x="856" y="-24" type="curve"/>
      <point x="856" y="-24"/>
      <point x="1000" y="-318"/>
    </contour>
    <contour>
      <point x="909" y="161" type="curve" smooth="yes"/>
      <point x="583" y="161"/>
      <point x="317" y="428"/>
      <point x="317" y="755" type="curve" smooth="yes"/>
      <point x="317" y="1083"/>
      <point x="583" y="1351"/>
      <point x="909" y="1351" type="curve" smooth="yes"/>
      <point x="1236" y="1351"/>
      <point x="1503" y="1083"/>
      <point x="1503" y="755" type="curve" smooth="yes"/>
      <point x="1503" y="428"/>
      <point x="1236" y="161"/>
    </contour>
  </outline>
</glyph>
<glyph name="T" format="1">
  <advance width="1378"/>
  <unicode hex="0054"/>
  <outline>
    <contour>
      <point x="589" y="0" type="line"/>
      <point x="788" y="0" type="line"/>
      <point x="788" y="1340" type="line"/>
      <point x="1329" y="1340" type="line"/>
      <point x="1329" y="1516" type="line"/>
      <point x="50" y="1516" type="line"/>
      <point x="50" y="1340" type="line"/>
      <point x="589" y="1340" type="line"/>
    </contour>
  </outline>
</glyph>
<glyph name="U" format="1">
  <advance width="1581"/>
  <unicode hex="0055"/>
  <outline>
    <contour>
      <point x="792" y="-18" type="curve" smooth="yes"/>
      <point x="1108" y="-18"/>
      <point x="1427" y="182"/>
      <point x="1427" y="588" type="curve" smooth="yes"/>
      <point x="1427" y="1515" type="line"/>
      <point x="1228" y="1515" type="line"/>
      <point x="1228" y="592" type="line" smooth="yes"/>
      <point x="1228" y="301"/>
      <point x="1009" y="155"/>
      <point x="789" y="155" type="curve" smooth="yes"/>
      <point x="569" y="155"/>
      <point x="353" y="301"/>
      <point x="353" y="592" type="curve" smooth="yes"/>
      <point x="353" y="1515" type="line"/>
      <point x="154" y="1515" type="line"/>
      <point x="154" y="587" type="line" smooth="yes"/>
      <point x="154" y="182"/>
      <point x="475" y="-18"/>
    </contour>
  </outline>
</glyph>
<glyph name="W" format="1">
  <advance width="2443"/>
  <unicode hex="0057"/>
  <outline>
    <contour>
      <point x="1700" y="-25" type="line"/>
      <point x="1757" y="-25" type="line"/>
      <point x="2337" y="1516" type="line"/>
      <point x="2128" y="1516" type="line"/>
      <point x="1728" y="397" type="line"/>
      <point x="1321" y="1516" type="line"/>
      <point x="1126" y="1516" type="line"/>
      <point x="704" y="405" type="line"/>
      <point x="324" y="1516" type="line"/>
      <point x="105" y="1516" type="line"/>
      <point x="682" y="-22" type="line"/>
      <point x="732" y="-22" type="line"/>
      <point x="1220" y="1234" type="line"/>
    </contour>
  </outline>
</glyph>
<glyph name="Y" format="1">
  <advance width="1415"/>
  <unicode hex="0059"/>
  <outline>
    <contour>
      <point x="601" y="0" type="line"/>
      <point x="817" y="0" type="line"/>
      <point x="817" y="813" type="line"/>
      <point x="1358" y="1516" type="line"/>
      <point x="1129" y="1516" type="line"/>
      <point x="706" y="980" type="line"/>
      <point x="301" y="1516" type="line"/>
      <point x="56" y="1516" type="line"/>
      <point x="601" y="816" type="line"/>
    </contour>
  </outline>
</glyph>
<glyph name="bracketleft" format="1">
  <advance width="737"/>
  <unicode hex="005B"/>
  <outline>
    <contour>
      <point x="124" y="-18" type="line"/>
      <point x="723" y="-18" type="line"/>
      <point x="723" y="167" type="line"/>
      <point x="345" y="167" type="line"/>
      <point x="345" y="1382" type="line"/>
      <point x="723" y="1382" type="line"/>
      <point x="723" y="1567" type="line"/>
      <point x="124" y="1567" type="line"/>
    </contour>
  </outline>
</glyph>
<glyph name="grave" format="1">
  <advance width="382"/>
  <unicode hex="0060"/>
  <outline>
    <contour>
      <point x="184" y="120" type="move" name="_top"/>
    </contour>
    <contour>
      <point x="327" y="130" type="curve" smooth="yes"/>
      <point x="331" y="130"/>
      <point x="335" y="136"/>
      <point x="335" y="144" type="curve" smooth="yes"/>
      <point x="335" y="148"/>
      <point x="335" y="156"/>
      <point x="332" y="163" type="curve"/>
      <point x="244" y="540" type="line"/>
      <point x="223" y="603"/>
      <point x="183" y="626"/>
      <point x="145" y="626" type="curve" smooth="yes"/>
      <point x="97" y="626"/>
      <point x="50" y="590"/>
      <point x="50" y="537" type="curve" smooth="yes"/>
      <point x="50" y="512"/>
      <point x="58" y="486"/>
      <point x="82" y="457" type="curve"/>
      <point x="300" y="148" type="line" smooth="yes"/>
      <point x="309" y="136"/>
      <point x="319" y="130"/>
    </contour>
  </outline>
</glyph>
<glyph name="a" format="1">
  <advance width="1065"/>
  <unicode hex="0061"/>
  <outline>
    <contour>
      <point x="418" y="-21" type="curve" smooth="yes"/>
      <point x="502" y="-21"/>
      <point x="635" y="28"/>
      <point x="703" y="143" type="curve"/>
      <point x="741" y="34"/>
      <point x="838" y="3"/>
      <point x="913" y="-14" type="curve"/>
      <point x="995" y="128" type="line"/>
      <point x="915" y="144"/>
      <point x="859" y="177"/>
      <point x="859" y="285" type="curve" smooth="yes"/>
      <point x="859" y="693" type="line" smooth="yes"/>
      <point x="859" y="924"/>
      <point x="667" y="1006"/>
      <point x="495" y="1006" type="curve" smooth="yes"/>
      <point x="349" y="1006"/>
      <point x="199" y="919"/>
      <point x="158" y="878" type="curve"/>
      <point x="211" y="725" type="line"/>
      <point x="283" y="792"/>
      <point x="383" y="841"/>
      <point x="500" y="841" type="curve" smooth="yes"/>
      <point x="615" y="841"/>
      <point x="675" y="755"/>
      <point x="675" y="625" type="curve" smooth="yes"/>
      <point x="675" y="612"/>
      <point x="675" y="573"/>
      <point x="675" y="568" type="curve"/>
      <point x="505" y="525" type="line" smooth="yes"/>
      <point x="240" y="458"/>
      <point x="140" y="339"/>
      <point x="140" y="230" type="curve" smooth="yes"/>
      <point x="140" y="45"/>
      <point x="265" y="-21"/>
    </contour>
    <contour>
      <point x="449" y="116" type="curve"/>
      <point x="386" y="116"/>
      <point x="335" y="150"/>
      <point x="335" y="246" type="curve" smooth="yes"/>
      <point x="335" y="379"/>
      <point x="539" y="419"/>
      <point x="669" y="460" type="curve"/>
      <point x="674" y="461" type="line"/>
      <point x="674" y="225" type="line"/>
      <point x="630" y="172"/>
      <point x="529" y="116"/>
    </contour>
    <contour>
      <point x="525" y="1046" type="move" name="top"/>
    </contour>
  </outline>
</glyph>
<glyph name="b" format="1">
  <advance width="1187"/>
  <unicode hex="0062"/>
  <outline>
    <contour>
      <point x="496" y="-18" type="curve" smooth="yes"/>
      <point x="867" y="-18"/>
      <point x="1078" y="212"/>
      <point x="1078" y="545" type="curve" smooth="yes"/>
      <point x="1078" y="843"/>
      <point x="877" y="1017"/>
      <point x="645" y="1017" type="curve" smooth="yes"/>
      <point x="551" y="1017"/>
      <point x="451" y="990"/>
      <point x="357" y="927" type="curve"/>
      <point x="357" y="1490" type="line"/>
      <point x="171" y="1490" type="line"/>
      <point x="171" y="49" type="line"/>
      <point x="171" y="49"/>
      <point x="313" y="-18"/>
    </contour>
    <contour>
      <point x="502" y="115" type="curve" smooth="yes"/>
      <point x="456" y="115"/>
      <point x="405" y="115"/>
      <point x="357" y="136" type="curve"/>
      <point x="357" y="767" type="line"/>
      <point x="357" y="767"/>
      <point x="459" y="869"/>
      <point x="637" y="869" type="curve" smooth="yes"/>
      <point x="793" y="869"/>
      <point x="884" y="732"/>
      <point x="884" y="532" type="curve" smooth="yes"/>
      <point x="884" y="299"/>
      <point x="737" y="115"/>
    </contour>
  </outline>
</glyph>
<glyph name="i" format="1">
  <advance width="490"/>
  <unicode hex="0069"/>
  <outline>
    <contour>
      <point x="155" y="0" type="line"/>
      <point x="339" y="0" type="line"/>
      <point x="339" y="998" type="line"/>
      <point x="155" y="998" type="line"/>
    </contour>
    <contour>
      <point x="248" y="1157" type="curve" smooth="yes"/>
      <point x="333" y="1157"/>
      <point x="376" y="1215"/>
      <point x="376" y="1277" type="curve" smooth="yes"/>
      <point x="376" y="1337"/>
      <point x="333" y="1398"/>
      <point x="248" y="1398" type="curve" smooth="yes"/>
      <point x="162" y="1398"/>
      <point x="118" y="1337"/>
      <point x="118" y="1277" type="curve" smooth="yes"/>
      <point x="118" y="1215"/>
      <point x="162" y="1157"/>
    </contour>
  </outline>
</glyph>
<glyph name="o" format="1">
  <advance width="1327"/>
  <unicode hex="006F"/>
  <outline>
    <contour>
      <point x="662" y="133" type="curve" smooth="yes"/>
      <point x="453" y="133"/>
      <point x="311" y="298"/>
      <point x="311" y="498" type="curve" smooth="yes"/>
      <point x="311" y="701"/>
      <point x="453" y="863"/>
      <point x="662" y="863" type="curve" smooth="yes"/>
      <point x="872" y="863"/>
      <point x="1016" y="701"/>
      <point x="1016" y="498" type="curve" smooth="yes"/>
      <point x="1016" y="298"/>
      <point x="872" y="133"/>
    </contour>
    <contour>
      <point x="662" y="-19" type="curve" smooth="yes"/>
      <point x="956" y="-19"/>
      <point x="1201" y="186"/>
      <point x="1201" y="500" type="curve" smooth="yes"/>
      <point x="1201" y="812"/>
      <point x="956" y="1017"/>
      <point x="662" y="1017" type="curve" smooth="yes"/>
      <point x="369" y="1017"/>
      <point x="125" y="812"/>
      <point x="125" y="500" type="curve" smooth="yes"/>
      <point x="125" y="186"/>
      <point x="369" y="-19"/>
    </contour>
  </outline>
</glyph>
<glyph name="q" format="1">
  <advance width="1197"/>
  <unicode hex="0071"/>
  <outline>
    <contour>
      <point x="842" y="-405" type="line"/>
      <point x="1026" y="-405" type="line"/>
      <point x="1026" y="998" type="line"/>
      <point x="842" y="998" type="line"/>
      <point x="842" y="897" type="line"/>
      <point x="752" y="979"/>
      <point x="658" y="1015"/>
      <point x="569" y="1015" type="curve" smooth="yes"/>
      <point x="332" y="1015"/>
      <point x="119" y="809"/>
      <point x="119" y="518" type="curve" smooth="yes"/>
      <point x="119" y="252"/>
      <point x="304" y="-21"/>
      <point x="644" y="-21" type="curve" smooth="yes"/>
      <point x="766" y="-21"/>
      <point x="842" y="47"/>
      <point x="842" y="47" type="curve"/>
    </contour>
    <contour>
      <point x="658" y="138" type="curve" smooth="yes"/>
      <point x="445" y="138"/>
      <point x="318" y="330"/>
      <point x="318" y="507" type="curve" smooth="yes"/>
      <point x="318" y="724"/>
      <point x="452" y="862"/>
      <point x="612" y="862" type="curve" smooth="yes"/>
      <point x="683" y="862"/>
      <point x="764" y="838"/>
      <point x="842" y="784" type="curve"/>
      <point x="842" y="189" type="line"/>
      <point x="842" y="189"/>
      <point x="783" y="138"/>
    </contour>
  </outline>
</glyph>
<glyph name="r" format="1">
  <advance width="883"/>
  <unicode hex="0072"/>
  <outline>
    <contour>
      <point x="179" y="0" type="line"/>
      <point x="362" y="0" type="line"/>
      <point x="362" y="411" type="line" smooth="yes"/>
      <point x="362" y="737"/>
      <point x="520" y="825"/>
      <point x="603" y="825" type="curve" smooth="yes"/>
      <point x="662" y="825"/>
      <point x="714" y="779"/>
      <point x="746" y="740" type="curve"/>
      <point x="867" y="899" type="line"/>
      <point x="788" y="985"/>
      <point x="701" y="1015"/>
      <point x="649" y="1015" type="curve" smooth="yes"/>
      <point x="500" y="1015"/>
      <point x="400" y="850"/>
      <point x="362" y="729" type="curve"/>
      <point x="362" y="998" type="line"/>
      <point x="179" y="998" type="line"/>
    </contour>
  </outline>
</glyph>
<glyph name="s" format="1">
  <advance width="916"/>
  <unicode hex="0073"/>
  <outline>
    <contour>
      <point x="473" y="-19" type="curve" smooth="yes"/>
      <point x="672" y="-19"/>
      <point x="790" y="104"/>
      <point x="790" y="246" type="curve" smooth="yes"/>
      <point x="790" y="331"/>
      <point x="749" y="421"/>
      <point x="621" y="501" type="curve" smooth="yes"/>
      <point x="431" y="619" type="line" smooth="yes"/>
      <point x="338" y="677"/>
      <point x="322" y="718"/>
      <point x="322" y="751" type="curve" smooth="yes"/>
      <point x="322" y="830"/>
      <point x="381" y="872"/>
      <point x="485" y="872" type="curve" smooth="yes"/>
      <point x="574" y="872"/>
      <point x="662" y="833"/>
      <point x="717" y="803" type="curve"/>
      <point x="756" y="946" type="line"/>
      <point x="684" y="988"/>
      <point x="566" y="1017"/>
      <point x="474" y="1017" type="curve" smooth="yes"/>
      <point x="252" y="1017"/>
      <point x="135" y="891"/>
      <point x="135" y="755" type="curve" smooth="yes"/>
      <point x="135" y="661"/>
      <point x="192" y="571"/>
      <point x="312" y="497" type="curve" smooth="yes"/>
      <point x="516" y="371" type="line" smooth="yes"/>
      <point x="599" y="320"/>
      <point x="613" y="282"/>
      <point x="613" y="243" type="curve" smooth="yes"/>
      <point x="613" y="169"/>
      <point x="548" y="135"/>
      <point x="464" y="135" type="curve" smooth="yes"/>
      <point x="355" y="135"/>
      <point x="231" y="181"/>
      <point x="152" y="235" type="curve"/>
      <point x="133" y="88" type="line"/>
      <point x="203" y="20"/>
      <point x="345" y="-19"/>
    </contour>
  </outline>
</glyph>
<glyph name="t" format="1">
  <advance width="841"/>
  <unicode hex="0074"/>
  <outline>
    <contour>
      <point x="520" y="-21" type="curve" smooth="yes"/>
      <point x="611" y="-21"/>
      <point x="705" y="5"/>
      <point x="780" y="62" type="curve"/>
      <point x="780" y="220" type="line"/>
      <point x="709" y="172"/>
      <point x="618" y="129"/>
      <point x="545" y="129" type="curve" smooth="yes"/>
      <point x="469" y="129"/>
      <point x="409" y="163"/>
      <point x="409" y="264" type="curve" smooth="yes"/>
      <point x="409" y="859" type="line"/>
      <point x="728" y="859" type="line"/>
      <point x="728" y="996" type="line"/>
      <point x="409" y="996" type="line"/>
      <point x="409" y="1238" type="line"/>
      <point x="388" y="1238" type="line"/>
      <point x="71" y="895" type="line"/>
      <point x="65" y="888"/>
      <point x="61" y="880"/>
      <point x="61" y="873" type="curve" smooth="yes"/>
      <point x="61" y="865"/>
      <point x="74" y="859"/>
      <point x="89" y="859" type="curve" smooth="yes"/>
      <point x="224" y="859" type="line"/>
      <point x="224" y="234" type="line" smooth="yes"/>
      <point x="224" y="72"/>
      <point x="362" y="-21"/>
    </contour>
  </outline>
</glyph>
<glyph name="w" format="1">
  <advance width="1550"/>
  <unicode hex="0077"/>
  <outline>
    <contour>
      <point x="440" y="0" type="line"/>
      <point x="485" y="0" type="line"/>
      <point x="779" y="761" type="line"/>
      <point x="1071" y="0" type="line"/>
      <point x="1109" y="0" type="line"/>
      <point x="1445" y="998" type="line"/>
      <point x="1253" y="998" type="line"/>
      <point x="1081" y="392" type="line"/>
      <point x="859" y="998" type="line"/>
      <point x="688" y="998" type="line"/>
      <point x="474" y="398" type="line"/>
      <point x="313" y="998" type="line"/>
      <point x="105" y="998" type="line"/>
    </contour>
  </outline>
</glyph>
<glyph name="y" format="1">
  <advance width="1122"/>
  <unicode hex="0079"/>
  <outline>
    <contour>
      <point x="267" y="-268" type="line"/>
      <point x="471" y="-268" type="line"/>
      <point x="1085" y="998" type="line"/>
      <point x="885" y="998" type="line"/>
      <point x="611" y="406" type="line"/>
      <point x="329" y="998" type="line"/>
      <point x="103" y="998" type="line"/>
      <point x="506" y="246" type="line"/>
    </contour>
  </outline>
</glyph>
<glyph name="bar" format="1">
  <advance width="445"/>
  <unicode hex="007C"/>
  <outline>
    <contour>
      <point x="123" y="-129" type="line"/>
      <point x="322" y="-129" type="line"/>
      <point x="322" y="1645" type="line"/>
      <point x="123" y="1645" type="line"/>
    </contour>
  </outline>
</glyph>
<glyph name="braceright" format="1">
  <advance width="767"/>
  <unicode hex="007D"/>
  <outline>
    <contour>
      <point x="94" y="-266" type="line"/>
      <point x="288" y="-266"/>
      <point x="480" y="-177"/>
      <point x="480" y="47" type="curve" smooth="yes"/>
      <point x="480" y="442" type="line" smooth="yes"/>
      <point x="480" y="587"/>
      <point x="557" y="643"/>
      <point x="656" y="652" type="curve"/>
      <point x="666" y="652"/>
      <point x="673" y="653"/>
      <point x="683" y="653" type="curve"/>
      <point x="683" y="818" type="line"/>
      <point x="673" y="818"/>
      <point x="666" y="819"/>
      <point x="656" y="819" type="curve"/>
      <point x="557" y="828"/>
      <point x="480" y="885"/>
      <point x="480" y="1031" type="curve" smooth="yes"/>
      <point x="480" y="1425" type="line"/>
      <point x="481" y="1651"/>
      <point x="288" y="1737"/>
      <point x="94" y="1737" type="curve"/>
      <point x="94" y="1570" type="line"/>
      <point x="205" y="1570"/>
      <point x="297" y="1515"/>
      <point x="297" y="1357" type="curve" smooth="yes"/>
      <point x="297" y="964" type="line" smooth="yes"/>
      <point x="297" y="860"/>
      <point x="367" y="787"/>
      <point x="476" y="736" type="curve"/>
      <point x="367" y="687"/>
      <point x="297" y="612"/>
      <point x="297" y="508" type="curve" smooth="yes"/>
      <point x="297" y="115" type="line" smooth="yes"/>
      <point x="297" y="-43"/>
      <point x="205" y="-99"/>
      <point x="94" y="-99" type="curve"/>
    </contour>
  </outline>
</glyph>
<glyph name="registered" format="1">
  <advance width="1880"/>
  <unicode hex="00AE"/>
  <outline>
    <contour>
      <point x="687" y="258" type="line"/>
      <point x="808" y="258" type="line"/>
      <point x="808" y="686" type="line"/>
      <point x="872" y="686" type="line" smooth="yes"/>
      <point x="884" y="686"/>
      <point x="897" y="687"/>
      <point x="909" y="687" type="curve"/>
      <point x="910" y="687" type="line"/>
      <point x="970" y="543"/>
      <point x="1065" y="348"/>
      <point x="1122" y="258" type="curve"/>
      <point x="1245" y="258" type="line"/>
      <point x="1246" y="289" type="line"/>
      <point x="1170" y="410"/>
      <point x="1088" y="556"/>
      <point x="1029" y="702" type="curve"/>
      <point x="1160" y="742"/>
      <point x="1217" y="832"/>
      <point x="1217" y="947" type="curve"/>
      <point x="1217" y="1123"/>
      <point x="1078" y="1192"/>
      <point x="903" y="1192" type="curve" smooth="yes"/>
      <point x="687" y="1192" type="line"/>
    </contour>
    <contour>
      <point x="807" y="784" type="line"/>
      <point x="807" y="1091" type="line"/>
      <point x="888" y="1091" type="line" smooth="yes"/>
      <point x="1055" y="1091"/>
      <point x="1087" y="1016"/>
      <point x="1087" y="940" type="curve" smooth="yes"/>
      <point x="1087" y="799"/>
      <point x="974" y="784"/>
      <point x="839" y="784" type="curve"/>
    </contour>
    <contour>
      <point x="942" y="118" type="curve" smooth="yes"/>
      <point x="641" y="118"/>
      <point x="335" y="322"/>
      <point x="335" y="726" type="curve" smooth="yes"/>
      <point x="335" y="1132"/>
      <point x="641" y="1333"/>
      <point x="941" y="1333" type="curve" smooth="yes"/>
      <point x="1243" y="1333"/>
      <point x="1550" y="1130"/>
      <point x="1550" y="726" type="curve" smooth="yes"/>
      <point x="1550" y="321"/>
      <point x="1244" y="118"/>
    </contour>
    <contour>
      <point x="940" y="2" type="curve" smooth="yes"/>
      <point x="1313" y="2"/>
      <point x="1692" y="245"/>
      <point x="1692" y="726" type="curve" smooth="yes"/>
      <point x="1692" y="1209"/>
      <point x="1315" y="1448"/>
      <point x="943" y="1448" type="curve" smooth="yes"/>
      <point x="571" y="1448"/>
      <point x="193" y="1209"/>
      <point x="193" y="726" type="curve" smooth="yes"/>
      <point x="193" y="244"/>
      <point x="568" y="2"/>
    </contour>
  </outline>
</glyph>
<glyph name="paragraph" format="1">
  <advance width="1288"/>
  <unicode hex="00B6"/>
  <outline>
    <contour>
      <point x="773" y="0" type="line"/>
      <point x="857" y="0" type="line"/>
      <point x="857" y="1623" type="line"/>
      <point x="969" y="1623" type="line"/>
      <point x="969" y="1695" type="line"/>
      <point x="612" y="1695" type="line" smooth="yes"/>
      <point x="355" y="1695"/>
      <point x="93" y="1657"/>
      <point x="93" y="1352" type="curve" smooth="yes"/>
      <point x="93" y="1115"/>
      <point x="256" y="975"/>
      <point x="511" y="990" type="curve"/>
      <point x="511" y="1" type="line"/>
      <point x="590" y="1" type="line"/>
      <point x="590" y="1623" type="line"/>
      <point x="773" y="1623" type="line"/>
    </contour>
  </outline>
</glyph>
<glyph name="guillemotright" format="1">
  <advance width="796"/>
  <unicode hex="00BB"/>
  <outline>
    <contour>
      <point x="94" y="25" type="line"/>
      <point x="699" y="432" type="line"/>
      <point x="699" y="589" type="line"/>
      <point x="94" y="979" type="line"/>
      <point x="94" y="786" type="line"/>
      <point x="564" y="506" type="line"/>
      <point x="94" y="233" type="line"/>
    </contour>
  </outline>
</glyph>
<glyph name="Agrave" format="1">
  <advance width="1583"/>
  <unicode hex="00C0"/>
  <outline>
    <contour>
      <point x="62" y="0" type="line"/>
      <point x="268" y="0" type="line"/>
      <point x="477" y="488" type="line"/>
      <point x="1103" y="488" type="line"/>
      <point x="1324" y="0" type="line"/>
      <point x="1516" y="0" type="line"/>
      <point x="1520" y="3" type="line"/>
      <point x="847" y="1515" type="line"/>
      <point x="699" y="1515" type="line"/>
    </contour>
    <contour>
      <point x="925" y="1668" type="curve" smooth="yes"/>
      <point x="929" y="1668"/>
      <point x="933" y="1673"/>
      <point x="933" y="1682" type="curve" smooth="yes"/>
      <point x="933" y="1687"/>
      <point x="933" y="1694"/>
      <point x="930" y="1701" type="curve"/>
      <point x="842" y="2078" type="line"/>
      <point x="821" y="2141"/>
      <point x="780" y="2164"/>
      <point x="742" y="2164" type="curve" smooth="yes"/>
      <point x="695" y="2164"/>
      <point x="646" y="2128"/>
      <point x="646" y="2075" type="curve" smooth="yes"/>
      <point x="646" y="2050"/>
      <point x="656" y="2022"/>
      <point x="680" y="1994" type="curve"/>
      <point x="896" y="1687" type="line" smooth="yes"/>
      <point x="906" y="1673"/>
      <point x="916" y="1668"/>
    </contour>
    <contour>
      <point x="552" y="662" type="line"/>
      <point x="778" y="1266" type="line"/>
      <point x="1024" y="662" type="line"/>
    </contour>
  </outline>
</glyph>
<glyph name="Acircumflex" format="1">
  <advance width="1583"/>
  <unicode hex="00C2"/>
  <outline>
    <contour>
      <point x="481" y="1669" type="curve"/>
      <point x="482" y="1669"/>
      <point x="482" y="1669"/>
      <point x="485" y="1670" type="curve"/>
      <point x="791" y="1876" type="line"/>
      <point x="1098" y="1670" type="line"/>
      <point x="1101" y="1669"/>
      <point x="1102" y="1669"/>
      <point x="1103" y="1669" type="curve" smooth="yes"/>
      <point x="1104" y="1669"/>
      <point x="1105" y="1670"/>
      <point x="1105" y="1671" type="curve"/>
      <point x="1105" y="1674" type="line"/>
      <point x="831" y="2081" type="line"/>
      <point x="824" y="2089"/>
      <point x="806" y="2096"/>
      <point x="791" y="2096" type="curve" smooth="yes"/>
      <point x="776" y="2096"/>
      <point x="761" y="2089"/>
      <point x="753" y="2081" type="curve"/>
      <point x="478" y="1674" type="line"/>
      <point x="477" y="1674"/>
      <point x="477" y="1672"/>
      <point x="477" y="1671" type="curve" smooth="yes"/>
      <point x="477" y="1670"/>
      <point x="479" y="1669"/>
    </contour>
    <contour>
      <point x="62" y="0" type="line"/>
      <point x="268" y="0" type="line"/>
      <point x="477" y="487" type="line"/>
      <point x="1103" y="487" type="line"/>
      <point x="1324" y="0" type="line"/>
      <point x="1516" y="0" type="line"/>
      <point x="1520" y="3" type="line"/>
      <point x="847" y="1516" type="line"/>
      <point x="699" y="1516" type="line"/>
    </contour>
    <contour>
      <point x="552" y="662" type="line"/>
      <point x="778" y="1265" type="line"/>
      <point x="1024" y="662" type="line"/>
    </contour>
  </outline>
</glyph>
<glyph name="Ccedilla" format="1">
  <advance width="1567"/>
  <unicode hex="00C7"/>
  <outline>
    <contour>
      <point x="754" y="-445" type="curve" smooth="yes"/>
      <point x="863" y="-445"/>
      <point x="968" y="-405"/>
      <point x="968" y="-292" type="curve" smooth="yes"/>
      <point x="968" y="-200"/>
      <point x="888" y="-132"/>
      <point x="766" y="-132" type="curve"/>
      <point x="807" y="-9" type="line"/>
      <point x="849" y="-15"/>
      <point x="893" y="-18"/>
      <point x="938" y="-18" type="curve" smooth="yes"/>
      <point x="1099" y="-18"/>
      <point x="1259" y="21"/>
      <point x="1442" y="116" type="curve"/>
      <point x="1442" y="326" type="line"/>
      <point x="1300" y="218"/>
      <point x="1117" y="160"/>
      <point x="950" y="160" type="curve" smooth="yes"/>
      <point x="630" y="160"/>
      <point x="337" y="354"/>
      <point x="337" y="754" type="curve" smooth="yes"/>
      <point x="337" y="1126"/>
      <point x="626" y="1351"/>
      <point x="956" y="1351" type="curve" smooth="yes"/>
      <point x="1103" y="1351"/>
      <point x="1270" y="1303"/>
      <point x="1442" y="1215" type="curve"/>
      <point x="1442" y="1432" type="line"/>
      <point x="1283" y="1499"/>
      <point x="1106" y="1537"/>
      <point x="954" y="1537" type="curve" smooth="yes"/>
      <point x="499" y="1537"/>
      <point x="110" y="1239"/>
      <point x="110" y="760" type="curve" smooth="yes"/>
      <point x="110" y="379"/>
      <point x="372" y="65"/>
      <point x="771" y="-4" type="curve"/>
      <point x="731" y="-4" type="line"/>
      <point x="641" y="-260" type="line"/>
      <point x="668" y="-260"/>
      <point x="832" y="-252"/>
      <point x="832" y="-327" type="curve" smooth="yes"/>
      <point x="832" y="-382"/>
      <point x="775" y="-397"/>
      <point x="715" y="-397" type="curve" smooth="yes"/>
      <point x="651" y="-397"/>
      <point x="584" y="-379"/>
      <point x="556" y="-379" type="curve" smooth="yes"/>
      <point x="548" y="-379"/>
      <point x="542" y="-382"/>
      <point x="542" y="-385" type="curve" smooth="yes"/>
      <point x="542" y="-388"/>
      <point x="552" y="-396"/>
      <point x="555" y="-399" type="curve"/>
      <point x="599" y="-425"/>
      <point x="677" y="-445"/>
    </contour>
  </outline>
</glyph>
<glyph name="Egrave" format="1">
  <advance width="1099"/>
  <unicode hex="00C8"/>
  <outline>
    <contour>
      <point x="133" y="0" type="line"/>
      <point x="1009" y="0" type="line"/>
      <point x="1009" y="176" type="line"/>
      <point x="331" y="176" type="line"/>
      <point x="331" y="682" type="line"/>
      <point x="981" y="682" type="line"/>
      <point x="981" y="856" type="line"/>
      <point x="331" y="856" type="line"/>
      <point x="331" y="1339" type="line"/>
      <point x="995" y="1339" type="line"/>
      <point x="995" y="1515" type="line"/>
      <point x="133" y="1515" type="line"/>
    </contour>
    <contour>
      <point x="698" y="1668" type="curve" smooth="yes"/>
      <point x="704" y="1668"/>
      <point x="707" y="1673"/>
      <point x="707" y="1682" type="curve" smooth="yes"/>
      <point x="707" y="1687"/>
      <point x="707" y="1694"/>
      <point x="705" y="1701" type="curve" smooth="yes"/>
      <point x="616" y="2078" type="line"/>
      <point x="596" y="2141"/>
      <point x="556" y="2164"/>
      <point x="516" y="2164" type="curve" smooth="yes"/>
      <point x="467" y="2164"/>
      <point x="421" y="2128"/>
      <point x="421" y="2075" type="curve" smooth="yes"/>
      <point x="421" y="2050"/>
      <point x="431" y="2022"/>
      <point x="453" y="1994" type="curve"/>
      <point x="671" y="1687" type="line" smooth="yes"/>
      <point x="680" y="1673"/>
      <point x="692" y="1668"/>
    </contour>
  </outline>
</glyph>
<glyph name="Edieresis" format="1">
  <advance width="1099"/>
  <unicode hex="00CB"/>
  <outline>
    <contour>
      <point x="133" y="0" type="line"/>
      <point x="1009" y="0" type="line"/>
      <point x="1009" y="175" type="line"/>
      <point x="331" y="175" type="line"/>
      <point x="331" y="682" type="line"/>
      <point x="981" y="682" type="line"/>
      <point x="981" y="857" type="line"/>
      <point x="331" y="857" type="line"/>
      <point x="331" y="1338" type="line"/>
      <point x="995" y="1338" type="line"/>
      <point x="995" y="1516" type="line"/>
      <point x="133" y="1516" type="line"/>
    </contour>
    <contour>
      <point x="368" y="1667" type="curve" smooth="yes"/>
      <point x="430" y="1667"/>
      <point x="492" y="1705"/>
      <point x="492" y="1781" type="curve" smooth="yes"/>
      <point x="492" y="1859"/>
      <point x="430" y="1901"/>
      <point x="368" y="1901" type="curve" smooth="yes"/>
      <point x="308" y="1901"/>
      <point x="247" y="1859"/>
      <point x="247" y="1781" type="curve" smooth="yes"/>
      <point x="247" y="1706"/>
      <point x="308" y="1667"/>
    </contour>
    <contour>
      <point x="760" y="1667" type="curve" smooth="yes"/>
      <point x="820" y="1667"/>
      <point x="881" y="1705"/>
      <point x="881" y="1781" type="curve" smooth="yes"/>
      <point x="881" y="1859"/>
      <point x="820" y="1901"/>
      <point x="760" y="1901" type="curve" smooth="yes"/>
      <point x="699" y="1901"/>
      <point x="637" y="1859"/>
      <point x="637" y="1781" type="curve" smooth="yes"/>
      <point x="637" y="1706"/>
      <point x="699" y="1667"/>
    </contour>
  </outline>
</glyph>
<glyph name="Igrave" format="1">
  <advance width="445"/>
  <unicode hex="00CC"/>
  <outline>
    <contour>
      <point x="357" y="1668" type="curve" smooth="yes"/>
      <point x="362" y="1668"/>
      <point x="365" y="1673"/>
      <point x="365" y="1682" type="curve" smooth="yes"/>
      <point x="365" y="1687"/>
      <point x="365" y="1694"/>
      <point x="363" y="1701" type="curve" smooth="yes"/>
      <point x="274" y="2078" type="line"/>
      <point x="254" y="2141"/>
      <point x="214" y="2164"/>
      <point x="175" y="2164" type="curve" smooth="yes"/>
      <point x="127" y="2164"/>
      <point x="79" y="2128"/>
      <point x="79" y="2075" type="curve" smooth="yes"/>
      <point x="79" y="2050"/>
      <point x="89" y="2022"/>
      <point x="112" y="1994" type="curve"/>
      <point x="330" y="1687" type="line" smooth="yes"/>
      <point x="339" y="1673"/>
      <point x="349" y="1668"/>
    </contour>
    <contour>
      <point x="123" y="0" type="line"/>
      <point x="324" y="0" type="line"/>
      <point x="324" y="1515" type="line"/>
      <point x="123" y="1515" type="line"/>
    </contour>
  </outline>
</glyph>
<glyph name="Oacute" format="1">
  <advance width="1822"/>
  <unicode hex="00D3"/>
  <outline>
    <contour>
      <point x="766" y="1668" type="curve" smooth="yes"/>
      <point x="772" y="1668"/>
      <point x="783" y="1674"/>
      <point x="792" y="1690" type="curve"/>
      <point x="1021" y="1981" type="line"/>
      <point x="1046" y="2011"/>
      <point x="1058" y="2040"/>
      <point x="1058" y="2066" type="curve" smooth="yes"/>
      <point x="1058" y="2119"/>
      <point x="1010" y="2153"/>
      <point x="963" y="2153" type="curve" smooth="yes"/>
      <point x="922" y="2153"/>
      <point x="880" y="2128"/>
      <point x="860" y="2066" type="curve"/>
      <point x="761" y="1704" type="line" smooth="yes"/>
      <point x="759" y="1696"/>
      <point x="758" y="1687"/>
      <point x="758" y="1683" type="curve" smooth="yes"/>
      <point x="758" y="1674"/>
      <point x="761" y="1668"/>
    </contour>
    <contour>
      <point x="909" y="162" type="curve" smooth="yes"/>
      <point x="583" y="162"/>
      <point x="316" y="429"/>
      <point x="316" y="759" type="curve" smooth="yes"/>
      <point x="316" y="1088"/>
      <point x="583" y="1356"/>
      <point x="909" y="1356" type="curve" smooth="yes"/>
      <point x="1236" y="1356"/>
      <point x="1504" y="1088"/>
      <point x="1504" y="759" type="curve" smooth="yes"/>
      <point x="1504" y="429"/>
      <point x="1236" y="162"/>
    </contour>
    <contour>
      <point x="909" y="-20" type="curve" smooth="yes"/>
      <point x="1349" y="-20"/>
      <point x="1711" y="330"/>
      <point x="1711" y="759" type="curve" smooth="yes"/>
      <point x="1711" y="1188"/>
      <point x="1349" y="1536"/>
      <point x="909" y="1536" type="curve" smooth="yes"/>
      <point x="469" y="1536"/>
      <point x="109" y="1188"/>
      <point x="109" y="759" type="curve" smooth="yes"/>
      <point x="109" y="330"/>
      <point x="469" y="-20"/>
    </contour>
  </outline>
</glyph>
<glyph name="Otilde" format="1">
  <advance width="1822"/>
  <unicode hex="00D5"/>
  <outline>
    <contour>
      <point x="1029" y="1669" type="curve" smooth="yes"/>
      <point x="1133" y="1669"/>
      <point x="1203" y="1727"/>
      <point x="1265" y="1814" type="curve"/>
      <point x="1267" y="1819"/>
      <point x="1269" y="1825"/>
      <point x="1269" y="1829" type="curve" smooth="yes"/>
      <point x="1269" y="1838"/>
      <point x="1265" y="1842"/>
      <point x="1257" y="1842" type="curve" smooth="yes"/>
      <point x="1239" y="1842"/>
      <point x="1206" y="1795"/>
      <point x="1146" y="1795" type="curve" smooth="yes"/>
      <point x="1059" y="1795"/>
      <point x="896" y="1885"/>
      <point x="764" y="1885" type="curve" smooth="yes"/>
      <point x="669" y="1885"/>
      <point x="609" y="1827"/>
      <point x="554" y="1740" type="curve" smooth="yes"/>
      <point x="549" y="1733"/>
      <point x="546" y="1729"/>
      <point x="546" y="1725" type="curve" smooth="yes"/>
      <point x="546" y="1716"/>
      <point x="554" y="1711"/>
      <point x="562" y="1711" type="curve" smooth="yes"/>
      <point x="578" y="1711"/>
      <point x="613" y="1756"/>
      <point x="670" y="1756" type="curve" smooth="yes"/>
      <point x="788" y="1756"/>
      <point x="934" y="1669"/>
    </contour>
    <contour>
      <point x="909" y="163" type="curve" smooth="yes"/>
      <point x="583" y="163"/>
      <point x="316" y="431"/>
      <point x="316" y="760" type="curve" smooth="yes"/>
      <point x="316" y="1089"/>
      <point x="583" y="1356"/>
      <point x="909" y="1356" type="curve" smooth="yes"/>
      <point x="1236" y="1356"/>
      <point x="1504" y="1089"/>
      <point x="1504" y="760" type="curve" smooth="yes"/>
      <point x="1504" y="431"/>
      <point x="1236" y="163"/>
    </contour>
    <contour>
      <point x="909" y="-18" type="curve" smooth="yes"/>
      <point x="1349" y="-18"/>
      <point x="1711" y="330"/>
      <point x="1711" y="760" type="curve" smooth="yes"/>
      <point x="1711" y="1188"/>
      <point x="1349" y="1537"/>
      <point x="909" y="1537" type="curve" smooth="yes"/>
      <point x="469" y="1537"/>
      <point x="109" y="1188"/>
      <point x="109" y="760" type="curve" smooth="yes"/>
      <point x="109" y="330"/>
      <point x="469" y="-18"/>
    </contour>
  </outline>
</glyph>
<glyph name="multiply" format="1">
  <advance width="1108"/>
  <unicode hex="00D7"/>
  <outline>
    <contour>
      <point x="804" y="420" type="line"/>
      <point x="921" y="531" type="line"/>
      <point x="669" y="782" type="line"/>
      <point x="925" y="1029" type="line"/>
      <point x="809" y="1140" type="line"/>
      <point x="552" y="893" type="line"/>
      <point x="296" y="1139" type="line"/>
      <point x="180" y="1027" type="line"/>
      <point x="435" y="780" type="line"/>
      <point x="179" y="533" type="line"/>
      <point x="295" y="421" type="line"/>
      <point x="550" y="667" type="line"/>
    </contour>
  </outline>
</glyph>
<glyph name="Uacute" format="1">
  <advance width="1541"/>
  <unicode hex="00DA"/>
  <outline>
    <contour>
      <point x="771" y="-20" type="curve" smooth="yes"/>
      <point x="1087" y="-20"/>
      <point x="1406" y="181"/>
      <point x="1406" y="586" type="curve" smooth="yes"/>
      <point x="1406" y="1515" type="line"/>
      <point x="1207" y="1515" type="line"/>
      <point x="1207" y="592" type="line" smooth="yes"/>
      <point x="1207" y="300"/>
      <point x="988" y="154"/>
      <point x="768" y="154" type="curve" smooth="yes"/>
      <point x="548" y="154"/>
      <point x="333" y="300"/>
      <point x="333" y="592" type="curve" smooth="yes"/>
      <point x="333" y="1515" type="line"/>
      <point x="134" y="1515" type="line"/>
      <point x="134" y="585" type="line" smooth="yes"/>
      <point x="134" y="181"/>
      <point x="454" y="-20"/>
    </contour>
    <contour>
      <point x="630" y="1668" type="curve" smooth="yes"/>
      <point x="634" y="1668"/>
      <point x="646" y="1674"/>
      <point x="655" y="1690" type="curve"/>
      <point x="884" y="1981" type="line" smooth="yes"/>
      <point x="908" y="2011"/>
      <point x="920" y="2040"/>
      <point x="920" y="2066" type="curve" smooth="yes"/>
      <point x="920" y="2119"/>
      <point x="873" y="2153"/>
      <point x="825" y="2153" type="curve" smooth="yes"/>
      <point x="784" y="2153"/>
      <point x="742" y="2128"/>
      <point x="724" y="2066" type="curve"/>
      <point x="623" y="1704" type="line" smooth="yes"/>
      <point x="621" y="1696"/>
      <point x="620" y="1687"/>
      <point x="620" y="1683" type="curve" smooth="yes"/>
      <point x="620" y="1674"/>
      <point x="623" y="1668"/>
    </contour>
  </outline>
</glyph>
<glyph name="Ucircumflex" format="1">
  <advance width="1541"/>
  <unicode hex="00DB"/>
  <outline>
    <contour>
      <point x="459" y="1667" type="curve"/>
      <point x="460" y="1667"/>
      <point x="460" y="1667"/>
      <point x="463" y="1669" type="curve" smooth="yes"/>
      <point x="769" y="1874" type="line"/>
      <point x="1076" y="1669" type="line" smooth="yes"/>
      <point x="1079" y="1667"/>
      <point x="1080" y="1667"/>
      <point x="1081" y="1667" type="curve" smooth="yes"/>
      <point x="1082" y="1667"/>
      <point x="1083" y="1669"/>
      <point x="1083" y="1671" type="curve" smooth="yes"/>
      <point x="1083" y="1673" type="line"/>
      <point x="810" y="2080" type="line"/>
      <point x="803" y="2088"/>
      <point x="784" y="2096"/>
      <point x="769" y="2096" type="curve" smooth="yes"/>
      <point x="755" y="2096"/>
      <point x="739" y="2088"/>
      <point x="731" y="2080" type="curve"/>
      <point x="456" y="1673" type="line"/>
      <point x="455" y="1673"/>
      <point x="455" y="1672"/>
      <point x="455" y="1671" type="curve" smooth="yes"/>
      <point x="455" y="1669"/>
      <point x="457" y="1667"/>
    </contour>
    <contour>
      <point x="771" y="-19" type="curve" smooth="yes"/>
      <point x="1087" y="-19"/>
      <point x="1406" y="182"/>
      <point x="1406" y="587" type="curve" smooth="yes"/>
      <point x="1406" y="1515" type="line"/>
      <point x="1207" y="1515" type="line"/>
      <point x="1207" y="591" type="line" smooth="yes"/>
      <point x="1207" y="300"/>
      <point x="988" y="154"/>
      <point x="768" y="154" type="curve" smooth="yes"/>
      <point x="548" y="154"/>
      <point x="333" y="300"/>
      <point x="333" y="591" type="curve" smooth="yes"/>
      <point x="333" y="1515" type="line"/>
      <point x="134" y="1515" type="line"/>
      <point x="134" y="586" type="line" smooth="yes"/>
      <point x="134" y="182"/>
      <point x="454" y="-19"/>
    </contour>
  </outline>
</glyph>
<glyph name="ccedilla" format="1">
  <advance width="999"/>
  <unicode hex="00E7"/>
  <outline>
    <contour>
      <point x="474" y="-445" type="line"/>
      <point x="581" y="-445"/>
      <point x="687" y="-406"/>
      <point x="687" y="-293" type="curve" smooth="yes"/>
      <point x="687" y="-201"/>
      <point x="608" y="-132"/>
      <point x="487" y="-132" type="curve"/>
      <point x="527" y="-14" type="line"/>
      <point x="554" y="-18"/>
      <point x="583" y="-20"/>
      <point x="614" y="-20" type="curve" smooth="yes"/>
      <point x="640" y="-20"/>
      <point x="800" y="-14"/>
      <point x="894" y="43" type="curve"/>
      <point x="894" y="211" type="line"/>
      <point x="877" y="211" type="line"/>
      <point x="802" y="167"/>
      <point x="708" y="131"/>
      <point x="626" y="131" type="curve" smooth="yes"/>
      <point x="389" y="131"/>
      <point x="275" y="328"/>
      <point x="275" y="501" type="curve" smooth="yes"/>
      <point x="275" y="674"/>
      <point x="398" y="862"/>
      <point x="623" y="862" type="curve" smooth="yes"/>
      <point x="728" y="862"/>
      <point x="778" y="845"/>
      <point x="871" y="795" type="curve"/>
      <point x="871" y="961" type="line"/>
      <point x="814" y="995"/>
      <point x="696" y="1017"/>
      <point x="606" y="1017" type="curve" smooth="yes"/>
      <point x="330" y="1017"/>
      <point x="84" y="808"/>
      <point x="84" y="500" type="curve" smooth="yes"/>
      <point x="84" y="238"/>
      <point x="250" y="46"/>
      <point x="483" y="-6" type="curve"/>
      <point x="449" y="-6" type="line"/>
      <point x="360" y="-261" type="line"/>
      <point x="387" y="-261"/>
      <point x="549" y="-251"/>
      <point x="549" y="-327" type="curve" smooth="yes"/>
      <point x="549" y="-383"/>
      <point x="492" y="-397"/>
      <point x="433" y="-397" type="curve" smooth="yes"/>
      <point x="368" y="-397"/>
      <point x="301" y="-380"/>
      <point x="275" y="-380" type="curve" smooth="yes"/>
      <point x="267" y="-380"/>
      <point x="261" y="-383"/>
      <point x="261" y="-385" type="curve" smooth="yes"/>
      <point x="261" y="-390"/>
      <point x="270" y="-395"/>
      <point x="274" y="-399" type="curve"/>
      <point x="318" y="-426"/>
      <point x="396" y="-445"/>
      <point x="473" y="-445" type="curve"/>
    </contour>
  </outline>
</glyph>
<glyph name="egrave" format="1">
  <advance width="1090"/>
  <unicode hex="00E8"/>
  <outline>
    <contour>
      <point x="638" y="-20" type="curve" smooth="yes"/>
      <point x="760" y="-20"/>
      <point x="868" y="10"/>
      <point x="962" y="71" type="curve"/>
      <point x="962" y="227" type="line"/>
      <point x="859" y="162"/>
      <point x="749" y="129"/>
      <point x="636" y="129" type="curve" smooth="yes"/>
      <point x="416" y="129"/>
      <point x="284" y="282"/>
      <point x="282" y="497" type="curve"/>
      <point x="981" y="497" type="line"/>
      <point x="981" y="524" type="line" smooth="yes"/>
      <point x="981" y="811"/>
      <point x="842" y="1014"/>
      <point x="551" y="1014" type="curve" smooth="yes"/>
      <point x="279" y="1014"/>
      <point x="83" y="787"/>
      <point x="83" y="514" type="curve" smooth="yes"/>
      <point x="83" y="197"/>
      <point x="303" y="-20"/>
    </contour>
    <contour>
      <point x="665" y="1147" type="curve" smooth="yes"/>
      <point x="672" y="1147"/>
      <point x="675" y="1154"/>
      <point x="675" y="1161" type="curve" smooth="yes"/>
      <point x="675" y="1167"/>
      <point x="675" y="1173"/>
      <point x="673" y="1181" type="curve" smooth="yes"/>
      <point x="583" y="1558" type="line"/>
      <point x="564" y="1620"/>
      <point x="524" y="1644"/>
      <point x="484" y="1644" type="curve" smooth="yes"/>
      <point x="436" y="1644"/>
      <point x="389" y="1607"/>
      <point x="389" y="1555" type="curve" smooth="yes"/>
      <point x="389" y="1530"/>
      <point x="399" y="1503"/>
      <point x="421" y="1474" type="curve"/>
      <point x="639" y="1167" type="line" smooth="yes"/>
      <point x="648" y="1154"/>
      <point x="659" y="1147"/>
    </contour>
    <contour>
      <point x="288" y="618" type="line"/>
      <point x="313" y="756"/>
      <point x="404" y="866"/>
      <point x="558" y="866" type="curve" smooth="yes"/>
      <point x="703" y="866"/>
      <point x="811" y="761"/>
      <point x="812" y="618" type="curve"/>
    </contour>
  </outline>
</glyph>
<glyph name="eacute" format="1">
  <advance width="1090"/>
  <unicode hex="00E9"/>
  <outline>
    <contour>
      <point x="638" y="-19" type="curve" smooth="yes"/>
      <point x="760" y="-19"/>
      <point x="868" y="12"/>
      <point x="962" y="72" type="curve"/>
      <point x="962" y="229" type="line"/>
      <point x="859" y="163"/>
      <point x="749" y="130"/>
      <point x="636" y="130" type="curve" smooth="yes"/>
      <point x="416" y="130"/>
      <point x="284" y="283"/>
      <point x="282" y="498" type="curve"/>
      <point x="981" y="498" type="line"/>
      <point x="981" y="525" type="line" smooth="yes"/>
      <point x="981" y="812"/>
      <point x="842" y="1016"/>
      <point x="551" y="1016" type="curve" smooth="yes"/>
      <point x="279" y="1016"/>
      <point x="83" y="788"/>
      <point x="83" y="515" type="curve" smooth="yes"/>
      <point x="83" y="198"/>
      <point x="303" y="-19"/>
    </contour>
    <contour>
      <point x="288" y="618" type="line"/>
      <point x="313" y="757"/>
      <point x="404" y="867"/>
      <point x="558" y="867" type="curve" smooth="yes"/>
      <point x="703" y="867"/>
      <point x="811" y="762"/>
      <point x="812" y="618" type="curve"/>
    </contour>
    <contour>
      <point x="497" y="1145" type="curve" smooth="yes"/>
      <point x="501" y="1145"/>
      <point x="512" y="1152"/>
      <point x="521" y="1166" type="curve"/>
      <point x="750" y="1457" type="line" smooth="yes"/>
      <point x="774" y="1488"/>
      <point x="786" y="1518"/>
      <point x="786" y="1542" type="curve" smooth="yes"/>
      <point x="786" y="1595"/>
      <point x="739" y="1629"/>
      <point x="692" y="1629" type="curve" smooth="yes"/>
      <point x="650" y="1629"/>
      <point x="609" y="1605"/>
      <point x="590" y="1542" type="curve"/>
      <point x="489" y="1180" type="line" smooth="yes"/>
      <point x="487" y="1173"/>
      <point x="486" y="1164"/>
      <point x="486" y="1160" type="curve" smooth="yes"/>
      <point x="486" y="1152"/>
      <point x="489" y="1145"/>
    </contour>
  </outline>
</glyph>
<glyph name="ecircumflex" format="1">
  <advance width="1090"/>
  <unicode hex="00EA"/>
  <outline>
    <contour>
      <point x="223" y="1149" type="curve"/>
      <point x="224" y="1149"/>
      <point x="224" y="1149"/>
      <point x="225" y="1150" type="curve" smooth="yes"/>
      <point x="533" y="1355" type="line"/>
      <point x="839" y="1150" type="line" smooth="yes"/>
      <point x="840" y="1149"/>
      <point x="841" y="1149"/>
      <point x="842" y="1149" type="curve" smooth="yes"/>
      <point x="844" y="1149"/>
      <point x="845" y="1150"/>
      <point x="845" y="1151" type="curve"/>
      <point x="845" y="1153" type="line"/>
      <point x="571" y="1560" type="line" smooth="yes"/>
      <point x="565" y="1570"/>
      <point x="547" y="1576"/>
      <point x="533" y="1576" type="curve" smooth="yes"/>
      <point x="516" y="1576"/>
      <point x="500" y="1570"/>
      <point x="493" y="1560" type="curve" smooth="yes"/>
      <point x="220" y="1153" type="line"/>
      <point x="217" y="1153"/>
      <point x="217" y="1152"/>
      <point x="217" y="1151" type="curve" smooth="yes"/>
      <point x="217" y="1150"/>
      <point x="221" y="1149"/>
    </contour>
    <contour>
      <point x="638" y="-20" type="curve" smooth="yes"/>
      <point x="760" y="-20"/>
      <point x="868" y="12"/>
      <point x="962" y="71" type="curve"/>
      <point x="962" y="228" type="line"/>
      <point x="859" y="161"/>
      <point x="749" y="130"/>
      <point x="636" y="130" type="curve" smooth="yes"/>
      <point x="416" y="130"/>
      <point x="284" y="282"/>
      <point x="282" y="498" type="curve"/>
      <point x="981" y="498" type="line"/>
      <point x="981" y="523" type="line" smooth="yes"/>
      <point x="981" y="810"/>
      <point x="842" y="1016"/>
      <point x="551" y="1016" type="curve" smooth="yes"/>
      <point x="279" y="1016"/>
      <point x="83" y="787"/>
      <point x="83" y="516" type="curve" smooth="yes"/>
      <point x="83" y="198"/>
      <point x="303" y="-20"/>
    </contour>
    <contour>
      <point x="288" y="618" type="line"/>
      <point x="313" y="757"/>
      <point x="404" y="866"/>
      <point x="558" y="866" type="curve" smooth="yes"/>
      <point x="703" y="866"/>
      <point x="811" y="761"/>
      <point x="812" y="618" type="curve"/>
    </contour>
  </outline>
</glyph>
<glyph name="edieresis" format="1">
  <advance width="1090"/>
  <unicode hex="00EB"/>
  <outline>
    <contour>
      <point x="638" y="-19" type="curve" smooth="yes"/>
      <point x="760" y="-19"/>
      <point x="868" y="12"/>
      <point x="962" y="72" type="curve"/>
      <point x="962" y="229" type="line"/>
      <point x="859" y="162"/>
      <point x="749" y="130"/>
      <point x="636" y="130" type="curve" smooth="yes"/>
      <point x="416" y="130"/>
      <point x="284" y="283"/>
      <point x="282" y="498" type="curve"/>
      <point x="981" y="498" type="line"/>
      <point x="981" y="524" type="line" smooth="yes"/>
      <point x="981" y="811"/>
      <point x="842" y="1016"/>
      <point x="551" y="1016" type="curve" smooth="yes"/>
      <point x="279" y="1016"/>
      <point x="83" y="788"/>
      <point x="83" y="516" type="curve" smooth="yes"/>
      <point x="83" y="198"/>
      <point x="303" y="-19"/>
    </contour>
    <contour>
      <point x="336" y="1149" type="curve" smooth="yes"/>
      <point x="398" y="1149"/>
      <point x="459" y="1185"/>
      <point x="459" y="1262" type="curve" smooth="yes"/>
      <point x="459" y="1341"/>
      <point x="398" y="1382"/>
      <point x="336" y="1382" type="curve" smooth="yes"/>
      <point x="276" y="1382"/>
      <point x="215" y="1341"/>
      <point x="215" y="1262" type="curve" smooth="yes"/>
      <point x="215" y="1186"/>
      <point x="276" y="1149"/>
    </contour>
    <contour>
      <point x="728" y="1149" type="curve" smooth="yes"/>
      <point x="788" y="1149"/>
      <point x="849" y="1185"/>
      <point x="849" y="1262" type="curve" smooth="yes"/>
      <point x="849" y="1341"/>
      <point x="788" y="1382"/>
      <point x="728" y="1382" type="curve" smooth="yes"/>
      <point x="666" y="1382"/>
      <point x="604" y="1341"/>
      <point x="604" y="1262" type="curve" smooth="yes"/>
      <point x="604" y="1186"/>
      <point x="666" y="1149"/>
    </contour>
    <contour>
      <point x="288" y="618" type="line"/>
      <point x="313" y="758"/>
      <point x="404" y="867"/>
      <point x="558" y="867" type="curve" smooth="yes"/>
      <point x="703" y="867"/>
      <point x="811" y="762"/>
      <point x="812" y="618" type="curve"/>
    </contour>
  </outline>
</glyph>
<glyph name="ograve" format="1">
  <advance width="1242"/>
  <unicode hex="00F2"/>
  <outline>
    <contour>
      <point x="756" y="1147" type="curve" smooth="yes"/>
      <point x="760" y="1147"/>
      <point x="764" y="1154"/>
      <point x="764" y="1161" type="curve" smooth="yes"/>
      <point x="764" y="1167"/>
      <point x="764" y="1173"/>
      <point x="761" y="1181" type="curve"/>
      <point x="673" y="1558" type="line"/>
      <point x="652" y="1620"/>
      <point x="612" y="1644"/>
      <point x="573" y="1644" type="curve" smooth="yes"/>
      <point x="526" y="1644"/>
      <point x="477" y="1607"/>
      <point x="477" y="1555" type="curve" smooth="yes"/>
      <point x="477" y="1530"/>
      <point x="487" y="1503"/>
      <point x="511" y="1474" type="curve"/>
      <point x="728" y="1167" type="line" smooth="yes"/>
      <point x="737" y="1154"/>
      <point x="747" y="1147"/>
    </contour>
    <contour>
      <point x="621" y="131" type="curve" smooth="yes"/>
      <point x="412" y="131"/>
      <point x="270" y="297"/>
      <point x="270" y="497" type="curve" smooth="yes"/>
      <point x="270" y="699"/>
      <point x="412" y="863"/>
      <point x="621" y="863" type="curve" smooth="yes"/>
      <point x="830" y="863"/>
      <point x="974" y="699"/>
      <point x="974" y="497" type="curve" smooth="yes"/>
      <point x="974" y="297"/>
      <point x="830" y="131"/>
    </contour>
    <contour>
      <point x="621" y="-20" type="curve" smooth="yes"/>
      <point x="914" y="-20"/>
      <point x="1160" y="187"/>
      <point x="1160" y="499" type="curve" smooth="yes"/>
      <point x="1160" y="811"/>
      <point x="914" y="1015"/>
      <point x="621" y="1015" type="curve" smooth="yes"/>
      <point x="328" y="1015"/>
      <point x="84" y="811"/>
      <point x="84" y="499" type="curve" smooth="yes"/>
      <point x="84" y="187"/>
      <point x="328" y="-20"/>
    </contour>
  </outline>
</glyph>
<glyph name="oacute" format="1">
  <advance width="1242"/>
  <unicode hex="00F3"/>
  <outline>
    <contour>
      <point x="482" y="1148" type="curve" smooth="yes"/>
      <point x="486" y="1148"/>
      <point x="498" y="1156"/>
      <point x="507" y="1170" type="curve"/>
      <point x="736" y="1461" type="line" smooth="yes"/>
      <point x="760" y="1492"/>
      <point x="771" y="1522"/>
      <point x="771" y="1546" type="curve" smooth="yes"/>
      <point x="771" y="1599"/>
      <point x="724" y="1633"/>
      <point x="677" y="1633" type="curve" smooth="yes"/>
      <point x="635" y="1633"/>
      <point x="594" y="1608"/>
      <point x="575" y="1546" type="curve"/>
      <point x="475" y="1184" type="line" smooth="yes"/>
      <point x="473" y="1177"/>
      <point x="471" y="1169"/>
      <point x="471" y="1163" type="curve" smooth="yes"/>
      <point x="471" y="1156"/>
      <point x="475" y="1148"/>
    </contour>
    <contour>
      <point x="621" y="132" type="curve" smooth="yes"/>
      <point x="412" y="132"/>
      <point x="270" y="298"/>
      <point x="270" y="498" type="curve" smooth="yes"/>
      <point x="270" y="700"/>
      <point x="412" y="863"/>
      <point x="621" y="863" type="curve" smooth="yes"/>
      <point x="830" y="863"/>
      <point x="974" y="700"/>
      <point x="974" y="498" type="curve" smooth="yes"/>
      <point x="974" y="298"/>
      <point x="830" y="132"/>
    </contour>
    <contour>
      <point x="621" y="-19" type="curve" smooth="yes"/>
      <point x="914" y="-19"/>
      <point x="1160" y="186"/>
      <point x="1160" y="500" type="curve" smooth="yes"/>
      <point x="1160" y="811"/>
      <point x="914" y="1016"/>
      <point x="621" y="1016" type="curve" smooth="yes"/>
      <point x="328" y="1016"/>
      <point x="84" y="811"/>
      <point x="84" y="500" type="curve" smooth="yes"/>
      <point x="84" y="186"/>
      <point x="328" y="-19"/>
    </contour>
  </outline>
</glyph>
<glyph name="oslash" format="1">
  <advance width="1243"/>
  <unicode hex="00F8"/>
  <outline>
    <contour>
      <point x="330" y="-156" type="line"/>
      <point x="421" y="15" type="line"/>
      <point x="483" y="-7"/>
      <point x="550" y="-19"/>
      <point x="621" y="-19" type="curve" smooth="yes"/>
      <point x="914" y="-19"/>
      <point x="1160" y="187"/>
      <point x="1160" y="501" type="curve" smooth="yes"/>
      <point x="1160" y="697"/>
      <point x="1061" y="852"/>
      <point x="914" y="939" type="curve"/>
      <point x="1028" y="1152" type="line"/>
      <point x="939" y="1192" type="line"/>
      <point x="826" y="981" type="line"/>
      <point x="763" y="1005"/>
      <point x="694" y="1018"/>
      <point x="621" y="1018" type="curve" smooth="yes"/>
      <point x="328" y="1018"/>
      <point x="84" y="811"/>
      <point x="84" y="502" type="curve" smooth="yes"/>
      <point x="84" y="302"/>
      <point x="183" y="146"/>
      <point x="330" y="59" type="curve"/>
      <point x="236" y="-115" type="line"/>
    </contour>
    <contour>
      <point x="407" y="203" type="line"/>
      <point x="320" y="270"/>
      <point x="269" y="378"/>
      <point x="269" y="498" type="curve" smooth="yes"/>
      <point x="269" y="702"/>
      <point x="411" y="863"/>
      <point x="620" y="863" type="curve" smooth="yes"/>
      <point x="666" y="863"/>
      <point x="710" y="855"/>
      <point x="749" y="840" type="curve"/>
    </contour>
    <contour>
      <point x="620" y="133" type="curve" smooth="yes"/>
      <point x="574" y="133"/>
      <point x="532" y="141"/>
      <point x="494" y="155" type="curve"/>
      <point x="834" y="793" type="line"/>
      <point x="922" y="727"/>
      <point x="973" y="620"/>
      <point x="973" y="498" type="curve" smooth="yes"/>
      <point x="973" y="299"/>
      <point x="829" y="133"/>
    </contour>
  </outline>
</glyph>
<glyph name="ugrave" format="1">
  <advance width="1040"/>
  <unicode hex="00F9"/>
  <outline>
    <contour>
      <point x="433" y="-19" type="curve" smooth="yes"/>
      <point x="543" y="-19"/>
      <point x="656" y="31"/>
      <point x="746" y="129" type="curve"/>
      <point x="746" y="0" type="line"/>
      <point x="928" y="0" type="line"/>
      <point x="928" y="997" type="line"/>
      <point x="744" y="997" type="line"/>
      <point x="744" y="271" type="line"/>
      <point x="686" y="186"/>
      <point x="571" y="126"/>
      <point x="468" y="126" type="curve" smooth="yes"/>
      <point x="371" y="126"/>
      <point x="289" y="182"/>
      <point x="289" y="324" type="curve" smooth="yes"/>
      <point x="289" y="997" type="line"/>
      <point x="104" y="997" type="line"/>
      <point x="104" y="335" type="line" smooth="yes"/>
      <point x="104" y="101"/>
      <point x="261" y="-19"/>
    </contour>
    <contour>
      <point x="649" y="1147" type="curve" smooth="yes"/>
      <point x="654" y="1147"/>
      <point x="657" y="1154"/>
      <point x="657" y="1161" type="curve" smooth="yes"/>
      <point x="657" y="1167"/>
      <point x="657" y="1173"/>
      <point x="655" y="1181" type="curve" smooth="yes"/>
      <point x="567" y="1558" type="line"/>
      <point x="546" y="1620"/>
      <point x="506" y="1644"/>
      <point x="467" y="1644" type="curve" smooth="yes"/>
      <point x="419" y="1644"/>
      <point x="371" y="1607"/>
      <point x="371" y="1555" type="curve" smooth="yes"/>
      <point x="371" y="1530"/>
      <point x="382" y="1503"/>
      <point x="404" y="1474" type="curve"/>
      <point x="622" y="1167" type="line" smooth="yes"/>
      <point x="631" y="1154"/>
      <point x="642" y="1147"/>
    </contour>
  </outline>
</glyph>
<glyph name="uacute" format="1">
  <advance width="1040"/>
  <unicode hex="00FA"/>
  <outline>
    <contour>
      <point x="433" y="-17" type="curve" smooth="yes"/>
      <point x="543" y="-17"/>
      <point x="656" y="33"/>
      <point x="746" y="130" type="curve"/>
      <point x="746" y="0" type="line"/>
      <point x="928" y="0" type="line"/>
      <point x="928" y="999" type="line"/>
      <point x="744" y="999" type="line"/>
      <point x="744" y="273" type="line"/>
      <point x="686" y="187"/>
      <point x="571" y="128"/>
      <point x="468" y="128" type="curve" smooth="yes"/>
      <point x="371" y="128"/>
      <point x="289" y="183"/>
      <point x="289" y="326" type="curve" smooth="yes"/>
      <point x="289" y="999" type="line"/>
      <point x="104" y="999" type="line"/>
      <point x="104" y="337" type="line" smooth="yes"/>
      <point x="104" y="102"/>
      <point x="261" y="-17"/>
    </contour>
    <contour>
      <point x="375" y="1149" type="curve" smooth="yes"/>
      <point x="381" y="1149"/>
      <point x="391" y="1157"/>
      <point x="400" y="1171" type="curve"/>
      <point x="630" y="1462" type="line" smooth="yes"/>
      <point x="654" y="1493"/>
      <point x="665" y="1522"/>
      <point x="665" y="1547" type="curve" smooth="yes"/>
      <point x="665" y="1600"/>
      <point x="618" y="1634"/>
      <point x="571" y="1634" type="curve" smooth="yes"/>
      <point x="530" y="1634"/>
      <point x="488" y="1609"/>
      <point x="468" y="1547" type="curve"/>
      <point x="369" y="1185" type="line" smooth="yes"/>
      <point x="367" y="1178"/>
      <point x="366" y="1170"/>
      <point x="366" y="1164" type="curve" smooth="yes"/>
      <point x="366" y="1157"/>
      <point x="369" y="1149"/>
    </contour>
  </outline>
</glyph>
<glyph name="ucircumflex" format="1">
  <advance width="1040"/>
  <unicode hex="00FB"/>
  <outline>
    <contour>
      <point x="433" y="-19" type="curve" smooth="yes"/>
      <point x="543" y="-19"/>
      <point x="656" y="31"/>
      <point x="746" y="130" type="curve"/>
      <point x="746" y="0" type="line"/>
      <point x="928" y="0" type="line"/>
      <point x="928" y="996" type="line"/>
      <point x="744" y="996" type="line"/>
      <point x="744" y="271" type="line"/>
      <point x="686" y="186"/>
      <point x="571" y="126"/>
      <point x="468" y="126" type="curve" smooth="yes"/>
      <point x="371" y="126"/>
      <point x="289" y="183"/>
      <point x="289" y="325" type="curve" smooth="yes"/>
      <point x="289" y="996" type="line"/>
      <point x="104" y="996" type="line"/>
      <point x="104" y="335" type="line" smooth="yes"/>
      <point x="104" y="100"/>
      <point x="261" y="-19"/>
    </contour>
    <contour>
      <point x="206" y="1149" type="curve"/>
      <point x="207" y="1149"/>
      <point x="207" y="1149"/>
      <point x="208" y="1150" type="curve" smooth="yes"/>
      <point x="516" y="1355" type="line"/>
      <point x="822" y="1150" type="line" smooth="yes"/>
      <point x="824" y="1149"/>
      <point x="827" y="1149"/>
      <point x="828" y="1149" type="curve" smooth="yes"/>
      <point x="829" y="1149"/>
      <point x="830" y="1150"/>
      <point x="830" y="1151" type="curve"/>
      <point x="830" y="1153" type="line"/>
      <point x="557" y="1560" type="line"/>
      <point x="548" y="1570"/>
      <point x="531" y="1575"/>
      <point x="516" y="1575" type="curve" smooth="yes"/>
      <point x="502" y="1575"/>
      <point x="485" y="1570"/>
      <point x="478" y="1560" type="curve" smooth="yes"/>
      <point x="203" y="1153" type="line"/>
      <point x="202" y="1153"/>
      <point x="202" y="1152"/>
      <point x="202" y="1151" type="curve" smooth="yes"/>
      <point x="202" y="1150"/>
      <point x="204" y="1149"/>
    </contour>
  </outline>
</glyph>
<glyph name="udieresis" format="1">
  <advance width="1040"/>
  <unicode hex="00FC"/>
  <outline>
    <contour>
      <point x="433" y="-17" type="curve" smooth="yes"/>
      <point x="543" y="-17"/>
      <point x="656" y="32"/>
      <point x="746" y="130" type="curve"/>
      <point x="746" y="0" type="line"/>
      <point x="928" y="0" type="line"/>
      <point x="928" y="997" type="line"/>
      <point x="744" y="997" type="line"/>
      <point x="744" y="272" type="line"/>
      <point x="686" y="186"/>
      <point x="571" y="128"/>
      <point x="468" y="128" type="curve" smooth="yes"/>
      <point x="371" y="128"/>
      <point x="289" y="183"/>
      <point x="289" y="326" type="curve" smooth="yes"/>
      <point x="289" y="997" type="line"/>
      <point x="104" y="997" type="line"/>
      <point x="104" y="336" type="line" smooth="yes"/>
      <point x="104" y="101"/>
      <point x="261" y="-17"/>
    </contour>
    <contour>
      <point x="320" y="1149" type="curve" smooth="yes"/>
      <point x="381" y="1149"/>
      <point x="442" y="1185"/>
      <point x="442" y="1262" type="curve" smooth="yes"/>
      <point x="442" y="1341"/>
      <point x="381" y="1382"/>
      <point x="320" y="1382" type="curve" smooth="yes"/>
      <point x="259" y="1382"/>
      <point x="200" y="1341"/>
      <point x="200" y="1262" type="curve" smooth="yes"/>
      <point x="200" y="1186"/>
      <point x="259" y="1149"/>
    </contour>
    <contour>
      <point x="710" y="1149" type="curve" smooth="yes"/>
      <point x="770" y="1149"/>
      <point x="831" y="1185"/>
      <point x="831" y="1262" type="curve" smooth="yes"/>
      <point x="831" y="1341"/>
      <point x="770" y="1382"/>
      <point x="710" y="1382" type="curve" smooth="yes"/>
      <point x="651" y="1382"/>
      <point x="589" y="1341"/>
      <point x="589" y="1262" type="curve" smooth="yes"/>
      <point x="589" y="1186"/>
      <point x="651" y="1149"/>
    </contour>
  </outline>
</glyph>
<glyph name="yacute" format="1">
  <advance width="1040"/>
  <unicode hex="00FD"/>
  <outline>
    <contour>
      <point x="211" y="-268" type="line"/>
      <point x="415" y="-268" type="line"/>
      <point x="1030" y="996" type="line"/>
      <point x="830" y="996" type="line"/>
      <point x="555" y="405" type="line"/>
      <point x="273" y="996" type="line"/>
      <point x="47" y="996" type="line"/>
      <point x="450" y="245" type="line"/>
    </contour>
    <contour>
      <point x="398" y="1149" type="curve" smooth="yes"/>
      <point x="402" y="1149"/>
      <point x="414" y="1154"/>
      <point x="423" y="1168" type="curve"/>
      <point x="652" y="1460" type="line"/>
      <point x="676" y="1492"/>
      <point x="688" y="1521"/>
      <point x="688" y="1546" type="curve" smooth="yes"/>
      <point x="688" y="1599"/>
      <point x="640" y="1633"/>
      <point x="593" y="1633" type="curve" smooth="yes"/>
      <point x="552" y="1633"/>
      <point x="510" y="1609"/>
      <point x="492" y="1546" type="curve"/>
      <point x="391" y="1182" type="line"/>
      <point x="389" y="1177"/>
      <point x="388" y="1167"/>
      <point x="388" y="1164" type="curve" smooth="yes"/>
      <point x="388" y="1154"/>
      <point x="391" y="1149"/>
    </contour>
  </outline>
</glyph>
<glyph name="thorn" format="1">
  <advance width="1042"/>
  <unicode hex="00FE"/>
  <outline>
    <contour>
      <point x="124" y="-361" type="line"/>
      <point x="314" y="-361" type="line"/>
      <point x="314" y="35" type="line"/>
      <point x="314" y="35"/>
      <point x="397" y="-20"/>
      <point x="532" y="-20" type="curve" smooth="yes"/>
      <point x="872" y="-20"/>
      <point x="1047" y="260"/>
      <point x="1047" y="529" type="curve" smooth="yes"/>
      <point x="1047" y="775"/>
      <point x="895" y="1017"/>
      <point x="576" y="1017" type="curve" smooth="yes"/>
      <point x="495" y="1017"/>
      <point x="404" y="983"/>
      <point x="317" y="907" type="curve"/>
      <point x="317" y="1477" type="line"/>
      <point x="124" y="1477" type="line"/>
    </contour>
    <contour>
      <point x="515" y="139" type="curve" smooth="yes"/>
      <point x="380" y="139"/>
      <point x="317" y="190"/>
      <point x="317" y="190" type="curve"/>
      <point x="317" y="768" type="line"/>
      <point x="317" y="768"/>
      <point x="416" y="854"/>
      <point x="559" y="854" type="curve" smooth="yes"/>
      <point x="755" y="854"/>
      <point x="846" y="695"/>
      <point x="846" y="527" type="curve" smooth="yes"/>
      <point x="846" y="339"/>
      <point x="733" y="139"/>
    </contour>
  </outline>
</glyph>
<glyph name="ydieresis" format="1">
  <advance width="1040"/>
  <unicode hex="00FF"/>
  <outline>
    <contour>
      <point x="211" y="-269" type="line"/>
      <point x="415" y="-269" type="line"/>
      <point x="1030" y="997" type="line"/>
      <point x="830" y="997" type="line"/>
      <point x="555" y="407" type="line"/>
      <point x="273" y="997" type="line"/>
      <point x="47" y="997" type="line"/>
      <point x="450" y="246" type="line"/>
    </contour>
    <contour>
      <point x="342" y="1148" type="curve" smooth="yes"/>
      <point x="402" y="1148"/>
      <point x="464" y="1184"/>
      <point x="464" y="1260" type="curve" smooth="yes"/>
      <point x="464" y="1340"/>
      <point x="402" y="1381"/>
      <point x="342" y="1381" type="curve" smooth="yes"/>
      <point x="282" y="1381"/>
      <point x="222" y="1340"/>
      <point x="222" y="1260" type="curve" smooth="yes"/>
      <point x="222" y="1186"/>
      <point x="282" y="1148"/>
    </contour>
    <contour>
      <point x="732" y="1148" type="curve" smooth="yes"/>
      <point x="793" y="1148"/>
      <point x="853" y="1184"/>
      <point x="853" y="1260" type="curve" smooth="yes"/>
      <point x="853" y="1340"/>
      <point x="793" y="1381"/>
      <point x="732" y="1381" type="curve" smooth="yes"/>
      <point x="673" y="1381"/>
      <point x="611" y="1340"/>
      <point x="611" y="1260" type="curve" smooth="yes"/>
      <point x="611" y="1186"/>
      <point x="673" y="1148"/>
    </contour>
  </outline>
</glyph>
<glyph name="Amacron" format="1">
  <advance width="1583"/>
  <unicode hex="0100"/>
  <outline>
    <contour>
      <point x="62" y="0" type="line"/>
      <point x="268" y="0" type="line"/>
      <point x="477" y="487" type="line"/>
      <point x="1103" y="487" type="line"/>
      <point x="1324" y="0" type="line"/>
      <point x="1516" y="0" type="line"/>
      <point x="1520" y="3" type="line"/>
      <point x="847" y="1516" type="line"/>
      <point x="699" y="1516" type="line"/>
    </contour>
    <contour>
      <point x="524" y="1668" type="line"/>
      <point x="1056" y="1668" type="line"/>
      <point x="1056" y="1820" type="line"/>
      <point x="524" y="1820" type="line"/>
    </contour>
    <contour>
      <point x="552" y="662" type="line"/>
      <point x="778" y="1265" type="line"/>
      <point x="1024" y="662" type="line"/>
    </contour>
  </outline>
</glyph>
<glyph name="aogonek" format="1">
  <advance width="994"/>
  <unicode hex="0105"/>
  <outline>
    <contour>
      <point x="842" y="-395" type="curve" smooth="yes"/>
      <point x="855" y="-395"/>
      <point x="871" y="-394"/>
      <point x="885" y="-390" type="curve"/>
      <point x="917" y="-265" type="line"/>
      <point x="916" y="-265" type="line"/>
      <point x="788" y="-265"/>
      <point x="722" y="-204"/>
      <point x="722" y="-141" type="curve" smooth="yes"/>
      <point x="722" y="-92"/>
      <point x="764" y="-41"/>
      <point x="843" y="-14" type="curve"/>
      <point x="944" y="128" type="line"/>
      <point x="859" y="171"/>
      <point x="809" y="176"/>
      <point x="809" y="284" type="curve" smooth="yes"/>
      <point x="809" y="692" type="line" smooth="yes"/>
      <point x="809" y="923"/>
      <point x="617" y="1006"/>
      <point x="445" y="1006" type="curve" smooth="yes"/>
      <point x="299" y="1006"/>
      <point x="148" y="919"/>
      <point x="108" y="877" type="curve"/>
      <point x="161" y="725" type="line"/>
      <point x="232" y="791"/>
      <point x="333" y="841"/>
      <point x="449" y="841" type="curve" smooth="yes"/>
      <point x="564" y="841"/>
      <point x="625" y="754"/>
      <point x="625" y="624" type="curve" smooth="yes"/>
      <point x="625" y="611"/>
      <point x="624" y="571"/>
      <point x="624" y="568" type="curve"/>
      <point x="454" y="525" type="line" smooth="yes"/>
      <point x="190" y="458"/>
      <point x="89" y="340"/>
      <point x="89" y="230" type="curve" smooth="yes"/>
      <point x="89" y="44"/>
      <point x="215" y="-22"/>
      <point x="367" y="-22" type="curve" smooth="yes"/>
      <point x="451" y="-22"/>
      <point x="587" y="24"/>
      <point x="654" y="137" type="curve"/>
      <point x="675" y="95"/>
      <point x="720" y="57"/>
      <point x="766" y="27" type="curve"/>
      <point x="653" y="8"/>
      <point x="597" y="-82"/>
      <point x="597" y="-175" type="curve" smooth="yes"/>
      <point x="597" y="-287"/>
      <point x="695" y="-395"/>
    </contour>
    <contour>
      <point x="624" y="223" type="line"/>
      <point x="546" y="129"/>
      <point x="285" y="26"/>
      <point x="285" y="244" type="curve" smooth="yes"/>
      <point x="285" y="380"/>
      <point x="495" y="419"/>
      <point x="624" y="460" type="curve"/>
    </contour>
  </outline>
</glyph>
<glyph name="cdotaccent" format="1">
  <advance width="999"/>
  <unicode hex="010B"/>
  <outline>
    <contour>
      <point x="614" y="-20" type="curve" smooth="yes"/>
      <point x="640" y="-20"/>
      <point x="800" y="-13"/>
      <point x="894" y="44" type="curve"/>
      <point x="894" y="210" type="line"/>
      <point x="877" y="210" type="line"/>
      <point x="802" y="166"/>
      <point x="708" y="132"/>
      <point x="626" y="132" type="curve" smooth="yes"/>
      <point x="389" y="132"/>
      <point x="275" y="327"/>
      <point x="275" y="501" type="curve" smooth="yes"/>
      <point x="275" y="675"/>
      <point x="398" y="863"/>
      <point x="623" y="863" type="curve" smooth="yes"/>
      <point x="728" y="863"/>
      <point x="778" y="844"/>
      <point x="871" y="796" type="curve"/>
      <point x="871" y="960" type="line"/>
      <point x="814" y="996"/>
      <point x="696" y="1016"/>
      <point x="606" y="1016" type="curve" smooth="yes"/>
      <point x="330" y="1016"/>
      <point x="84" y="809"/>
      <point x="84" y="499" type="curve" smooth="yes"/>
      <point x="84" y="194"/>
      <point x="314" y="-20"/>
    </contour>
    <contour>
      <point x="489" y="1148" type="curve" smooth="yes"/>
      <point x="556" y="1148"/>
      <point x="624" y="1189"/>
      <point x="624" y="1275" type="curve" smooth="yes"/>
      <point x="624" y="1363"/>
      <point x="556" y="1409"/>
      <point x="489" y="1409" type="curve" smooth="yes"/>
      <point x="422" y="1409"/>
      <point x="354" y="1365"/>
      <point x="354" y="1275" type="curve" smooth="yes"/>
      <point x="354" y="1189"/>
      <point x="422" y="1148"/>
    </contour>
  </outline>
</glyph>
<glyph name="dcaron" format="1">
  <advance width="1104"/>
  <unicode hex="010F"/>
  <outline>
    <contour>
      <point x="662" y="-18" type="curve" smooth="yes"/>
      <point x="844" y="-18"/>
      <point x="990" y="49"/>
      <point x="990" y="49" type="curve"/>
      <point x="990" y="1490" type="line"/>
      <point x="804" y="1490" type="line"/>
      <point x="804" y="953" type="line"/>
      <point x="730" y="997"/>
      <point x="645" y="1017"/>
      <point x="560" y="1017" type="curve" smooth="yes"/>
      <point x="250" y="1017"/>
      <point x="82" y="768"/>
      <point x="82" y="515" type="curve" smooth="yes"/>
      <point x="82" y="250"/>
      <point x="265" y="-18"/>
    </contour>
    <contour>
      <point x="1234" y="1018" type="line"/>
      <point x="1344" y="1018"/>
      <point x="1480" y="1210"/>
      <point x="1480" y="1344" type="curve" smooth="yes"/>
      <point x="1480" y="1444"/>
      <point x="1406" y="1490"/>
      <point x="1332" y="1490" type="curve" smooth="yes"/>
      <point x="1262" y="1490"/>
      <point x="1195" y="1443"/>
      <point x="1195" y="1353" type="curve" smooth="yes"/>
      <point x="1195" y="1301"/>
      <point x="1229" y="1249"/>
      <point x="1299" y="1229" type="curve"/>
      <point x="1299" y="1150"/>
      <point x="1273" y="1098"/>
      <point x="1210" y="1042" type="curve"/>
    </contour>
    <contour>
      <point x="676" y="115" type="curve" smooth="yes"/>
      <point x="402" y="115"/>
      <point x="276" y="309"/>
      <point x="276" y="510" type="curve" smooth="yes"/>
      <point x="276" y="695"/>
      <point x="384" y="871"/>
      <point x="585" y="871" type="curve" smooth="yes"/>
      <point x="672" y="871"/>
      <point x="756" y="840"/>
      <point x="804" y="793" type="curve"/>
      <point x="804" y="136" type="line"/>
      <point x="763" y="117"/>
      <point x="717" y="115"/>
    </contour>
  </outline>
</glyph>
<glyph name="Dcroat" format="1">
  <advance width="1610"/>
  <unicode hex="0110"/>
  <outline>
    <contour>
      <point x="330" y="177" type="line"/>
      <point x="330" y="681" type="line"/>
      <point x="641" y="681" type="line"/>
      <point x="641" y="829" type="line"/>
      <point x="330" y="829" type="line"/>
      <point x="330" y="1337" type="line"/>
      <point x="737" y="1337" type="line" smooth="yes"/>
      <point x="1043" y="1337"/>
      <point x="1287" y="1198"/>
      <point x="1287" y="760" type="curve" smooth="yes"/>
      <point x="1287" y="373"/>
      <point x="1043" y="177"/>
      <point x="687" y="177" type="curve" smooth="yes"/>
    </contour>
    <contour>
      <point x="132" y="0" type="line"/>
      <point x="730" y="0" type="line" smooth="yes"/>
      <point x="1226" y="0"/>
      <point x="1503" y="357"/>
      <point x="1503" y="763" type="curve" smooth="yes"/>
      <point x="1503" y="1207"/>
      <point x="1246" y="1516"/>
      <point x="765" y="1516" type="curve" smooth="yes"/>
      <point x="132" y="1516" type="line"/>
      <point x="132" y="829" type="line"/>
      <point x="0" y="829" type="line"/>
      <point x="0" y="681" type="line"/>
      <point x="132" y="681" type="line"/>
    </contour>
  </outline>
</glyph>
<glyph name="dcroat" format="1">
  <advance width="1103"/>
  <unicode hex="0111"/>
  <outline>
    <contour>
      <point x="663" y="-18" type="curve" smooth="yes"/>
      <point x="844" y="-18"/>
      <point x="991" y="49"/>
      <point x="991" y="49" type="curve"/>
      <point x="991" y="1191" type="line"/>
      <point x="1103" y="1191" type="line"/>
      <point x="1103" y="1320" type="line"/>
      <point x="991" y="1320" type="line"/>
      <point x="991" y="1490" type="line"/>
      <point x="804" y="1490" type="line"/>
      <point x="804" y="1320" type="line"/>
      <point x="462" y="1320" type="line"/>
      <point x="462" y="1191" type="line"/>
      <point x="804" y="1191" type="line"/>
      <point x="804" y="953" type="line"/>
      <point x="730" y="997"/>
      <point x="646" y="1017"/>
      <point x="561" y="1017" type="curve" smooth="yes"/>
      <point x="251" y="1017"/>
      <point x="83" y="768"/>
      <point x="83" y="515" type="curve" smooth="yes"/>
      <point x="83" y="250"/>
      <point x="266" y="-18"/>
    </contour>
    <contour>
      <point x="677" y="115" type="curve" smooth="yes"/>
      <point x="402" y="115"/>
      <point x="277" y="309"/>
      <point x="277" y="510" type="curve" smooth="yes"/>
      <point x="277" y="695"/>
      <point x="385" y="871"/>
      <point x="583" y="871" type="curve" smooth="yes"/>
      <point x="672" y="871"/>
      <point x="757" y="840"/>
      <point x="804" y="793" type="curve"/>
      <point x="804" y="136" type="line"/>
      <point x="761" y="117"/>
      <point x="717" y="115"/>
    </contour>
  </outline>
</glyph>
<glyph name="Emacron" format="1">
  <advance width="1099"/>
  <unicode hex="0112"/>
  <outline>
    <contour>
      <point x="133" y="0" type="line"/>
      <point x="1009" y="0" type="line"/>
      <point x="1009" y="177" type="line"/>
      <point x="331" y="177" type="line"/>
      <point x="331" y="682" type="line"/>
      <point x="981" y="682" type="line"/>
      <point x="981" y="857" type="line"/>
      <point x="331" y="857" type="line"/>
      <point x="331" y="1338" type="line"/>
      <point x="995" y="1338" type="line"/>
      <point x="995" y="1516" type="line"/>
      <point x="133" y="1516" type="line"/>
    </contour>
    <contour>
      <point x="298" y="1668" type="line"/>
      <point x="830" y="1668" type="line"/>
      <point x="830" y="1820" type="line"/>
      <point x="298" y="1820" type="line"/>
    </contour>
  </outline>
</glyph>
<glyph name="emacron" format="1">
  <advance width="1090"/>
  <unicode hex="0113"/>
  <outline>
    <contour>
      <point x="638" y="-18" type="curve" smooth="yes"/>
      <point x="760" y="-18"/>
      <point x="868" y="12"/>
      <point x="962" y="72" type="curve"/>
      <point x="962" y="229" type="line"/>
      <point x="859" y="163"/>
      <point x="749" y="130"/>
      <point x="636" y="130" type="curve" smooth="yes"/>
      <point x="416" y="130"/>
      <point x="284" y="284"/>
      <point x="282" y="498" type="curve"/>
      <point x="981" y="498" type="line"/>
      <point x="981" y="526" type="line" smooth="yes"/>
      <point x="981" y="811"/>
      <point x="842" y="1016"/>
      <point x="551" y="1016" type="curve" smooth="yes"/>
      <point x="279" y="1016"/>
      <point x="83" y="788"/>
      <point x="83" y="517" type="curve" smooth="yes"/>
      <point x="83" y="200"/>
      <point x="303" y="-18"/>
    </contour>
    <contour>
      <point x="266" y="1150" type="line"/>
      <point x="798" y="1150" type="line"/>
      <point x="798" y="1302" type="line"/>
      <point x="266" y="1302" type="line"/>
    </contour>
    <contour>
      <point x="288" y="618" type="line"/>
      <point x="313" y="758"/>
      <point x="404" y="867"/>
      <point x="558" y="867" type="curve" smooth="yes"/>
      <point x="703" y="867"/>
      <point x="811" y="762"/>
      <point x="812" y="618" type="curve"/>
    </contour>
  </outline>
</glyph>
<glyph name="edotaccent" format="1">
  <advance width="1090"/>
  <unicode hex="0117"/>
  <outline>
    <contour>
      <point x="638" y="-20" type="curve" smooth="yes"/>
      <point x="760" y="-20"/>
      <point x="868" y="12"/>
      <point x="962" y="72" type="curve"/>
      <point x="962" y="229" type="line"/>
      <point x="859" y="162"/>
      <point x="749" y="129"/>
      <point x="636" y="129" type="curve" smooth="yes"/>
      <point x="416" y="129"/>
      <point x="284" y="282"/>
      <point x="282" y="497" type="curve"/>
      <point x="981" y="497" type="line"/>
      <point x="981" y="524" type="line" smooth="yes"/>
      <point x="981" y="811"/>
      <point x="842" y="1014"/>
      <point x="551" y="1014" type="curve" smooth="yes"/>
      <point x="279" y="1014"/>
      <point x="83" y="787"/>
      <point x="83" y="515" type="curve" smooth="yes"/>
      <point x="83" y="197"/>
      <point x="303" y="-20"/>
    </contour>
    <contour>
      <point x="533" y="1148" type="curve" smooth="yes"/>
      <point x="598" y="1148"/>
      <point x="665" y="1189"/>
      <point x="665" y="1275" type="curve" smooth="yes"/>
      <point x="665" y="1363"/>
      <point x="598" y="1409"/>
      <point x="533" y="1409" type="curve" smooth="yes"/>
      <point x="464" y="1409"/>
      <point x="398" y="1365"/>
      <point x="398" y="1275" type="curve" smooth="yes"/>
      <point x="398" y="1189"/>
      <point x="464" y="1148"/>
    </contour>
    <contour>
      <point x="288" y="618" type="line"/>
      <point x="313" y="756"/>
      <point x="404" y="866"/>
      <point x="558" y="866" type="curve" smooth="yes"/>
      <point x="703" y="866"/>
      <point x="811" y="762"/>
      <point x="812" y="618" type="curve"/>
    </contour>
  </outline>
</glyph>
<glyph name="Gdotaccent" format="1">
  <advance width="1600"/>
  <unicode hex="0120"/>
  <outline>
    <contour>
      <point x="902" y="-20" type="curve" smooth="yes"/>
      <point x="1065" y="-20"/>
      <point x="1254" y="17"/>
      <point x="1473" y="105" type="curve"/>
      <point x="1473" y="729" type="line"/>
      <point x="988" y="729" type="line"/>
      <point x="988" y="556" type="line"/>
      <point x="1273" y="556" type="line"/>
      <point x="1273" y="218" type="line"/>
      <point x="1272" y="218" type="line"/>
      <point x="1146" y="167"/>
      <point x="1025" y="145"/>
      <point x="919" y="145" type="curve" smooth="yes"/>
      <point x="551" y="145"/>
      <point x="314" y="410"/>
      <point x="314" y="729" type="curve" smooth="yes"/>
      <point x="314" y="1135"/>
      <point x="614" y="1375"/>
      <point x="970" y="1375" type="curve" smooth="yes"/>
      <point x="1121" y="1375"/>
      <point x="1283" y="1332"/>
      <point x="1437" y="1241" type="curve"/>
      <point x="1437" y="1409" type="line"/>
      <point x="1280" y="1496"/>
      <point x="1117" y="1535"/>
      <point x="955" y="1535" type="curve" smooth="yes"/>
      <point x="485" y="1535"/>
      <point x="110" y="1205"/>
      <point x="110" y="733" type="curve" smooth="yes"/>
      <point x="110" y="390"/>
      <point x="360" y="-20"/>
    </contour>
    <contour>
      <point x="787" y="1668" type="curve" smooth="yes"/>
      <point x="852" y="1668"/>
      <point x="920" y="1708"/>
      <point x="920" y="1794" type="curve" smooth="yes"/>
      <point x="920" y="1883"/>
      <point x="852" y="1928"/>
      <point x="787" y="1928" type="curve" smooth="yes"/>
      <point x="719" y="1928"/>
      <point x="652" y="1884"/>
      <point x="652" y="1794" type="curve" smooth="yes"/>
      <point x="652" y="1708"/>
      <point x="719" y="1668"/>
    </contour>
  </outline>
</glyph>
<glyph name="hcircumflex" format="1">
  <advance width="1069"/>
  <unicode hex="0125"/>
  <outline>
    <contour>
      <point x="110" y="0" type="line"/>
      <point x="296" y="0" type="line"/>
      <point x="296" y="729" type="line"/>
      <point x="355" y="803"/>
      <point x="525" y="861"/>
      <point x="597" y="861" type="curve" smooth="yes"/>
      <point x="728" y="861"/>
      <point x="780" y="788"/>
      <point x="780" y="600" type="curve" smooth="yes"/>
      <point x="780" y="0" type="line"/>
      <point x="965" y="0" type="line"/>
      <point x="965" y="660" type="line" smooth="yes"/>
      <point x="965" y="907"/>
      <point x="802" y="1017"/>
      <point x="621" y="1017" type="curve" smooth="yes"/>
      <point x="507" y="1017"/>
      <point x="386" y="970"/>
      <point x="296" y="888" type="curve"/>
      <point x="296" y="1490" type="line"/>
      <point x="110" y="1490" type="line"/>
    </contour>
    <contour>
      <point x="231" y="1623" type="curve" smooth="yes"/>
      <point x="233" y="1623"/>
      <point x="233" y="1623"/>
      <point x="234" y="1624" type="curve" smooth="yes"/>
      <point x="539" y="1830" type="line"/>
      <point x="848" y="1624" type="line" smooth="yes"/>
      <point x="849" y="1623"/>
      <point x="850" y="1623"/>
      <point x="851" y="1623" type="curve" smooth="yes"/>
      <point x="852" y="1623"/>
      <point x="853" y="1624"/>
      <point x="853" y="1625" type="curve"/>
      <point x="853" y="1627" type="line"/>
      <point x="579" y="2034" type="line" smooth="yes"/>
      <point x="573" y="2043"/>
      <point x="554" y="2049"/>
      <point x="539" y="2049" type="curve" smooth="yes"/>
      <point x="525" y="2049"/>
      <point x="509" y="2043"/>
      <point x="502" y="2034" type="curve"/>
      <point x="226" y="1627" type="line"/>
      <point x="225" y="1627"/>
      <point x="225" y="1626"/>
      <point x="225" y="1625" type="curve" smooth="yes"/>
      <point x="225" y="1624"/>
      <point x="227" y="1623"/>
    </contour>
  </outline>
</glyph>
<glyph name="hbar" format="1">
  <advance width="1070"/>
  <unicode hex="0127"/>
  <outline>
    <contour>
      <point x="111" y="0" type="line"/>
      <point x="297" y="0" type="line"/>
      <point x="297" y="730" type="line"/>
      <point x="355" y="803"/>
      <point x="526" y="862"/>
      <point x="599" y="862" type="curve" smooth="yes"/>
      <point x="730" y="862"/>
      <point x="781" y="787"/>
      <point x="781" y="600" type="curve" smooth="yes"/>
      <point x="781" y="0" type="line"/>
      <point x="965" y="0" type="line"/>
      <point x="965" y="661" type="line" smooth="yes"/>
      <point x="965" y="906"/>
      <point x="801" y="1017"/>
      <point x="621" y="1017" type="curve" smooth="yes"/>
      <point x="508" y="1017"/>
      <point x="387" y="971"/>
      <point x="297" y="889" type="curve"/>
      <point x="297" y="1191" type="line"/>
      <point x="593" y="1191" type="line"/>
      <point x="593" y="1320" type="line"/>
      <point x="297" y="1320" type="line"/>
      <point x="297" y="1491" type="line"/>
      <point x="111" y="1491" type="line"/>
      <point x="111" y="1320" type="line"/>
      <point x="0" y="1320" type="line"/>
      <point x="0" y="1191" type="line"/>
      <point x="111" y="1191" type="line"/>
    </contour>
  </outline>
</glyph>
<glyph name="Itilde" format="1">
  <advance width="445"/>
  <unicode hex="0128"/>
  <outline>
    <contour>
      <point x="344" y="1668" type="curve" smooth="yes"/>
      <point x="448" y="1668"/>
      <point x="519" y="1726"/>
      <point x="579" y="1813" type="curve"/>
      <point x="583" y="1821"/>
      <point x="584" y="1824"/>
      <point x="584" y="1828" type="curve" smooth="yes"/>
      <point x="584" y="1837"/>
      <point x="579" y="1841"/>
      <point x="571" y="1841" type="curve" smooth="yes"/>
      <point x="554" y="1841"/>
      <point x="521" y="1796"/>
      <point x="460" y="1796" type="curve" smooth="yes"/>
      <point x="373" y="1796"/>
      <point x="211" y="1884"/>
      <point x="81" y="1884" type="curve" smooth="yes"/>
      <point x="-15" y="1884"/>
      <point x="-78" y="1826"/>
      <point x="-131" y="1739" type="curve"/>
      <point x="-137" y="1733"/>
      <point x="-138" y="1729"/>
      <point x="-138" y="1724" type="curve" smooth="yes"/>
      <point x="-138" y="1717"/>
      <point x="-131" y="1711"/>
      <point x="-123" y="1711" type="curve" smooth="yes"/>
      <point x="-107" y="1711"/>
      <point x="-72" y="1756"/>
      <point x="-14" y="1756" type="curve" smooth="yes"/>
      <point x="103" y="1756"/>
      <point x="249" y="1668"/>
    </contour>
    <contour>
      <point x="123" y="0" type="line"/>
      <point x="322" y="0" type="line"/>
      <point x="322" y="1515" type="line"/>
      <point x="123" y="1515" type="line"/>
    </contour>
  </outline>
</glyph>
<glyph name="Ibreve" format="1">
  <advance width="444"/>
  <unicode hex="012C"/>
  <outline>
    <contour>
      <point x="223" y="1668" type="curve" smooth="yes"/>
      <point x="339" y="1668"/>
      <point x="456" y="1747"/>
      <point x="462" y="1907" type="curve"/>
      <point x="353" y="1907" type="line"/>
      <point x="344" y="1825"/>
      <point x="282" y="1783"/>
      <point x="222" y="1783" type="curve" smooth="yes"/>
      <point x="161" y="1783"/>
      <point x="100" y="1825"/>
      <point x="91" y="1907" type="curve"/>
      <point x="-18" y="1907" type="line"/>
      <point x="-11" y="1747"/>
      <point x="106" y="1668"/>
    </contour>
    <contour>
      <point x="123" y="0" type="line"/>
      <point x="322" y="0" type="line"/>
      <point x="322" y="1515" type="line"/>
      <point x="123" y="1515" type="line"/>
    </contour>
  </outline>
</glyph>
<glyph name="IJ" format="1">
  <advance width="1074"/>
  <unicode hex="0132"/>
  <outline>
    <contour>
      <point x="8" y="-394" type="line"/>
      <point x="340" y="-393"/>
      <point x="480" y="-289"/>
      <point x="480" y="-44" type="curve" smooth="yes"/>
      <point x="480" y="1514" type="line"/>
      <point x="282" y="1514" type="line"/>
      <point x="282" y="23" type="line" smooth="yes"/>
      <point x="282" y="-177"/>
      <point x="250" y="-240"/>
      <point x="8" y="-240" type="curve"/>
    </contour>
    <contour>
      <point x="754" y="0" type="line"/>
      <point x="953" y="0" type="line"/>
      <point x="953" y="1514" type="line"/>
      <point x="754" y="1514" type="line"/>
    </contour>
  </outline>
</glyph>
<glyph name="Lcommaaccent" format="1">
  <advance width="1065"/>
  <unicode hex="013B"/>
  <outline>
    <contour>
      <point x="446" y="-604" type="line"/>
      <point x="555" y="-604"/>
      <point x="692" y="-412"/>
      <point x="692" y="-278" type="curve" smooth="yes"/>
      <point x="692" y="-177"/>
      <point x="616" y="-132"/>
      <point x="543" y="-132" type="curve" smooth="yes"/>
      <point x="473" y="-132"/>
      <point x="406" y="-178"/>
      <point x="406" y="-269" type="curve" smooth="yes"/>
      <point x="406" y="-321"/>
      <point x="439" y="-374"/>
      <point x="510" y="-392" type="curve"/>
      <point x="510" y="-471"/>
      <point x="484" y="-523"/>
      <point x="421" y="-578" type="curve"/>
    </contour>
    <contour>
      <point x="133" y="0" type="line"/>
      <point x="981" y="0" type="line"/>
      <point x="981" y="180" type="line"/>
      <point x="332" y="180" type="line"/>
      <point x="332" y="1517" type="line"/>
      <point x="133" y="1517" type="line"/>
    </contour>
  </outline>
</glyph>
<glyph name="lcommaaccent" format="1">
  <advance width="641"/>
  <unicode hex="013C"/>
  <outline>
    <contour>
      <point x="409" y="-18" type="curve" smooth="yes"/>
      <point x="479" y="-18"/>
      <point x="550" y="0"/>
      <point x="609" y="36" type="curve"/>
      <point x="609" y="188" type="line"/>
      <point x="550" y="157"/>
      <point x="485" y="130"/>
      <point x="431" y="130" type="curve" smooth="yes"/>
      <point x="366" y="130"/>
      <point x="314" y="172"/>
      <point x="314" y="303" type="curve" smooth="yes"/>
      <point x="314" y="1490" type="line"/>
      <point x="130" y="1490" type="line"/>
      <point x="130" y="274" type="line" smooth="yes"/>
      <point x="130" y="73"/>
      <point x="264" y="-18"/>
    </contour>
    <contour>
      <point x="272" y="-623" type="line"/>
      <point x="382" y="-623"/>
      <point x="519" y="-433"/>
      <point x="519" y="-297" type="curve" smooth="yes"/>
      <point x="519" y="-198"/>
      <point x="443" y="-151"/>
      <point x="370" y="-151" type="curve" smooth="yes"/>
      <point x="300" y="-151"/>
      <point x="233" y="-199"/>
      <point x="233" y="-290" type="curve" smooth="yes"/>
      <point x="233" y="-342"/>
      <point x="265" y="-393"/>
      <point x="336" y="-413" type="curve"/>
      <point x="336" y="-491"/>
      <point x="311" y="-544"/>
      <point x="248" y="-599" type="curve"/>
    </contour>
  </outline>
</glyph>
<glyph name="lcaron" format="1">
  <advance width="640"/>
  <unicode hex="013E"/>
  <outline>
    <contour>
      <point x="407" y="-18" type="curve" smooth="yes"/>
      <point x="478" y="-18"/>
      <point x="548" y="0"/>
      <point x="606" y="36" type="curve"/>
      <point x="606" y="189" type="line"/>
      <point x="548" y="157"/>
      <point x="483" y="130"/>
      <point x="430" y="130" type="curve" smooth="yes"/>
      <point x="364" y="130"/>
      <point x="314" y="172"/>
      <point x="314" y="303" type="curve" smooth="yes"/>
      <point x="314" y="1490" type="line"/>
      <point x="127" y="1490" type="line"/>
      <point x="127" y="274" type="line" smooth="yes"/>
      <point x="127" y="73"/>
      <point x="262" y="-18"/>
    </contour>
    <contour>
      <point x="858" y="1018" type="line"/>
      <point x="968" y="1018"/>
      <point x="1105" y="1210"/>
      <point x="1105" y="1344" type="curve" smooth="yes"/>
      <point x="1105" y="1444"/>
      <point x="1029" y="1490"/>
      <point x="957" y="1490" type="curve" smooth="yes"/>
      <point x="887" y="1490"/>
      <point x="820" y="1443"/>
      <point x="820" y="1353" type="curve" smooth="yes"/>
      <point x="820" y="1301"/>
      <point x="852" y="1249"/>
      <point x="923" y="1229" type="curve"/>
      <point x="923" y="1150"/>
      <point x="897" y="1098"/>
      <point x="834" y="1042" type="curve"/>
    </contour>
  </outline>
</glyph>
<glyph name="Nacute" format="1">
  <advance width="1654"/>
  <unicode hex="0143"/>
  <outline>
    <contour>
      <point x="131" y="0" type="line"/>
      <point x="319" y="0" type="line"/>
      <point x="319" y="1193" type="line"/>
      <point x="1353" y="0" type="line"/>
      <point x="1523" y="0" type="line"/>
      <point x="1523" y="1515" type="line"/>
      <point x="1331" y="1515" type="line"/>
      <point x="1331" y="310" type="line"/>
      <point x="290" y="1515" type="line"/>
      <point x="131" y="1515" type="line"/>
    </contour>
    <contour>
      <point x="688" y="1668" type="curve" smooth="yes"/>
      <point x="692" y="1668"/>
      <point x="703" y="1674"/>
      <point x="712" y="1689" type="curve"/>
      <point x="941" y="1980" type="line" smooth="yes"/>
      <point x="965" y="2011"/>
      <point x="977" y="2041"/>
      <point x="977" y="2065" type="curve" smooth="yes"/>
      <point x="977" y="2118"/>
      <point x="930" y="2152"/>
      <point x="882" y="2152" type="curve" smooth="yes"/>
      <point x="841" y="2152"/>
      <point x="799" y="2128"/>
      <point x="781" y="2065" type="curve"/>
      <point x="680" y="1703" type="line" smooth="yes"/>
      <point x="678" y="1696"/>
      <point x="677" y="1688"/>
      <point x="677" y="1683" type="curve" smooth="yes"/>
      <point x="677" y="1674"/>
      <point x="680" y="1668"/>
    </contour>
  </outline>
</glyph>
<glyph name="Ncommaaccent" format="1">
  <advance width="1654"/>
  <unicode hex="0145"/>
  <outline>
    <contour>
      <point x="131" y="0" type="line"/>
      <point x="319" y="0" type="line"/>
      <point x="319" y="1194" type="line"/>
      <point x="1353" y="0" type="line"/>
      <point x="1523" y="0" type="line"/>
      <point x="1523" y="1517" type="line"/>
      <point x="1331" y="1517" type="line"/>
      <point x="1331" y="312" type="line"/>
      <point x="290" y="1517" type="line"/>
      <point x="131" y="1517" type="line"/>
    </contour>
    <contour>
      <point x="723" y="-604" type="line"/>
      <point x="831" y="-604"/>
      <point x="967" y="-412"/>
      <point x="967" y="-278" type="curve" smooth="yes"/>
      <point x="967" y="-177"/>
      <point x="893" y="-132"/>
      <point x="822" y="-132" type="curve" smooth="yes"/>
      <point x="751" y="-132"/>
      <point x="684" y="-178"/>
      <point x="684" y="-269" type="curve" smooth="yes"/>
      <point x="684" y="-321"/>
      <point x="717" y="-374"/>
      <point x="787" y="-392" type="curve"/>
      <point x="787" y="-471"/>
      <point x="762" y="-523"/>
      <point x="699" y="-578" type="curve"/>
    </contour>
  </outline>
</glyph>
<glyph name="ncommaaccent" format="1">
  <advance width="1052"/>
  <unicode hex="0146"/>
  <outline>
    <contour>
      <point x="107" y="0" type="line"/>
      <point x="292" y="0" type="line"/>
      <point x="292" y="710" type="line"/>
      <point x="347" y="788"/>
      <point x="485" y="868"/>
      <point x="599" y="868" type="curve" smooth="yes"/>
      <point x="691" y="868"/>
      <point x="765" y="815"/>
      <point x="765" y="676" type="curve" smooth="yes"/>
      <point x="765" y="0" type="line"/>
      <point x="949" y="0" type="line"/>
      <point x="949" y="680" type="line" smooth="yes"/>
      <point x="949" y="880"/>
      <point x="820" y="1016"/>
      <point x="627" y="1016" type="curve" smooth="yes"/>
      <point x="569" y="1016"/>
      <point x="428" y="1007"/>
      <point x="288" y="853" type="curve"/>
      <point x="288" y="997" type="line"/>
      <point x="107" y="997" type="line"/>
    </contour>
    <contour>
      <point x="424" y="-604" type="line"/>
      <point x="532" y="-604"/>
      <point x="668" y="-413"/>
      <point x="668" y="-279" type="curve" smooth="yes"/>
      <point x="668" y="-179"/>
      <point x="594" y="-132"/>
      <point x="523" y="-132" type="curve" smooth="yes"/>
      <point x="452" y="-132"/>
      <point x="386" y="-180"/>
      <point x="386" y="-270" type="curve" smooth="yes"/>
      <point x="386" y="-323"/>
      <point x="418" y="-374"/>
      <point x="488" y="-394" type="curve"/>
      <point x="488" y="-472"/>
      <point x="463" y="-524"/>
      <point x="400" y="-581" type="curve"/>
    </contour>
  </outline>
</glyph>
<glyph name="ncaron" format="1">
  <advance width="1052"/>
  <unicode hex="0148"/>
  <outline>
    <contour>
      <point x="107" y="0" type="line"/>
      <point x="292" y="0" type="line"/>
      <point x="292" y="711" type="line"/>
      <point x="347" y="789"/>
      <point x="485" y="869"/>
      <point x="599" y="869" type="curve" smooth="yes"/>
      <point x="691" y="869"/>
      <point x="765" y="817"/>
      <point x="765" y="675" type="curve" smooth="yes"/>
      <point x="765" y="0" type="line"/>
      <point x="949" y="0" type="line"/>
      <point x="949" y="681" type="line" smooth="yes"/>
      <point x="949" y="880"/>
      <point x="820" y="1017"/>
      <point x="627" y="1017" type="curve" smooth="yes"/>
      <point x="569" y="1017"/>
      <point x="428" y="1006"/>
      <point x="288" y="855" type="curve"/>
      <point x="288" y="999" type="line"/>
      <point x="107" y="999" type="line"/>
    </contour>
    <contour>
      <point x="527" y="1149" type="curve" smooth="yes"/>
      <point x="541" y="1149"/>
      <point x="558" y="1157"/>
      <point x="565" y="1164" type="curve"/>
      <point x="841" y="1572" type="line"/>
      <point x="842" y="1572"/>
      <point x="842" y="1573"/>
      <point x="842" y="1574" type="curve" smooth="yes"/>
      <point x="842" y="1575"/>
      <point x="841" y="1576"/>
      <point x="839" y="1576" type="curve" smooth="yes"/>
      <point x="838" y="1576"/>
      <point x="838" y="1576"/>
      <point x="834" y="1575" type="curve"/>
      <point x="527" y="1369" type="line"/>
      <point x="222" y="1575" type="line"/>
      <point x="219" y="1576"/>
      <point x="217" y="1576"/>
      <point x="216" y="1576" type="curve" smooth="yes"/>
      <point x="214" y="1576"/>
      <point x="213" y="1575"/>
      <point x="213" y="1574" type="curve"/>
      <point x="213" y="1572" type="line"/>
      <point x="488" y="1164" type="line"/>
      <point x="496" y="1157"/>
      <point x="512" y="1149"/>
    </contour>
  </outline>
</glyph>
<glyph name="omacron" format="1">
  <advance width="1242"/>
  <unicode hex="014D"/>
  <outline>
    <contour>
      <point x="354" y="1150" type="line"/>
      <point x="354" y="1302" type="line"/>
      <point x="887" y="1302" type="line"/>
      <point x="887" y="1150" type="line"/>
    </contour>
    <contour>
      <point x="621" y="-18" type="curve" smooth="yes"/>
      <point x="914" y="-18"/>
      <point x="1160" y="188"/>
      <point x="1160" y="501" type="curve" smooth="yes"/>
      <point x="1160" y="811"/>
      <point x="914" y="1018"/>
      <point x="621" y="1018" type="curve" smooth="yes"/>
      <point x="328" y="1018"/>
      <point x="84" y="811"/>
      <point x="84" y="501" type="curve" smooth="yes"/>
      <point x="84" y="188"/>
      <point x="328" y="-18"/>
    </contour>
    <contour>
      <point x="621" y="132" type="curve" smooth="yes"/>
      <point x="830" y="132"/>
      <point x="974" y="299"/>
      <point x="974" y="498" type="curve" smooth="yes"/>
      <point x="974" y="702"/>
      <point x="830" y="863"/>
      <point x="621" y="863" type="curve" smooth="yes"/>
      <point x="412" y="863"/>
      <point x="270" y="702"/>
      <point x="270" y="498" type="curve" smooth="yes"/>
      <point x="270" y="299"/>
      <point x="412" y="132"/>
    </contour>
  </outline>
</glyph>
<glyph name="ohungarumlaut" format="1">
  <advance width="1242"/>
  <unicode hex="0151"/>
  <outline>
    <contour>
      <point x="297" y="1148" type="curve" smooth="yes"/>
      <point x="304" y="1148"/>
      <point x="312" y="1156"/>
      <point x="322" y="1170" type="curve" smooth="yes"/>
      <point x="551" y="1461" type="line" smooth="yes"/>
      <point x="576" y="1492"/>
      <point x="587" y="1522"/>
      <point x="587" y="1546" type="curve" smooth="yes"/>
      <point x="587" y="1599"/>
      <point x="541" y="1633"/>
      <point x="494" y="1633" type="curve" smooth="yes"/>
      <point x="452" y="1633"/>
      <point x="411" y="1608"/>
      <point x="392" y="1546" type="curve"/>
      <point x="292" y="1184" type="line" smooth="yes"/>
      <point x="290" y="1177"/>
      <point x="285" y="1169"/>
      <point x="285" y="1163" type="curve" smooth="yes"/>
      <point x="285" y="1156"/>
      <point x="292" y="1148"/>
    </contour>
    <contour>
      <point x="666" y="1148" type="curve" smooth="yes"/>
      <point x="672" y="1148"/>
      <point x="683" y="1156"/>
      <point x="694" y="1170" type="curve" smooth="yes"/>
      <point x="924" y="1461" type="line" smooth="yes"/>
      <point x="948" y="1492"/>
      <point x="957" y="1522"/>
      <point x="957" y="1546" type="curve" smooth="yes"/>
      <point x="957" y="1599"/>
      <point x="910" y="1633"/>
      <point x="863" y="1633" type="curve" smooth="yes"/>
      <point x="822" y="1633"/>
      <point x="781" y="1608"/>
      <point x="761" y="1546" type="curve"/>
      <point x="661" y="1184" type="line"/>
      <point x="658" y="1177"/>
      <point x="658" y="1169"/>
      <point x="658" y="1163" type="curve" smooth="yes"/>
      <point x="658" y="1156"/>
      <point x="661" y="1148"/>
    </contour>
    <contour>
      <point x="621" y="132" type="curve" smooth="yes"/>
      <point x="412" y="132"/>
      <point x="270" y="298"/>
      <point x="270" y="498" type="curve" smooth="yes"/>
      <point x="270" y="700"/>
      <point x="412" y="863"/>
      <point x="621" y="863" type="curve" smooth="yes"/>
      <point x="830" y="863"/>
      <point x="974" y="700"/>
      <point x="974" y="498" type="curve" smooth="yes"/>
      <point x="974" y="298"/>
      <point x="830" y="132"/>
    </contour>
    <contour>
      <point x="621" y="-19" type="curve" smooth="yes"/>
      <point x="914" y="-19"/>
      <point x="1160" y="186"/>
      <point x="1160" y="500" type="curve" smooth="yes"/>
      <point x="1160" y="811"/>
      <point x="914" y="1016"/>
      <point x="621" y="1016" type="curve" smooth="yes"/>
      <point x="328" y="1016"/>
      <point x="84" y="811"/>
      <point x="84" y="500" type="curve" smooth="yes"/>
      <point x="84" y="186"/>
      <point x="328" y="-19"/>
    </contour>
  </outline>
</glyph>
<glyph name="Rcommaaccent" format="1">
  <advance width="1136"/>
  <unicode hex="0156"/>
  <outline>
    <contour>
      <point x="134" y="0" type="line"/>
      <point x="332" y="0" type="line"/>
      <point x="332" y="696" type="line"/>
      <point x="436" y="696" type="line" smooth="yes"/>
      <point x="456" y="696"/>
      <point x="476" y="697"/>
      <point x="495" y="697" type="curve" smooth="yes"/>
      <point x="497" y="697" type="line"/>
      <point x="596" y="462"/>
      <point x="747" y="149"/>
      <point x="839" y="0" type="curve"/>
      <point x="1039" y="0" type="line"/>
      <point x="1040" y="52" type="line"/>
      <point x="917" y="250"/>
      <point x="780" y="486"/>
      <point x="686" y="724" type="curve"/>
      <point x="899" y="788"/>
      <point x="991" y="932"/>
      <point x="991" y="1119" type="curve" smooth="yes"/>
      <point x="991" y="1402"/>
      <point x="768" y="1517"/>
      <point x="486" y="1517" type="curve" smooth="yes"/>
      <point x="134" y="1517" type="line"/>
    </contour>
    <contour>
      <point x="478" y="-604" type="line"/>
      <point x="587" y="-604"/>
      <point x="724" y="-412"/>
      <point x="724" y="-278" type="curve" smooth="yes"/>
      <point x="724" y="-177"/>
      <point x="648" y="-132"/>
      <point x="575" y="-132" type="curve" smooth="yes"/>
      <point x="507" y="-132"/>
      <point x="438" y="-178"/>
      <point x="438" y="-269" type="curve" smooth="yes"/>
      <point x="438" y="-321"/>
      <point x="472" y="-374"/>
      <point x="542" y="-392" type="curve"/>
      <point x="542" y="-471"/>
      <point x="516" y="-523"/>
      <point x="453" y="-578" type="curve"/>
    </contour>
    <contour>
      <point x="332" y="857" type="line"/>
      <point x="332" y="1353" type="line"/>
      <point x="464" y="1353" type="line" smooth="yes"/>
      <point x="734" y="1353"/>
      <point x="783" y="1232"/>
      <point x="783" y="1108" type="curve" smooth="yes"/>
      <point x="783" y="880"/>
      <point x="601" y="857"/>
      <point x="382" y="857" type="curve" smooth="yes"/>
    </contour>
  </outline>
</glyph>
<glyph name="Sacute" format="1">
  <advance width="1026"/>
  <unicode hex="015A"/>
  <outline>
    <contour>
      <point x="479" y="-14" type="curve" smooth="yes"/>
      <point x="714" y="-14"/>
      <point x="943" y="124"/>
      <point x="943" y="390" type="curve" smooth="yes"/>
      <point x="943" y="534"/>
      <point x="890" y="643"/>
      <point x="707" y="770" type="curve"/>
      <point x="440" y="948" type="line" smooth="yes"/>
      <point x="345" y="1012"/>
      <point x="290" y="1092"/>
      <point x="290" y="1170" type="curve" smooth="yes"/>
      <point x="290" y="1273"/>
      <point x="378" y="1359"/>
      <point x="553" y="1359" type="curve" smooth="yes"/>
      <point x="701" y="1359"/>
      <point x="853" y="1248"/>
      <point x="884" y="1224" type="curve"/>
      <point x="884" y="1439" type="line"/>
      <point x="853" y="1466"/>
      <point x="682" y="1537"/>
      <point x="535" y="1537" type="curve" smooth="yes"/>
      <point x="238" y="1537"/>
      <point x="75" y="1346"/>
      <point x="75" y="1149" type="curve" smooth="yes"/>
      <point x="75" y="1034"/>
      <point x="131" y="915"/>
      <point x="254" y="830" type="curve" smooth="yes"/>
      <point x="580" y="605" type="line" smooth="yes"/>
      <point x="725" y="505"/>
      <point x="745" y="446"/>
      <point x="745" y="376" type="curve" smooth="yes"/>
      <point x="745" y="238"/>
      <point x="632" y="167"/>
      <point x="494" y="167" type="curve" smooth="yes"/>
      <point x="306" y="167"/>
      <point x="205" y="267"/>
      <point x="107" y="343" type="curve"/>
      <point x="107" y="123" type="line"/>
      <point x="206" y="31"/>
      <point x="343" y="-14"/>
    </contour>
    <contour>
      <point x="369" y="1669" type="curve" smooth="yes"/>
      <point x="373" y="1669"/>
      <point x="385" y="1675"/>
      <point x="394" y="1689" type="curve"/>
      <point x="623" y="1980" type="line"/>
      <point x="647" y="2012"/>
      <point x="658" y="2041"/>
      <point x="658" y="2066" type="curve" smooth="yes"/>
      <point x="658" y="2120"/>
      <point x="611" y="2152"/>
      <point x="564" y="2152" type="curve" smooth="yes"/>
      <point x="522" y="2152"/>
      <point x="481" y="2129"/>
      <point x="462" y="2066" type="curve"/>
      <point x="362" y="1703" type="line" smooth="yes"/>
      <point x="360" y="1697"/>
      <point x="358" y="1688"/>
      <point x="358" y="1684" type="curve" smooth="yes"/>
      <point x="358" y="1675"/>
      <point x="362" y="1669"/>
    </contour>
  </outline>
</glyph>
<glyph name="sacute" format="1">
  <advance width="863"/>
  <unicode hex="015B"/>
  <outline>
    <contour>
      <point x="440" y="-19" type="curve" smooth="yes"/>
      <point x="639" y="-19"/>
      <point x="764" y="104"/>
      <point x="764" y="247" type="curve" smooth="yes"/>
      <point x="764" y="332"/>
      <point x="710" y="429"/>
      <point x="595" y="501" type="curve"/>
      <point x="405" y="616" type="line"/>
      <point x="320" y="673"/>
      <point x="297" y="718"/>
      <point x="297" y="755" type="curve" smooth="yes"/>
      <point x="297" y="842"/>
      <point x="373" y="871"/>
      <point x="459" y="871" type="curve" smooth="yes"/>
      <point x="548" y="871"/>
      <point x="636" y="832"/>
      <point x="691" y="803" type="curve"/>
      <point x="730" y="945" type="line"/>
      <point x="658" y="988"/>
      <point x="540" y="1016"/>
      <point x="448" y="1016" type="curve" smooth="yes"/>
      <point x="226" y="1016"/>
      <point x="109" y="891"/>
      <point x="109" y="755" type="curve" smooth="yes"/>
      <point x="109" y="662"/>
      <point x="150" y="565"/>
      <point x="272" y="496" type="curve" smooth="yes"/>
      <point x="490" y="371" type="line"/>
      <point x="564" y="326"/>
      <point x="586" y="282"/>
      <point x="586" y="242" type="curve" smooth="yes"/>
      <point x="586" y="168"/>
      <point x="522" y="135"/>
      <point x="438" y="135" type="curve" smooth="yes"/>
      <point x="330" y="135"/>
      <point x="205" y="180"/>
      <point x="126" y="235" type="curve"/>
      <point x="107" y="89" type="line"/>
      <point x="177" y="20"/>
      <point x="313" y="-19"/>
    </contour>
    <contour>
      <point x="269" y="1148" type="curve" smooth="yes"/>
      <point x="273" y="1148"/>
      <point x="284" y="1156"/>
      <point x="293" y="1170" type="curve"/>
      <point x="522" y="1461" type="line" smooth="yes"/>
      <point x="546" y="1492"/>
      <point x="558" y="1522"/>
      <point x="558" y="1546" type="curve" smooth="yes"/>
      <point x="558" y="1599"/>
      <point x="510" y="1633"/>
      <point x="463" y="1633" type="curve" smooth="yes"/>
      <point x="422" y="1633"/>
      <point x="380" y="1608"/>
      <point x="362" y="1546" type="curve"/>
      <point x="261" y="1184" type="line" smooth="yes"/>
      <point x="259" y="1177"/>
      <point x="258" y="1169"/>
      <point x="258" y="1163" type="curve" smooth="yes"/>
      <point x="258" y="1156"/>
      <point x="261" y="1148"/>
    </contour>
  </outline>
</glyph>
<glyph name="Scedilla" format="1">
  <advance width="1026"/>
  <unicode hex="015E"/>
  <outline>
    <contour>
      <point x="493" y="-439" type="curve" smooth="yes"/>
      <point x="601" y="-439"/>
      <point x="707" y="-400"/>
      <point x="707" y="-288" type="curve" smooth="yes"/>
      <point x="707" y="-196"/>
      <point x="627" y="-128"/>
      <point x="507" y="-128" type="curve"/>
      <point x="545" y="-10" type="line"/>
      <point x="756" y="13"/>
      <point x="943" y="147"/>
      <point x="943" y="389" type="curve" smooth="yes"/>
      <point x="943" y="533"/>
      <point x="890" y="642"/>
      <point x="707" y="768" type="curve"/>
      <point x="440" y="948" type="line"/>
      <point x="345" y="1011"/>
      <point x="290" y="1092"/>
      <point x="290" y="1169" type="curve" smooth="yes"/>
      <point x="290" y="1271"/>
      <point x="378" y="1358"/>
      <point x="553" y="1358" type="curve" smooth="yes"/>
      <point x="701" y="1358"/>
      <point x="853" y="1246"/>
      <point x="884" y="1224" type="curve"/>
      <point x="884" y="1439" type="line"/>
      <point x="853" y="1466"/>
      <point x="682" y="1536"/>
      <point x="535" y="1536" type="curve" smooth="yes"/>
      <point x="238" y="1536"/>
      <point x="75" y="1345"/>
      <point x="75" y="1149" type="curve" smooth="yes"/>
      <point x="75" y="1033"/>
      <point x="131" y="913"/>
      <point x="254" y="829" type="curve" smooth="yes"/>
      <point x="580" y="605" type="line" smooth="yes"/>
      <point x="725" y="506"/>
      <point x="745" y="446"/>
      <point x="745" y="375" type="curve" smooth="yes"/>
      <point x="745" y="238"/>
      <point x="632" y="165"/>
      <point x="494" y="165" type="curve" smooth="yes"/>
      <point x="306" y="165"/>
      <point x="205" y="265"/>
      <point x="107" y="343" type="curve"/>
      <point x="107" y="121" type="line"/>
      <point x="203" y="33"/>
      <point x="334" y="-11"/>
      <point x="464" y="-14" type="curve"/>
      <point x="381" y="-255" type="line"/>
      <point x="407" y="-255"/>
      <point x="570" y="-246"/>
      <point x="570" y="-322" type="curve" smooth="yes"/>
      <point x="570" y="-377"/>
      <point x="513" y="-391"/>
      <point x="454" y="-391" type="curve" smooth="yes"/>
      <point x="389" y="-391"/>
      <point x="321" y="-374"/>
      <point x="295" y="-374" type="curve" smooth="yes"/>
      <point x="287" y="-374"/>
      <point x="282" y="-377"/>
      <point x="282" y="-380" type="curve" smooth="yes"/>
      <point x="282" y="-384"/>
      <point x="290" y="-390"/>
      <point x="294" y="-395" type="curve"/>
      <point x="339" y="-420"/>
      <point x="417" y="-439"/>
    </contour>
  </outline>
</glyph>
<glyph name="Tcaron" format="1">
  <advance width="1360"/>
  <unicode hex="0164"/>
  <outline>
    <contour>
      <point x="679" y="1669" type="curve" smooth="yes"/>
      <point x="694" y="1669"/>
      <point x="710" y="1675"/>
      <point x="718" y="1684" type="curve"/>
      <point x="993" y="2091" type="line"/>
      <point x="994" y="2091"/>
      <point x="994" y="2093"/>
      <point x="994" y="2094" type="curve" smooth="yes"/>
      <point x="994" y="2095"/>
      <point x="993" y="2096"/>
      <point x="991" y="2096" type="curve" smooth="yes"/>
      <point x="990" y="2096"/>
      <point x="990" y="2096"/>
      <point x="987" y="2095" type="curve"/>
      <point x="679" y="1889" type="line"/>
      <point x="374" y="2095" type="line"/>
      <point x="371" y="2096"/>
      <point x="369" y="2096"/>
      <point x="368" y="2096" type="curve" smooth="yes"/>
      <point x="367" y="2096"/>
      <point x="366" y="2095"/>
      <point x="366" y="2094" type="curve"/>
      <point x="366" y="2091" type="line"/>
      <point x="641" y="1684" type="line"/>
      <point x="648" y="1675"/>
      <point x="664" y="1669"/>
    </contour>
    <contour>
      <point x="579" y="0" type="line"/>
      <point x="778" y="0" type="line"/>
      <point x="778" y="1340" type="line"/>
      <point x="1319" y="1340" type="line"/>
      <point x="1319" y="1516" type="line"/>
      <point x="40" y="1516" type="line"/>
      <point x="40" y="1340" type="line"/>
      <point x="579" y="1340" type="line"/>
    </contour>
  </outline>
</glyph>
<glyph name="tcaron" format="1">
  <advance width="775"/>
  <unicode hex="0165"/>
  <outline>
    <contour>
      <point x="466" y="-21" type="curve" smooth="yes"/>
      <point x="558" y="-21"/>
      <point x="652" y="5"/>
      <point x="728" y="62" type="curve"/>
      <point x="728" y="220" type="line"/>
      <point x="656" y="172"/>
      <point x="566" y="129"/>
      <point x="493" y="129" type="curve" smooth="yes"/>
      <point x="417" y="129"/>
      <point x="357" y="163"/>
      <point x="357" y="264" type="curve" smooth="yes"/>
      <point x="357" y="859" type="line"/>
      <point x="676" y="859" type="line"/>
      <point x="676" y="996" type="line"/>
      <point x="357" y="996" type="line"/>
      <point x="357" y="1238" type="line"/>
      <point x="335" y="1238" type="line"/>
      <point x="18" y="895" type="line"/>
      <point x="12" y="888"/>
      <point x="8" y="880"/>
      <point x="8" y="873" type="curve" smooth="yes"/>
      <point x="8" y="865"/>
      <point x="21" y="859"/>
      <point x="35" y="859" type="curve" smooth="yes"/>
      <point x="171" y="859" type="line"/>
      <point x="171" y="234" type="line" smooth="yes"/>
      <point x="171" y="72"/>
      <point x="310" y="-21"/>
    </contour>
    <contour>
      <point x="972" y="765" type="line"/>
      <point x="1080" y="765"/>
      <point x="1218" y="956"/>
      <point x="1218" y="1092" type="curve" smooth="yes"/>
      <point x="1218" y="1190"/>
      <point x="1144" y="1238"/>
      <point x="1070" y="1238" type="curve" smooth="yes"/>
      <point x="1001" y="1238"/>
      <point x="932" y="1189"/>
      <point x="932" y="1098" type="curve" smooth="yes"/>
      <point x="932" y="1046"/>
      <point x="966" y="995"/>
      <point x="1037" y="976" type="curve"/>
      <point x="1037" y="897"/>
      <point x="1012" y="844"/>
      <point x="948" y="790" type="curve"/>
    </contour>
  </outline>
</glyph>
<glyph name="Utilde" format="1">
  <advance width="1541"/>
  <unicode hex="0168"/>
  <outline>
    <contour>
      <point x="771" y="-20" type="curve" smooth="yes"/>
      <point x="1087" y="-20"/>
      <point x="1406" y="181"/>
      <point x="1406" y="585" type="curve" smooth="yes"/>
      <point x="1406" y="1515" type="line"/>
      <point x="1207" y="1515" type="line"/>
      <point x="1207" y="592" type="line" smooth="yes"/>
      <point x="1207" y="300"/>
      <point x="988" y="154"/>
      <point x="768" y="154" type="curve" smooth="yes"/>
      <point x="548" y="154"/>
      <point x="333" y="300"/>
      <point x="333" y="592" type="curve" smooth="yes"/>
      <point x="333" y="1515" type="line"/>
      <point x="134" y="1515" type="line"/>
      <point x="134" y="584" type="line" smooth="yes"/>
      <point x="134" y="181"/>
      <point x="454" y="-20"/>
    </contour>
    <contour>
      <point x="890" y="1650" type="curve" smooth="yes"/>
      <point x="994" y="1650"/>
      <point x="1066" y="1709"/>
      <point x="1126" y="1795" type="curve"/>
      <point x="1129" y="1803"/>
      <point x="1130" y="1806"/>
      <point x="1130" y="1810" type="curve" smooth="yes"/>
      <point x="1130" y="1819"/>
      <point x="1126" y="1823"/>
      <point x="1118" y="1823" type="curve" smooth="yes"/>
      <point x="1100" y="1823"/>
      <point x="1067" y="1778"/>
      <point x="1007" y="1778" type="curve" smooth="yes"/>
      <point x="920" y="1778"/>
      <point x="757" y="1866"/>
      <point x="627" y="1866" type="curve" smooth="yes"/>
      <point x="530" y="1866"/>
      <point x="468" y="1808"/>
      <point x="415" y="1722" type="curve"/>
      <point x="410" y="1716"/>
      <point x="409" y="1712"/>
      <point x="409" y="1706" type="curve" smooth="yes"/>
      <point x="409" y="1699"/>
      <point x="415" y="1693"/>
      <point x="423" y="1693" type="curve" smooth="yes"/>
      <point x="440" y="1693"/>
      <point x="474" y="1738"/>
      <point x="532" y="1738" type="curve" smooth="yes"/>
      <point x="649" y="1738"/>
      <point x="795" y="1650"/>
    </contour>
  </outline>
</glyph>
<glyph name="utilde" format="1">
  <advance width="1040"/>
  <unicode hex="0169"/>
  <outline>
    <contour>
      <point x="433" y="-19" type="curve" smooth="yes"/>
      <point x="543" y="-19"/>
      <point x="656" y="31"/>
      <point x="746" y="130" type="curve"/>
      <point x="746" y="0" type="line"/>
      <point x="928" y="0" type="line"/>
      <point x="928" y="997" type="line"/>
      <point x="744" y="997" type="line"/>
      <point x="744" y="271" type="line"/>
      <point x="686" y="187"/>
      <point x="571" y="126"/>
      <point x="468" y="126" type="curve" smooth="yes"/>
      <point x="371" y="126"/>
      <point x="289" y="181"/>
      <point x="289" y="324" type="curve" smooth="yes"/>
      <point x="289" y="997" type="line"/>
      <point x="104" y="997" type="line"/>
      <point x="104" y="335" type="line" smooth="yes"/>
      <point x="104" y="101"/>
      <point x="261" y="-19"/>
    </contour>
    <contour>
      <point x="636" y="1131" type="curve" smooth="yes"/>
      <point x="741" y="1131"/>
      <point x="811" y="1190"/>
      <point x="873" y="1276" type="curve"/>
      <point x="875" y="1283"/>
      <point x="877" y="1287"/>
      <point x="877" y="1292" type="curve" smooth="yes"/>
      <point x="877" y="1300"/>
      <point x="873" y="1305"/>
      <point x="864" y="1305" type="curve" smooth="yes"/>
      <point x="847" y="1305"/>
      <point x="814" y="1258"/>
      <point x="754" y="1258" type="curve" smooth="yes"/>
      <point x="666" y="1258"/>
      <point x="504" y="1348"/>
      <point x="372" y="1348" type="curve" smooth="yes"/>
      <point x="277" y="1348"/>
      <point x="216" y="1289"/>
      <point x="161" y="1203" type="curve" smooth="yes"/>
      <point x="157" y="1196"/>
      <point x="154" y="1192"/>
      <point x="154" y="1187" type="curve" smooth="yes"/>
      <point x="154" y="1180"/>
      <point x="162" y="1174"/>
      <point x="170" y="1174" type="curve" smooth="yes"/>
      <point x="187" y="1174"/>
      <point x="221" y="1219"/>
      <point x="278" y="1219" type="curve" smooth="yes"/>
      <point x="396" y="1219"/>
      <point x="542" y="1131"/>
    </contour>
  </outline>
</glyph>
<glyph name="Uhungarumlaut" format="1">
  <advance width="1541"/>
  <unicode hex="0170"/>
  <outline>
    <contour>
      <point x="771" y="-20" type="curve" smooth="yes"/>
      <point x="1087" y="-20"/>
      <point x="1406" y="181"/>
      <point x="1406" y="586" type="curve" smooth="yes"/>
      <point x="1406" y="1515" type="line"/>
      <point x="1207" y="1515" type="line"/>
      <point x="1207" y="592" type="line" smooth="yes"/>
      <point x="1207" y="300"/>
      <point x="988" y="154"/>
      <point x="768" y="154" type="curve" smooth="yes"/>
      <point x="548" y="154"/>
      <point x="333" y="300"/>
      <point x="333" y="592" type="curve" smooth="yes"/>
      <point x="333" y="1515" type="line"/>
      <point x="134" y="1515" type="line"/>
      <point x="134" y="585" type="line" smooth="yes"/>
      <point x="134" y="181"/>
      <point x="454" y="-20"/>
    </contour>
    <contour>
      <point x="444" y="1668" type="curve" smooth="yes"/>
      <point x="451" y="1668"/>
      <point x="459" y="1674"/>
      <point x="469" y="1690" type="curve"/>
      <point x="699" y="1981" type="line"/>
      <point x="724" y="2011"/>
      <point x="734" y="2040"/>
      <point x="734" y="2066" type="curve" smooth="yes"/>
      <point x="734" y="2119"/>
      <point x="686" y="2153"/>
      <point x="641" y="2153" type="curve" smooth="yes"/>
      <point x="599" y="2153"/>
      <point x="557" y="2128"/>
      <point x="538" y="2066" type="curve"/>
      <point x="440" y="1704" type="line"/>
      <point x="436" y="1696"/>
      <point x="432" y="1687"/>
      <point x="432" y="1683" type="curve" smooth="yes"/>
      <point x="432" y="1674"/>
      <point x="440" y="1668"/>
    </contour>
    <contour>
      <point x="813" y="1668" type="curve" smooth="yes"/>
      <point x="819" y="1668"/>
      <point x="830" y="1674"/>
      <point x="841" y="1690" type="curve"/>
      <point x="1071" y="1981" type="line"/>
      <point x="1096" y="2011"/>
      <point x="1104" y="2040"/>
      <point x="1104" y="2066" type="curve" smooth="yes"/>
      <point x="1104" y="2119"/>
      <point x="1057" y="2153"/>
      <point x="1011" y="2153" type="curve" smooth="yes"/>
      <point x="969" y="2153"/>
      <point x="929" y="2128"/>
      <point x="908" y="2066" type="curve"/>
      <point x="809" y="1704" type="line"/>
      <point x="806" y="1696"/>
      <point x="806" y="1687"/>
      <point x="806" y="1683" type="curve" smooth="yes"/>
      <point x="806" y="1674"/>
      <point x="809" y="1668"/>
    </contour>
  </outline>
</glyph>
<glyph name="Uogonek" format="1">
  <advance width="1541"/>
  <unicode hex="0172"/>
  <outline>
    <contour>
      <point x="798" y="-431" type="curve" smooth="yes"/>
      <point x="812" y="-431"/>
      <point x="828" y="-430"/>
      <point x="843" y="-426" type="curve"/>
      <point x="874" y="-302" type="line"/>
      <point x="873" y="-302" type="line"/>
      <point x="744" y="-302"/>
      <point x="679" y="-240"/>
      <point x="679" y="-176" type="curve" smooth="yes"/>
      <point x="679" y="-128"/>
      <point x="721" y="-77"/>
      <point x="799" y="-51" type="curve"/>
      <point x="778" y="-19" type="line"/>
      <point x="1092" y="-16"/>
      <point x="1406" y="185"/>
      <point x="1406" y="587" type="curve" smooth="yes"/>
      <point x="1406" y="1516" type="line"/>
      <point x="1207" y="1516" type="line"/>
      <point x="1207" y="592" type="line" smooth="yes"/>
      <point x="1207" y="301"/>
      <point x="988" y="155"/>
      <point x="768" y="155" type="curve" smooth="yes"/>
      <point x="548" y="155"/>
      <point x="333" y="301"/>
      <point x="333" y="592" type="curve" smooth="yes"/>
      <point x="333" y="1516" type="line"/>
      <point x="134" y="1516" type="line"/>
      <point x="134" y="586" type="line" smooth="yes"/>
      <point x="134" y="215"/>
      <point x="404" y="15"/>
      <point x="695" y="-15" type="curve"/>
      <point x="602" y="-44"/>
      <point x="556" y="-127"/>
      <point x="556" y="-211" type="curve" smooth="yes"/>
      <point x="556" y="-324"/>
      <point x="652" y="-431"/>
    </contour>
  </outline>
</glyph>
<glyph name="uogonek" format="1">
  <advance width="1040"/>
  <unicode hex="0173"/>
  <outline>
    <contour>
      <point x="545" y="-430" type="line"/>
      <point x="559" y="-430"/>
      <point x="575" y="-429"/>
      <point x="590" y="-426" type="curve"/>
      <point x="621" y="-300" type="line"/>
      <point x="619" y="-300" type="line" smooth="yes"/>
      <point x="491" y="-300"/>
      <point x="426" y="-239"/>
      <point x="426" y="-176" type="curve" smooth="yes"/>
      <point x="426" y="-127"/>
      <point x="467" y="-76"/>
      <point x="546" y="-50" type="curve"/>
      <point x="519" y="-8" type="line"/>
      <point x="600" y="11"/>
      <point x="680" y="57"/>
      <point x="746" y="130" type="curve"/>
      <point x="746" y="1" type="line"/>
      <point x="928" y="1" type="line"/>
      <point x="928" y="999" type="line"/>
      <point x="744" y="999" type="line"/>
      <point x="744" y="273" type="line"/>
      <point x="686" y="188"/>
      <point x="571" y="128"/>
      <point x="468" y="128" type="curve" smooth="yes"/>
      <point x="371" y="128"/>
      <point x="289" y="184"/>
      <point x="289" y="326" type="curve" smooth="yes"/>
      <point x="289" y="999" type="line"/>
      <point x="104" y="999" type="line"/>
      <point x="104" y="337" type="line" smooth="yes"/>
      <point x="104" y="103"/>
      <point x="260" y="-16"/>
      <point x="431" y="-17" type="curve"/>
      <point x="345" y="-48"/>
      <point x="303" y="-128"/>
      <point x="303" y="-209" type="curve" smooth="yes"/>
      <point x="303" y="-321"/>
      <point x="399" y="-429"/>
      <point x="545" y="-429" type="curve"/>
    </contour>
  </outline>
</glyph>
<glyph name="zacute" format="1">
  <advance width="937"/>
  <unicode hex="017A"/>
  <outline>
    <contour>
      <point x="78" y="0" type="line"/>
      <point x="846" y="0" type="line"/>
      <point x="846" y="139" type="line"/>
      <point x="341" y="139" type="line"/>
      <point x="861" y="951" type="line"/>
      <point x="842" y="996" type="line"/>
      <point x="108" y="996" type="line"/>
      <point x="108" y="854" type="line"/>
      <point x="588" y="854" type="line"/>
      <point x="68" y="32" type="line"/>
    </contour>
    <contour>
      <point x="321" y="1149" type="curve" smooth="yes"/>
      <point x="327" y="1149"/>
      <point x="337" y="1154"/>
      <point x="346" y="1168" type="curve"/>
      <point x="576" y="1459" type="line"/>
      <point x="600" y="1492"/>
      <point x="612" y="1521"/>
      <point x="612" y="1545" type="curve" smooth="yes"/>
      <point x="612" y="1599"/>
      <point x="564" y="1631"/>
      <point x="517" y="1631" type="curve" smooth="yes"/>
      <point x="476" y="1631"/>
      <point x="434" y="1607"/>
      <point x="415" y="1545" type="curve"/>
      <point x="315" y="1182" type="line"/>
      <point x="313" y="1177"/>
      <point x="312" y="1167"/>
      <point x="312" y="1164" type="curve" smooth="yes"/>
      <point x="312" y="1154"/>
      <point x="315" y="1149"/>
    </contour>
  </outline>
</glyph>
<glyph name="Zdotaccent" format="1">
  <advance width="1443"/>
  <unicode hex="017B"/>
  <outline>
    <contour>
      <point x="102" y="0" type="line"/>
      <point x="1362" y="0" type="line"/>
      <point x="1362" y="169" type="line"/>
      <point x="458" y="169" type="line"/>
      <point x="1359" y="1507" type="line"/>
      <point x="1351" y="1515" type="line"/>
      <point x="151" y="1515" type="line"/>
      <point x="151" y="1352" type="line"/>
      <point x="1003" y="1352" type="line"/>
      <point x="100" y="11" type="line"/>
    </contour>
    <contour>
      <point x="731" y="1668" type="curve" smooth="yes"/>
      <point x="797" y="1668"/>
      <point x="866" y="1710"/>
      <point x="866" y="1796" type="curve" smooth="yes"/>
      <point x="866" y="1884"/>
      <point x="797" y="1929"/>
      <point x="731" y="1929" type="curve" smooth="yes"/>
      <point x="663" y="1929"/>
      <point x="596" y="1885"/>
      <point x="596" y="1796" type="curve" smooth="yes"/>
      <point x="596" y="1710"/>
      <point x="663" y="1668"/>
    </contour>
  </outline>
</glyph>
<glyph name="zdotaccent" format="1">
  <advance width="937"/>
  <unicode hex="017C"/>
  <outline>
    <contour>
      <point x="78" y="0" type="line"/>
      <point x="846" y="0" type="line"/>
      <point x="846" y="139" type="line"/>
      <point x="341" y="139" type="line"/>
      <point x="861" y="951" type="line"/>
      <point x="842" y="996" type="line"/>
      <point x="108" y="996" type="line"/>
      <point x="108" y="857" type="line"/>
      <point x="588" y="857" type="line"/>
      <point x="68" y="33" type="line"/>
    </contour>
    <contour>
      <point x="461" y="1149" type="curve" smooth="yes"/>
      <point x="528" y="1149"/>
      <point x="595" y="1190"/>
      <point x="595" y="1275" type="curve" smooth="yes"/>
      <point x="595" y="1363"/>
      <point x="528" y="1408"/>
      <point x="461" y="1408" type="curve" smooth="yes"/>
      <point x="393" y="1408"/>
      <point x="327" y="1365"/>
      <point x="327" y="1275" type="curve" smooth="yes"/>
      <point x="327" y="1190"/>
      <point x="393" y="1149"/>
    </contour>
  </outline>
</glyph>
<glyph name="zcaron" format="1">
  <advance width="937"/>
  <unicode hex="017E"/>
  <outline>
    <contour>
      <point x="460" y="1149" type="curve" smooth="yes"/>
      <point x="475" y="1149"/>
      <point x="492" y="1157"/>
      <point x="498" y="1164" type="curve"/>
      <point x="774" y="1572" type="line"/>
      <point x="775" y="1572"/>
      <point x="775" y="1573"/>
      <point x="775" y="1574" type="curve" smooth="yes"/>
      <point x="775" y="1575"/>
      <point x="774" y="1576"/>
      <point x="770" y="1576" type="curve" smooth="yes"/>
      <point x="768" y="1576"/>
      <point x="768" y="1576"/>
      <point x="767" y="1575" type="curve" smooth="yes"/>
      <point x="460" y="1369" type="line"/>
      <point x="153" y="1575" type="line" smooth="yes"/>
      <point x="152" y="1576"/>
      <point x="150" y="1576"/>
      <point x="149" y="1576" type="curve" smooth="yes"/>
      <point x="148" y="1576"/>
      <point x="147" y="1575"/>
      <point x="147" y="1574" type="curve"/>
      <point x="147" y="1572" type="line"/>
      <point x="422" y="1164" type="line"/>
      <point x="428" y="1157"/>
      <point x="446" y="1149"/>
    </contour>
    <contour>
      <point x="78" y="0" type="line"/>
      <point x="846" y="0" type="line"/>
      <point x="846" y="141" type="line"/>
      <point x="341" y="141" type="line"/>
      <point x="861" y="952" type="line"/>
      <point x="842" y="999" type="line"/>
      <point x="108" y="999" type="line"/>
      <point x="108" y="857" type="line"/>
      <point x="588" y="857" type="line"/>
      <point x="68" y="35" type="line"/>
    </contour>
  </outline>
</glyph>
<glyph name="uni01C4" format="1">
  <advance width="3057"/>
  <unicode hex="01C4"/>
  <outline>
    <contour>
      <point x="730" y="1669" type="curve" smooth="yes"/>
      <point x="744" y="1669"/>
      <point x="761" y="1675"/>
      <point x="768" y="1684" type="curve"/>
      <point x="1044" y="2091" type="line"/>
      <point x="1045" y="2091"/>
      <point x="1045" y="2093"/>
      <point x="1045" y="2094" type="curve" smooth="yes"/>
      <point x="1045" y="2095"/>
      <point x="1044" y="2096"/>
      <point x="1042" y="2096" type="curve" smooth="yes"/>
      <point x="1041" y="2096"/>
      <point x="1041" y="2096"/>
      <point x="1039" y="2095" type="curve" smooth="yes"/>
      <point x="730" y="1889" type="line"/>
      <point x="425" y="2095" type="line" smooth="yes"/>
      <point x="423" y="2096"/>
      <point x="420" y="2096"/>
      <point x="419" y="2096" type="curve" smooth="yes"/>
      <point x="418" y="2096"/>
      <point x="417" y="2095"/>
      <point x="417" y="2094" type="curve"/>
      <point x="417" y="2091" type="line"/>
      <point x="692" y="1684" type="line"/>
      <point x="699" y="1675"/>
      <point x="715" y="1669"/>
    </contour>
    <contour>
      <point x="102" y="0" type="line"/>
      <point x="1362" y="0" type="line"/>
      <point x="1362" y="169" type="line"/>
      <point x="458" y="169" type="line"/>
      <point x="1359" y="1506" type="line"/>
      <point x="1350" y="1516" type="line"/>
      <point x="151" y="1516" type="line"/>
      <point x="151" y="1352" type="line"/>
      <point x="1003" y="1352" type="line"/>
      <point x="100" y="11" type="line"/>
    </contour>
    <contour>
      <point x="1774" y="177" type="line"/>
      <point x="1774" y="1337" type="line"/>
      <point x="2180" y="1337" type="line" smooth="yes"/>
      <point x="2487" y="1337"/>
      <point x="2731" y="1199"/>
      <point x="2731" y="761" type="curve" smooth="yes"/>
      <point x="2731" y="374"/>
      <point x="2487" y="177"/>
      <point x="2130" y="177" type="curve" smooth="yes"/>
    </contour>
    <contour>
      <point x="1576" y="0" type="line"/>
      <point x="2175" y="0" type="line" smooth="yes"/>
      <point x="2669" y="0"/>
      <point x="2946" y="356"/>
      <point x="2946" y="764" type="curve" smooth="yes"/>
      <point x="2946" y="1207"/>
      <point x="2690" y="1516"/>
      <point x="2209" y="1516" type="curve" smooth="yes"/>
      <point x="1576" y="1516" type="line"/>
    </contour>
  </outline>
</glyph>
<glyph name="uni01C5" format="1">
  <advance width="2551"/>
  <unicode hex="01C5"/>
  <outline>
    <contour>
      <point x="460" y="1149" type="curve" smooth="yes"/>
      <point x="475" y="1149"/>
      <point x="492" y="1157"/>
      <point x="499" y="1164" type="curve"/>
      <point x="774" y="1572" type="line"/>
      <point x="775" y="1572"/>
      <point x="775" y="1573"/>
      <point x="775" y="1574" type="curve" smooth="yes"/>
      <point x="775" y="1575"/>
      <point x="774" y="1576"/>
      <point x="772" y="1576" type="curve" smooth="yes"/>
      <point x="768" y="1576"/>
      <point x="768" y="1576"/>
      <point x="767" y="1575" type="curve" smooth="yes"/>
      <point x="460" y="1369" type="line"/>
      <point x="154" y="1575" type="line" smooth="yes"/>
      <point x="152" y="1576"/>
      <point x="150" y="1576"/>
      <point x="149" y="1576" type="curve" smooth="yes"/>
      <point x="148" y="1576"/>
      <point x="147" y="1575"/>
      <point x="147" y="1574" type="curve"/>
      <point x="147" y="1572" type="line"/>
      <point x="422" y="1164" type="line"/>
      <point x="429" y="1157"/>
      <point x="446" y="1149"/>
    </contour>
    <contour>
      <point x="78" y="0" type="line"/>
      <point x="846" y="0" type="line"/>
      <point x="846" y="141" type="line"/>
      <point x="341" y="141" type="line"/>
      <point x="858" y="952" type="line"/>
      <point x="842" y="999" type="line"/>
      <point x="108" y="999" type="line"/>
      <point x="108" y="857" type="line"/>
      <point x="588" y="857" type="line"/>
      <point x="68" y="35" type="line"/>
    </contour>
    <contour>
      <point x="1268" y="177" type="line"/>
      <point x="1268" y="1337" type="line"/>
      <point x="1674" y="1337" type="line" smooth="yes"/>
      <point x="1981" y="1337"/>
      <point x="2225" y="1199"/>
      <point x="2225" y="761" type="curve" smooth="yes"/>
      <point x="2225" y="373"/>
      <point x="1981" y="177"/>
      <point x="1624" y="177" type="curve" smooth="yes"/>
    </contour>
    <contour>
      <point x="1069" y="0" type="line"/>
      <point x="1668" y="0" type="line" smooth="yes"/>
      <point x="2162" y="0"/>
      <point x="2442" y="357"/>
      <point x="2442" y="764" type="curve" smooth="yes"/>
      <point x="2442" y="1207"/>
      <point x="2184" y="1516"/>
      <point x="1703" y="1516" type="curve" smooth="yes"/>
      <point x="1069" y="1516" type="line"/>
    </contour>
  </outline>
</glyph>
<glyph name="uni01C9" format="1">
  <advance width="1134"/>
  <unicode hex="01C9"/>
  <outline>
    <contour>
      <point x="902" y="-19" type="curve" smooth="yes"/>
      <point x="971" y="-19"/>
      <point x="1042" y="0"/>
      <point x="1101" y="36" type="curve"/>
      <point x="1101" y="188" type="line"/>
      <point x="1042" y="156"/>
      <point x="977" y="130"/>
      <point x="924" y="130" type="curve" smooth="yes"/>
      <point x="858" y="130"/>
      <point x="808" y="173"/>
      <point x="808" y="303" type="curve" smooth="yes"/>
      <point x="808" y="1490" type="line"/>
      <point x="622" y="1490" type="line"/>
      <point x="622" y="274" type="line" smooth="yes"/>
      <point x="622" y="73"/>
      <point x="757" y="-19"/>
    </contour>
    <contour>
      <point x="20" y="-384" type="line"/>
      <point x="333" y="-384"/>
      <point x="372" y="-173"/>
      <point x="372" y="-79" type="curve" smooth="yes"/>
      <point x="372" y="1016" type="line"/>
      <point x="187" y="1016" type="line"/>
      <point x="187" y="4" type="line" smooth="yes"/>
      <point x="187" y="-112"/>
      <point x="188" y="-242"/>
      <point x="-9" y="-242" type="curve"/>
    </contour>
    <contour>
      <point x="280" y="1156" type="curve" smooth="yes"/>
      <point x="365" y="1156"/>
      <point x="409" y="1214"/>
      <point x="409" y="1276" type="curve" smooth="yes"/>
      <point x="409" y="1336"/>
      <point x="365" y="1397"/>
      <point x="280" y="1397" type="curve" smooth="yes"/>
      <point x="195" y="1397"/>
      <point x="148" y="1336"/>
      <point x="148" y="1276" type="curve" smooth="yes"/>
      <point x="148" y="1214"/>
      <point x="195" y="1156"/>
    </contour>
  </outline>
</glyph>
<glyph name="uni01F3" format="1">
  <advance width="2007"/>
  <unicode hex="01F3"/>
  <outline>
    <contour>
      <point x="78" y="0" type="line"/>
      <point x="846" y="0" type="line"/>
      <point x="846" y="141" type="line"/>
      <point x="341" y="141" type="line"/>
      <point x="859" y="952" type="line"/>
      <point x="843" y="998" type="line"/>
      <point x="107" y="998" type="line"/>
      <point x="107" y="856" type="line"/>
      <point x="589" y="856" type="line"/>
      <point x="69" y="34" type="line"/>
    </contour>
    <contour>
      <point x="1567" y="-18" type="curve" smooth="yes"/>
      <point x="1747" y="-18"/>
      <point x="1894" y="49"/>
      <point x="1894" y="49" type="curve"/>
      <point x="1894" y="1490" type="line"/>
      <point x="1707" y="1490" type="line"/>
      <point x="1707" y="953" type="line"/>
      <point x="1634" y="997"/>
      <point x="1548" y="1017"/>
      <point x="1463" y="1017" type="curve" smooth="yes"/>
      <point x="1155" y="1017"/>
      <point x="985" y="768"/>
      <point x="985" y="515" type="curve" smooth="yes"/>
      <point x="985" y="250"/>
      <point x="1169" y="-18"/>
    </contour>
    <contour>
      <point x="1580" y="115" type="curve" smooth="yes"/>
      <point x="1306" y="115"/>
      <point x="1179" y="309"/>
      <point x="1179" y="510" type="curve" smooth="yes"/>
      <point x="1179" y="695"/>
      <point x="1288" y="871"/>
      <point x="1488" y="871" type="curve" smooth="yes"/>
      <point x="1575" y="871"/>
      <point x="1660" y="840"/>
      <point x="1707" y="793" type="curve"/>
      <point x="1707" y="136" type="line"/>
      <point x="1665" y="117"/>
      <point x="1621" y="115"/>
    </contour>
  </outline>
</glyph>
<glyph name="uni01F5" format="1">
  <advance width="1108"/>
  <unicode hex="01F5"/>
  <outline>
    <contour>
      <point x="571" y="-437" type="curve" smooth="yes"/>
      <point x="784" y="-437"/>
      <point x="993" y="-345"/>
      <point x="993" y="-54" type="curve" smooth="yes"/>
      <point x="993" y="997" type="line"/>
      <point x="812" y="997" type="line"/>
      <point x="812" y="885" type="line"/>
      <point x="719" y="975"/>
      <point x="625" y="1016"/>
      <point x="535" y="1016" type="curve" smooth="yes"/>
      <point x="309" y="1016"/>
      <point x="83" y="805"/>
      <point x="83" y="526" type="curve" smooth="yes"/>
      <point x="83" y="268"/>
      <point x="238" y="0"/>
      <point x="558" y="0" type="curve" smooth="yes"/>
      <point x="701" y="0"/>
      <point x="806" y="84"/>
      <point x="809" y="87" type="curve"/>
      <point x="824" y="32"/>
      <point x="832" y="-17"/>
      <point x="832" y="-59" type="curve" smooth="yes"/>
      <point x="832" y="-230"/>
      <point x="722" y="-291"/>
      <point x="579" y="-291" type="curve" smooth="yes"/>
      <point x="484" y="-291"/>
      <point x="374" y="-264"/>
      <point x="273" y="-223" type="curve"/>
      <point x="273" y="-380" type="line"/>
      <point x="356" y="-414"/>
      <point x="464" y="-437"/>
    </contour>
    <contour>
      <point x="398" y="1149" type="curve" smooth="yes"/>
      <point x="402" y="1149"/>
      <point x="414" y="1155"/>
      <point x="423" y="1169" type="curve"/>
      <point x="652" y="1461" type="line" smooth="yes"/>
      <point x="676" y="1492"/>
      <point x="687" y="1521"/>
      <point x="687" y="1546" type="curve" smooth="yes"/>
      <point x="687" y="1599"/>
      <point x="640" y="1634"/>
      <point x="593" y="1634" type="curve" smooth="yes"/>
      <point x="551" y="1634"/>
      <point x="510" y="1609"/>
      <point x="492" y="1546" type="curve"/>
      <point x="391" y="1183" type="line" smooth="yes"/>
      <point x="389" y="1177"/>
      <point x="388" y="1168"/>
      <point x="388" y="1164" type="curve" smooth="yes"/>
      <point x="388" y="1155"/>
      <point x="391" y="1149"/>
    </contour>
    <contour>
      <point x="592" y="152" type="curve" smooth="yes"/>
      <point x="400" y="152"/>
      <point x="274" y="286"/>
      <point x="274" y="516" type="curve" smooth="yes"/>
      <point x="274" y="733"/>
      <point x="423" y="862"/>
      <point x="577" y="862" type="curve" smooth="yes"/>
      <point x="649" y="862"/>
      <point x="730" y="835"/>
      <point x="809" y="773" type="curve"/>
      <point x="809" y="201" type="line"/>
      <point x="730" y="168"/>
      <point x="656" y="152"/>
    </contour>
  </outline>
</glyph>
<glyph name="uni0204" format="1">
  <advance width="1099"/>
  <unicode hex="0204"/>
  <outline>
    <contour>
      <point x="133" y="0" type="line"/>
      <point x="1009" y="0" type="line"/>
      <point x="1009" y="177" type="line"/>
      <point x="331" y="177" type="line"/>
      <point x="331" y="682" type="line"/>
      <point x="981" y="682" type="line"/>
      <point x="981" y="856" type="line"/>
      <point x="331" y="856" type="line"/>
      <point x="331" y="1339" type="line"/>
      <point x="995" y="1339" type="line"/>
      <point x="995" y="1516" type="line"/>
      <point x="133" y="1516" type="line"/>
    </contour>
  </outline>
</glyph>
<glyph name="uni0205" format="1">
  <advance width="1090"/>
  <unicode hex="0205"/>
  <outline>
    <contour>
      <point x="638" y="-19" type="curve" smooth="yes"/>
      <point x="760" y="-19"/>
      <point x="868" y="12"/>
      <point x="962" y="72" type="curve"/>
      <point x="962" y="229" type="line"/>
      <point x="859" y="163"/>
      <point x="749" y="130"/>
      <point x="636" y="130" type="curve" smooth="yes"/>
      <point x="416" y="130"/>
      <point x="284" y="283"/>
      <point x="282" y="498" type="curve"/>
      <point x="981" y="498" type="line"/>
      <point x="981" y="525" type="line" smooth="yes"/>
      <point x="981" y="812"/>
      <point x="842" y="1016"/>
      <point x="551" y="1016" type="curve" smooth="yes"/>
      <point x="279" y="1016"/>
      <point x="83" y="788"/>
      <point x="83" y="515" type="curve" smooth="yes"/>
      <point x="83" y="198"/>
      <point x="303" y="-19"/>
    </contour>
    <contour>
      <point x="288" y="618" type="line"/>
      <point x="313" y="757"/>
      <point x="404" y="867"/>
      <point x="558" y="867" type="curve" smooth="yes"/>
      <point x="703" y="867"/>
      <point x="811" y="762"/>
      <point x="812" y="618" type="curve"/>
    </contour>
  </outline>
</glyph>
<glyph name="uni0206" format="1">
  <advance width="1099"/>
  <unicode hex="0206"/>
  <outline>
    <contour>
      <point x="133" y="0" type="line"/>
      <point x="1009" y="0" type="line"/>
      <point x="1009" y="177" type="line"/>
      <point x="331" y="177" type="line"/>
      <point x="331" y="682" type="line"/>
      <point x="981" y="682" type="line"/>
      <point x="981" y="856" type="line"/>
      <point x="331" y="856" type="line"/>
      <point x="331" y="1339" type="line"/>
      <point x="995" y="1339" type="line"/>
      <point x="995" y="1516" type="line"/>
      <point x="133" y="1516" type="line"/>
    </contour>
    <contour>
      <point x="284" y="1668" type="curve"/>
      <point x="433" y="1668" type="line"/>
      <point x="443" y="1750"/>
      <point x="495" y="1793"/>
      <point x="565" y="1793" type="curve" smooth="yes"/>
      <point x="633" y="1793"/>
      <point x="685" y="1750"/>
      <point x="695" y="1668" type="curve"/>
      <point x="844" y="1668" type="line"/>
      <point x="837" y="1828"/>
      <point x="694" y="1920"/>
      <point x="566" y="1920" type="curve" smooth="yes"/>
      <point x="435" y="1920"/>
      <point x="291" y="1828"/>
    </contour>
  </outline>
</glyph>
<glyph name="uni0207" format="1">
  <advance width="1090"/>
  <unicode hex="0207"/>
  <outline>
    <contour>
      <point x="638" y="-20" type="curve" smooth="yes"/>
      <point x="760" y="-20"/>
      <point x="868" y="12"/>
      <point x="962" y="71" type="curve"/>
      <point x="962" y="228" type="line"/>
      <point x="859" y="161"/>
      <point x="749" y="130"/>
      <point x="636" y="130" type="curve" smooth="yes"/>
      <point x="416" y="130"/>
      <point x="284" y="282"/>
      <point x="282" y="497" type="curve"/>
      <point x="981" y="497" type="line"/>
      <point x="981" y="523" type="line" smooth="yes"/>
      <point x="981" y="810"/>
      <point x="842" y="1016"/>
      <point x="551" y="1016" type="curve" smooth="yes"/>
      <point x="279" y="1016"/>
      <point x="83" y="787"/>
      <point x="83" y="516" type="curve" smooth="yes"/>
      <point x="83" y="198"/>
      <point x="303" y="-20"/>
    </contour>
    <contour>
      <point x="252" y="1149" type="curve"/>
      <point x="401" y="1149" type="line"/>
      <point x="411" y="1231"/>
      <point x="463" y="1272"/>
      <point x="533" y="1272" type="curve" smooth="yes"/>
      <point x="601" y="1272"/>
      <point x="653" y="1231"/>
      <point x="662" y="1149" type="curve"/>
      <point x="812" y="1149" type="line"/>
      <point x="806" y="1308"/>
      <point x="661" y="1400"/>
      <point x="534" y="1400" type="curve" smooth="yes"/>
      <point x="403" y="1400"/>
      <point x="259" y="1308"/>
    </contour>
    <contour>
      <point x="288" y="618" type="line"/>
      <point x="313" y="756"/>
      <point x="404" y="865"/>
      <point x="558" y="865" type="curve" smooth="yes"/>
      <point x="703" y="865"/>
      <point x="811" y="761"/>
      <point x="812" y="618" type="curve"/>
    </contour>
  </outline>
</glyph>
<glyph name="uni0208" format="1">
  <advance width="444"/>
  <unicode hex="0208"/>
  <outline>
    <contour>
      <point x="124" y="0" type="line"/>
      <point x="322" y="0" type="line"/>
      <point x="322" y="1516" type="line"/>
      <point x="124" y="1516" type="line"/>
    </contour>
  </outline>
</glyph>
<glyph name="uni0209" format="1">
  <advance width="473"/>
  <unicode hex="0209"/>
  <outline>
    <contour>
      <point x="168" y="0" type="line"/>
      <point x="355" y="0" type="line"/>
      <point x="355" y="998" type="line"/>
      <point x="168" y="998" type="line"/>
    </contour>
  </outline>
</glyph>
<glyph name="uni020B" format="1">
  <advance width="473"/>
  <unicode hex="020B"/>
  <outline>
    <contour>
      <point x="-20" y="1149" type="curve"/>
      <point x="128" y="1149" type="line"/>
      <point x="138" y="1231"/>
      <point x="190" y="1273"/>
      <point x="259" y="1273" type="curve" smooth="yes"/>
      <point x="330" y="1273"/>
      <point x="382" y="1231"/>
      <point x="391" y="1149" type="curve"/>
      <point x="539" y="1149" type="line"/>
      <point x="533" y="1308"/>
      <point x="389" y="1401"/>
      <point x="260" y="1401" type="curve" smooth="yes"/>
      <point x="132" y="1401"/>
      <point x="-13" y="1308"/>
    </contour>
    <contour>
      <point x="167" y="0" type="line"/>
      <point x="354" y="0" type="line"/>
      <point x="354" y="999" type="line"/>
      <point x="167" y="999" type="line"/>
    </contour>
  </outline>
</glyph>
<glyph name="uni020E" format="1">
  <advance width="1822"/>
  <unicode hex="020E"/>
  <outline>
    <contour>
      <point x="626" y="1667" type="curve"/>
      <point x="775" y="1667" type="line"/>
      <point x="786" y="1750"/>
      <point x="838" y="1793"/>
      <point x="907" y="1793" type="curve" smooth="yes"/>
      <point x="976" y="1793"/>
      <point x="1029" y="1750"/>
      <point x="1038" y="1667" type="curve"/>
      <point x="1187" y="1667" type="line"/>
      <point x="1181" y="1826"/>
      <point x="1036" y="1918"/>
      <point x="908" y="1918" type="curve" smooth="yes"/>
      <point x="779" y="1918"/>
      <point x="634" y="1826"/>
    </contour>
    <contour>
      <point x="909" y="161" type="curve" smooth="yes"/>
      <point x="583" y="161"/>
      <point x="316" y="430"/>
      <point x="316" y="759" type="curve" smooth="yes"/>
      <point x="316" y="1087"/>
      <point x="583" y="1356"/>
      <point x="909" y="1356" type="curve" smooth="yes"/>
      <point x="1236" y="1356"/>
      <point x="1504" y="1087"/>
      <point x="1504" y="759" type="curve" smooth="yes"/>
      <point x="1504" y="430"/>
      <point x="1236" y="161"/>
    </contour>
    <contour>
      <point x="909" y="-19" type="curve" smooth="yes"/>
      <point x="1349" y="-19"/>
      <point x="1711" y="330"/>
      <point x="1711" y="759" type="curve" smooth="yes"/>
      <point x="1711" y="1188"/>
      <point x="1349" y="1535"/>
      <point x="909" y="1535" type="curve" smooth="yes"/>
      <point x="469" y="1535"/>
      <point x="109" y="1188"/>
      <point x="109" y="759" type="curve" smooth="yes"/>
      <point x="109" y="330"/>
      <point x="469" y="-19"/>
    </contour>
  </outline>
</glyph>
<glyph name="uni020F" format="1">
  <advance width="1242"/>
  <unicode hex="020F"/>
  <outline>
    <contour>
      <point x="341" y="1149" type="curve"/>
      <point x="489" y="1149" type="line"/>
      <point x="500" y="1231"/>
      <point x="551" y="1272"/>
      <point x="621" y="1272" type="curve" smooth="yes"/>
      <point x="691" y="1272"/>
      <point x="743" y="1231"/>
      <point x="753" y="1149" type="curve"/>
      <point x="901" y="1149" type="line"/>
      <point x="894" y="1308"/>
      <point x="750" y="1400"/>
      <point x="622" y="1400" type="curve" smooth="yes"/>
      <point x="494" y="1400"/>
      <point x="348" y="1308"/>
    </contour>
    <contour>
      <point x="621" y="132" type="curve" smooth="yes"/>
      <point x="412" y="132"/>
      <point x="270" y="298"/>
      <point x="270" y="497" type="curve" smooth="yes"/>
      <point x="270" y="701"/>
      <point x="412" y="862"/>
      <point x="621" y="862" type="curve" smooth="yes"/>
      <point x="830" y="862"/>
      <point x="974" y="701"/>
      <point x="974" y="497" type="curve" smooth="yes"/>
      <point x="974" y="298"/>
      <point x="830" y="132"/>
    </contour>
    <contour>
      <point x="621" y="-20" type="curve" smooth="yes"/>
      <point x="914" y="-20"/>
      <point x="1160" y="186"/>
      <point x="1160" y="500" type="curve" smooth="yes"/>
      <point x="1160" y="810"/>
      <point x="914" y="1017"/>
      <point x="621" y="1017" type="curve" smooth="yes"/>
      <point x="328" y="1017"/>
      <point x="84" y="810"/>
      <point x="84" y="500" type="curve" smooth="yes"/>
      <point x="84" y="186"/>
      <point x="328" y="-20"/>
    </contour>
  </outline>
</glyph>
<glyph name="uni0210" format="1">
  <advance width="1136"/>
  <unicode hex="0210"/>
  <outline>
    <contour>
      <point x="134" y="0" type="line"/>
      <point x="332" y="0" type="line"/>
      <point x="332" y="695" type="line"/>
      <point x="436" y="695" type="line" smooth="yes"/>
      <point x="456" y="695"/>
      <point x="476" y="696"/>
      <point x="495" y="696" type="curve" smooth="yes"/>
      <point x="497" y="696" type="line"/>
      <point x="596" y="463"/>
      <point x="747" y="148"/>
      <point x="839" y="0" type="curve"/>
      <point x="1039" y="0" type="line"/>
      <point x="1040" y="51" type="line"/>
      <point x="917" y="249"/>
      <point x="780" y="485"/>
      <point x="686" y="723" type="curve"/>
      <point x="899" y="787"/>
      <point x="991" y="931"/>
      <point x="991" y="1118" type="curve" smooth="yes"/>
      <point x="991" y="1401"/>
      <point x="768" y="1516"/>
      <point x="486" y="1516" type="curve" smooth="yes"/>
      <point x="134" y="1516" type="line"/>
    </contour>
    <contour>
      <point x="332" y="856" type="line"/>
      <point x="332" y="1352" type="line"/>
      <point x="464" y="1352" type="line" smooth="yes"/>
      <point x="734" y="1352"/>
      <point x="783" y="1231"/>
      <point x="783" y="1107" type="curve" smooth="yes"/>
      <point x="783" y="879"/>
      <point x="601" y="856"/>
      <point x="382" y="856" type="curve" smooth="yes"/>
    </contour>
  </outline>
</glyph>
<glyph name="uni0211" format="1">
  <advance width="853"/>
  <unicode hex="0211"/>
  <outline>
    <contour>
      <point x="112" y="0" type="line"/>
      <point x="295" y="0" type="line"/>
      <point x="295" y="411" type="line" smooth="yes"/>
      <point x="295" y="737"/>
      <point x="453" y="825"/>
      <point x="536" y="825" type="curve" smooth="yes"/>
      <point x="595" y="825"/>
      <point x="647" y="779"/>
      <point x="679" y="740" type="curve"/>
      <point x="800" y="899" type="line"/>
      <point x="721" y="985"/>
      <point x="633" y="1015"/>
      <point x="581" y="1015" type="curve" smooth="yes"/>
      <point x="432" y="1015"/>
      <point x="333" y="870"/>
      <point x="295" y="749" type="curve"/>
      <point x="295" y="996" type="line"/>
      <point x="112" y="996" type="line"/>
    </contour>
  </outline>
</glyph>
<glyph name="uni0212" format="1">
  <advance width="1136"/>
  <unicode hex="0212"/>
  <outline>
    <contour>
      <point x="134" y="0" type="line"/>
      <point x="332" y="0" type="line"/>
      <point x="332" y="695" type="line"/>
      <point x="436" y="695" type="line" smooth="yes"/>
      <point x="456" y="695"/>
      <point x="476" y="696"/>
      <point x="495" y="696" type="curve" smooth="yes"/>
      <point x="497" y="696" type="line"/>
      <point x="596" y="462"/>
      <point x="747" y="146"/>
      <point x="839" y="0" type="curve"/>
      <point x="1039" y="0" type="line"/>
      <point x="1040" y="51" type="line"/>
      <point x="917" y="249"/>
      <point x="780" y="486"/>
      <point x="686" y="723" type="curve"/>
      <point x="899" y="788"/>
      <point x="991" y="932"/>
      <point x="991" y="1118" type="curve" smooth="yes"/>
      <point x="991" y="1400"/>
      <point x="768" y="1516"/>
      <point x="486" y="1516" type="curve" smooth="yes"/>
      <point x="134" y="1516" type="line"/>
    </contour>
    <contour>
      <point x="301" y="1668" type="curve"/>
      <point x="450" y="1668" type="line"/>
      <point x="459" y="1750"/>
      <point x="512" y="1793"/>
      <point x="581" y="1793" type="curve" smooth="yes"/>
      <point x="650" y="1793"/>
      <point x="702" y="1750"/>
      <point x="711" y="1668" type="curve"/>
      <point x="860" y="1668" type="line"/>
      <point x="854" y="1828"/>
      <point x="710" y="1920"/>
      <point x="582" y="1920" type="curve" smooth="yes"/>
      <point x="452" y="1920"/>
      <point x="308" y="1828"/>
    </contour>
    <contour>
      <point x="332" y="856" type="line"/>
      <point x="332" y="1352" type="line"/>
      <point x="464" y="1352" type="line" smooth="yes"/>
      <point x="734" y="1352"/>
      <point x="783" y="1231"/>
      <point x="783" y="1107" type="curve" smooth="yes"/>
      <point x="783" y="879"/>
      <point x="601" y="856"/>
      <point x="382" y="856" type="curve" smooth="yes"/>
    </contour>
  </outline>
</glyph>
<glyph name="uni0215" format="1">
  <advance width="1040"/>
  <unicode hex="0215"/>
  <outline>
    <contour>
      <point x="433" y="-18" type="curve" smooth="yes"/>
      <point x="543" y="-18"/>
      <point x="656" y="30"/>
      <point x="746" y="129" type="curve"/>
      <point x="746" y="0" type="line"/>
      <point x="928" y="0" type="line"/>
      <point x="928" y="996" type="line"/>
      <point x="744" y="996" type="line"/>
      <point x="744" y="272" type="line"/>
      <point x="686" y="186"/>
      <point x="571" y="127"/>
      <point x="468" y="127" type="curve" smooth="yes"/>
      <point x="371" y="127"/>
      <point x="289" y="183"/>
      <point x="289" y="325" type="curve" smooth="yes"/>
      <point x="289" y="996" type="line"/>
      <point x="104" y="996" type="line"/>
      <point x="104" y="334" type="line" smooth="yes"/>
      <point x="104" y="101"/>
      <point x="261" y="-18"/>
    </contour>
  </outline>
</glyph>
<glyph name="uni0216" format="1">
  <advance width="1541"/>
  <unicode hex="0216"/>
  <outline>
    <contour>
      <point x="771" y="-19" type="curve" smooth="yes"/>
      <point x="1087" y="-19"/>
      <point x="1406" y="182"/>
      <point x="1406" y="587" type="curve" smooth="yes"/>
      <point x="1406" y="1515" type="line"/>
      <point x="1207" y="1515" type="line"/>
      <point x="1207" y="591" type="line" smooth="yes"/>
      <point x="1207" y="300"/>
      <point x="988" y="154"/>
      <point x="768" y="154" type="curve" smooth="yes"/>
      <point x="548" y="154"/>
      <point x="333" y="300"/>
      <point x="333" y="591" type="curve" smooth="yes"/>
      <point x="333" y="1515" type="line"/>
      <point x="134" y="1515" type="line"/>
      <point x="134" y="585" type="line" smooth="yes"/>
      <point x="134" y="182"/>
      <point x="454" y="-19"/>
    </contour>
    <contour>
      <point x="490" y="1667" type="curve"/>
      <point x="639" y="1667" type="line"/>
      <point x="648" y="1750"/>
      <point x="700" y="1793"/>
      <point x="769" y="1793" type="curve" smooth="yes"/>
      <point x="840" y="1793"/>
      <point x="891" y="1750"/>
      <point x="901" y="1667" type="curve"/>
      <point x="1049" y="1667" type="line"/>
      <point x="1043" y="1826"/>
      <point x="899" y="1918"/>
      <point x="770" y="1918" type="curve" smooth="yes"/>
      <point x="642" y="1918"/>
      <point x="497" y="1826"/>
    </contour>
  </outline>
</glyph>
<glyph name="Scommaaccent" format="1">
  <advance width="1026"/>
  <unicode hex="0218"/>
  <outline>
    <contour>
      <point x="479" y="-14" type="curve" smooth="yes"/>
      <point x="714" y="-14"/>
      <point x="943" y="124"/>
      <point x="943" y="390" type="curve" smooth="yes"/>
      <point x="943" y="534"/>
      <point x="890" y="643"/>
      <point x="707" y="771" type="curve"/>
      <point x="440" y="948" type="line" smooth="yes"/>
      <point x="345" y="1012"/>
      <point x="290" y="1092"/>
      <point x="290" y="1170" type="curve" smooth="yes"/>
      <point x="290" y="1273"/>
      <point x="378" y="1359"/>
      <point x="553" y="1359" type="curve" smooth="yes"/>
      <point x="701" y="1359"/>
      <point x="853" y="1248"/>
      <point x="884" y="1224" type="curve"/>
      <point x="884" y="1439" type="line"/>
      <point x="853" y="1466"/>
      <point x="682" y="1537"/>
      <point x="535" y="1537" type="curve" smooth="yes"/>
      <point x="238" y="1537"/>
      <point x="75" y="1346"/>
      <point x="75" y="1149" type="curve" smooth="yes"/>
      <point x="75" y="1035"/>
      <point x="131" y="916"/>
      <point x="254" y="831" type="curve" smooth="yes"/>
      <point x="580" y="605" type="line" smooth="yes"/>
      <point x="724" y="506"/>
      <point x="745" y="446"/>
      <point x="745" y="376" type="curve" smooth="yes"/>
      <point x="745" y="239"/>
      <point x="632" y="167"/>
      <point x="494" y="167" type="curve" smooth="yes"/>
      <point x="306" y="167"/>
      <point x="205" y="266"/>
      <point x="107" y="343" type="curve"/>
      <point x="107" y="123" type="line"/>
      <point x="206" y="32"/>
      <point x="343" y="-14"/>
    </contour>
    <contour>
      <point x="405" y="-619" type="line"/>
      <point x="513" y="-619"/>
      <point x="651" y="-427"/>
      <point x="651" y="-292" type="curve" smooth="yes"/>
      <point x="651" y="-192"/>
      <point x="575" y="-146"/>
      <point x="505" y="-146" type="curve" smooth="yes"/>
      <point x="434" y="-146"/>
      <point x="367" y="-193"/>
      <point x="367" y="-284" type="curve" smooth="yes"/>
      <point x="367" y="-336"/>
      <point x="399" y="-388"/>
      <point x="469" y="-408" type="curve"/>
      <point x="469" y="-487"/>
      <point x="445" y="-538"/>
      <point x="382" y="-594" type="curve"/>
    </contour>
  </outline>
</glyph>
<glyph name="uni021A" format="1">
  <advance width="1360"/>
  <unicode hex="021A"/>
  <outline>
    <contour>
      <point x="579" y="0" type="line"/>
      <point x="778" y="0" type="line"/>
      <point x="778" y="1342" type="line"/>
      <point x="1319" y="1342" type="line"/>
      <point x="1319" y="1517" type="line"/>
      <point x="40" y="1517" type="line"/>
      <point x="40" y="1342" type="line"/>
      <point x="579" y="1342" type="line"/>
    </contour>
    <contour>
      <point x="576" y="-604" type="line"/>
      <point x="684" y="-604"/>
      <point x="822" y="-412"/>
      <point x="822" y="-278" type="curve" smooth="yes"/>
      <point x="822" y="-177"/>
      <point x="746" y="-132"/>
      <point x="676" y="-132" type="curve" smooth="yes"/>
      <point x="606" y="-132"/>
      <point x="538" y="-178"/>
      <point x="538" y="-269" type="curve" smooth="yes"/>
      <point x="538" y="-321"/>
      <point x="570" y="-374"/>
      <point x="641" y="-392" type="curve"/>
      <point x="641" y="-471"/>
      <point x="616" y="-523"/>
      <point x="552" y="-578" type="curve"/>
    </contour>
  </outline>
</glyph>
<glyph name="uni0237" format="1">
  <advance width="527"/>
  <unicode hex="0237"/>
  <outline>
    <contour>
      <point x="56" y="-385" type="line"/>
      <point x="375" y="-385"/>
      <point x="415" y="-173"/>
      <point x="415" y="-79" type="curve" smooth="yes"/>
      <point x="415" y="998" type="line"/>
      <point x="222" y="998" type="line"/>
      <point x="222" y="3" type="line" smooth="yes"/>
      <point x="222" y="-112"/>
      <point x="223" y="-242"/>
      <point x="27" y="-242" type="curve"/>
    </contour>
  </outline>
</glyph>
<glyph name="circumflex" format="1">
  <advance width="785"/>
  <unicode hex="02C6"/>
  <outline>
    <contour>
      <point x="82" y="142" type="curve" smooth="yes"/>
      <point x="83" y="142"/>
      <point x="83" y="142"/>
      <point x="86" y="143" type="curve" smooth="yes"/>
      <point x="394" y="349" type="line"/>
      <point x="699" y="143" type="line" smooth="yes"/>
      <point x="702" y="142"/>
      <point x="704" y="142"/>
      <point x="705" y="142" type="curve" smooth="yes"/>
      <point x="706" y="142"/>
      <point x="707" y="143"/>
      <point x="707" y="144" type="curve" smooth="yes"/>
      <point x="707" y="146" type="line"/>
      <point x="432" y="554" type="line" smooth="yes"/>
      <point x="425" y="563"/>
      <point x="408" y="569"/>
      <point x="394" y="569" type="curve" smooth="yes"/>
      <point x="379" y="569"/>
      <point x="363" y="563"/>
      <point x="355" y="554" type="curve"/>
      <point x="80" y="146" type="line" smooth="yes"/>
      <point x="79" y="146"/>
      <point x="79" y="145"/>
      <point x="79" y="144" type="curve" smooth="yes"/>
      <point x="79" y="143"/>
      <point x="80" y="142"/>
    </contour>
  </outline>
</glyph>
<glyph name="dotaccent" format="1">
  <advance width="512"/>
  <unicode hex="02D9"/>
  <outline>
    <contour>
      <point x="257.0" y="-18.0" type="curve" smooth="yes"/>
      <point x="323.0" y="-18.0"/>
      <point x="392.0" y="24.0"/>
      <point x="392.0" y="110.0" type="curve" smooth="yes"/>
      <point x="392.0" y="197.0"/>
      <point x="323.0" y="243.0"/>
      <point x="257.0" y="243.0" type="curve" smooth="yes"/>
      <point x="190.0" y="243.0"/>
      <point x="122.0" y="199.0"/>
      <point x="122.0" y="110.0" type="curve" smooth="yes"/>
      <point x="122.0" y="24.0"/>
      <point x="190.0" y="-18.0"/>
    </contour>
  </outline>
</glyph>
<glyph name="ring" format="1">
  <advance width="685"/>
  <unicode hex="02DA"/>
  <outline>
    <contour>
      <point x="330" y="171" type="move" name="_top"/>
    </contour>
    <contour>
      <point x="343" y="283" type="curve" smooth="yes"/>
      <point x="279" y="283"/>
      <point x="213" y="322"/>
      <point x="213" y="399" type="curve" smooth="yes"/>
      <point x="213" y="475"/>
      <point x="278" y="513"/>
      <point x="342" y="513" type="curve" smooth="yes"/>
      <point x="406" y="513"/>
      <point x="469" y="475"/>
      <point x="469" y="399" type="curve" smooth="yes"/>
      <point x="469" y="322"/>
      <point x="407" y="283"/>
    </contour>
    <contour>
      <point x="342" y="181" type="curve" smooth="yes"/>
      <point x="466" y="181"/>
      <point x="590" y="254"/>
      <point x="590" y="399" type="curve" smooth="yes"/>
      <point x="590" y="542"/>
      <point x="466" y="615"/>
      <point x="343" y="615" type="curve" smooth="yes"/>
      <point x="219" y="615"/>
      <point x="95" y="542"/>
      <point x="95" y="400" type="curve" smooth="yes"/>
      <point x="95" y="255"/>
      <point x="219" y="181"/>
    </contour>
  </outline>
</glyph>
<glyph name="quoteright" format="1">
  <advance width="485"/>
  <unicode hex="2019"/>
  <outline>
    <contour>
      <point x="146" y="1093" type="line"/>
      <point x="255" y="1093"/>
      <point x="392" y="1285"/>
      <point x="392" y="1419" type="curve" smooth="yes"/>
      <point x="392" y="1519"/>
      <point x="316" y="1567"/>
      <point x="244" y="1567" type="curve" smooth="yes"/>
      <point x="168" y="1567"/>
      <point x="93" y="1517"/>
      <point x="93" y="1428" type="curve" smooth="yes"/>
      <point x="93" y="1377"/>
      <point x="125" y="1327"/>
      <point x="197" y="1306" type="curve"/>
      <point x="197" y="1228"/>
      <point x="175" y="1174"/>
      <point x="121" y="1119" type="curve"/>
    </contour>
  </outline>
</glyph>
<glyph name="minus" format="1">
  <advance width="1301"/>
  <unicode hex="2212"/>
  <outline>
    <contour>
      <point x="206.0" y="410.0" type="line"/>
      <point x="1092.0" y="410.0" type="line"/>
      <point x="1092.0" y="567.0" type="line"/>
      <point x="206.0" y="567.0" type="line"/>
    </contour>
  </outline>
</glyph>
<glyph name="ff" format="1">
  <advance width="1212"/>
  <unicode hex="FB00"/>
  <outline>
    <contour>
      <point x="747" y="0" type="line"/>
      <point x="931" y="0" type="line"/>
      <point x="931" y="852" type="line"/>
      <point x="1141" y="852" type="line"/>
      <point x="1141" y="996" type="line"/>
      <point x="931" y="996" type="line"/>
      <point x="931" y="1072" type="line" smooth="yes"/>
      <point x="931" y="1214"/>
      <point x="985" y="1275"/>
      <point x="1098" y="1275" type="curve" smooth="yes"/>
      <point x="1135" y="1275"/>
      <point x="1178" y="1266"/>
      <point x="1231" y="1244" type="curve"/>
      <point x="1231" y="1404" type="line"/>
      <point x="1166" y="1424"/>
      <point x="1110" y="1433"/>
      <point x="1060" y="1433" type="curve" smooth="yes"/>
      <point x="848" y="1433"/>
      <point x="742" y="1289"/>
      <point x="742" y="1072" type="curve" smooth="yes"/>
      <point x="742" y="996" type="line"/>
      <point x="351" y="996" type="line"/>
      <point x="351" y="1072" type="line" smooth="yes"/>
      <point x="351" y="1215"/>
      <point x="412" y="1276"/>
      <point x="499" y="1276" type="curve" smooth="yes"/>
      <point x="537" y="1276"/>
      <point x="579" y="1265"/>
      <point x="625" y="1245" type="curve"/>
      <point x="625" y="1405" type="line"/>
      <point x="567" y="1424"/>
      <point x="514" y="1433"/>
      <point x="465" y="1433" type="curve" smooth="yes"/>
      <point x="282" y="1433"/>
      <point x="163" y="1301"/>
      <point x="163" y="1073" type="curve" smooth="yes"/>
      <point x="163" y="998" type="line"/>
      <point x="28" y="998" type="line"/>
      <point x="28" y="854" type="line"/>
      <point x="167" y="854" type="line"/>
      <point x="167" y="1" type="line"/>
      <point x="351" y="1" type="line"/>
      <point x="351" y="854" type="line"/>
      <point x="747" y="854" type="line"/>
    </contour>
  </outline>
</glyph>
<glyph name=".notdef" format="1">
  <advance width="1374"/>
  <outline>
    <contour>
      <point x="274" y="131" type="line"/>
      <point x="274" y="1283" type="line"/>
      <point x="1101" y="1283" type="line"/>
      <point x="1101" y="131" type="line"/>
    </contour>
    <contour>
      <point x="137" y="0" type="line"/>
      <point x="1238" y="0" type="line"/>
      <point x="1238" y="1414" type="line"/>
      <point x="137" y="1414" type="line"/>
    </contour>
  </outline>
</glyph>
